<?xml version="1.0" encoding="UTF-8" standalone="no"?>
<!DOCTYPE svg PUBLIC "-//W3C//DTD SVG 1.1//EN"
 "http://www.w3.org/Graphics/SVG/1.1/DTD/svg11.dtd">
<!-- Generated by graphviz version 2.36.0 (20140111.2315)
 -->
<!-- Title: G Pages: 1 -->
<svg width="858pt" height="1258pt"
 viewBox="0.00 0.00 858.00 1258.00" xmlns="http://www.w3.org/2000/svg" xmlns:xlink="http://www.w3.org/1999/xlink">
<g id="graph0" class="graph" transform="scale(1 1) rotate(0) translate(4 1254)">
<title>G</title>
<polygon fill="white" stroke="none" points="-4,4 -4,-1254 854,-1254 854,4 -4,4"/>
<g id="clust1" class="cluster"><title>cluster_Global</title>
<path fill="none" stroke="gray" d="M150,-8C150,-8 830,-8 830,-8 836,-8 842,-14 842,-20 842,-20 842,-1230 842,-1230 842,-1236 836,-1242 830,-1242 830,-1242 150,-1242 150,-1242 144,-1242 138,-1236 138,-1230 138,-1230 138,-20 138,-20 138,-14 144,-8 150,-8"/>
<text text-anchor="middle" x="490" y="-1229.2" font-family="Times,serif" font-size="11.00" fill="gray">Global</text>
</g>
<g id="clust2" class="cluster"><title>cluster_\Duality</title>
<path fill="none" stroke="gray" d="M158,-16C158,-16 822,-16 822,-16 828,-16 834,-22 834,-28 834,-28 834,-1202 834,-1202 834,-1208 828,-1214 822,-1214 822,-1214 158,-1214 158,-1214 152,-1214 146,-1208 146,-1202 146,-1202 146,-28 146,-28 146,-22 152,-16 158,-16"/>
<text text-anchor="middle" x="490" y="-1201.2" font-family="Times,serif" font-size="11.00" fill="gray">Duality</text>
</g>
<g id="clust3" class="cluster"><title>cluster_\Duality\System</title>
<path fill="none" stroke="gray" d="M166,-24C166,-24 814,-24 814,-24 820,-24 826,-30 826,-36 826,-36 826,-1174 826,-1174 826,-1180 820,-1186 814,-1186 814,-1186 166,-1186 166,-1186 160,-1186 154,-1180 154,-1174 154,-1174 154,-36 154,-36 154,-30 160,-24 166,-24"/>
<text text-anchor="middle" x="490" y="-1173.2" font-family="Times,serif" font-size="11.00" fill="gray">System</text>
</g>
<g id="clust4" class="cluster"><title>cluster_\Duality\System\Core</title>
<path fill="none" stroke="gray" d="M174,-438C174,-438 324,-438 324,-438 330,-438 336,-444 336,-450 336,-450 336,-1146 336,-1146 336,-1152 330,-1158 324,-1158 324,-1158 174,-1158 174,-1158 168,-1158 162,-1152 162,-1146 162,-1146 162,-450 162,-450 162,-444 168,-438 174,-438"/>
<text text-anchor="middle" x="249" y="-1145.2" font-family="Times,serif" font-size="11.00" fill="gray">Core</text>
</g>
<g id="clust5" class="cluster"><title>cluster_\Duality\System\Structure</title>
<path fill="none" stroke="gray" d="M411,-76C411,-76 650,-76 650,-76 656,-76 662,-82 662,-88 662,-88 662,-460 662,-460 662,-466 656,-472 650,-472 650,-472 411,-472 411,-472 405,-472 399,-466 399,-460 399,-460 399,-88 399,-88 399,-82 405,-76 411,-76"/>
<text text-anchor="middle" x="530.5" y="-459.2" font-family="Times,serif" font-size="11.00" fill="gray">Structure</text>
</g>
<g id="clust6" class="cluster"><title>cluster_\Duality\System\Database</title>
<path fill="none" stroke="gray" d="M587,-492C587,-492 637,-492 637,-492 643,-492 649,-498 649,-504 649,-504 649,-606 649,-606 649,-612 643,-618 637,-618 637,-618 587,-618 587,-618 581,-618 575,-612 575,-606 575,-606 575,-504 575,-504 575,-498 581,-492 587,-492"/>
<text text-anchor="middle" x="612" y="-605.2" font-family="Times,serif" font-size="11.00" fill="gray">Database</text>
</g>
<g id="clust7" class="cluster"><title>cluster_\Duality\System\Http</title>
<path fill="none" stroke="gray" d="M736,-291C736,-291 800,-291 800,-291 806,-291 812,-297 812,-303 812,-303 812,-459 812,-459 812,-465 806,-471 800,-471 800,-471 736,-471 736,-471 730,-471 724,-465 724,-459 724,-459 724,-303 724,-303 724,-297 730,-291 736,-291"/>
<text text-anchor="middle" x="768" y="-458.2" font-family="Times,serif" font-size="11.00" fill="gray">Http</text>
</g>
<g id="clust8" class="cluster"><title>cluster_\Duality\System\Service</title>
<path fill="none" stroke="gray" d="M404,-492C404,-492 494,-492 494,-492 500,-492 506,-498 506,-504 506,-504 506,-1146 506,-1146 506,-1152 500,-1158 494,-1158 494,-1158 404,-1158 404,-1158 398,-1158 392,-1152 392,-1146 392,-1146 392,-504 392,-504 392,-498 398,-492 404,-492"/>
<text text-anchor="middle" x="449" y="-1145.2" font-family="Times,serif" font-size="11.00" fill="gray">Service</text>
</g>
<g id="clust9" class="cluster"><title>cluster_\Duality\System\File</title>
<path fill="none" stroke="gray" d="M730,-103C730,-103 806,-103 806,-103 812,-103 818,-109 818,-115 818,-115 818,-271 818,-271 818,-277 812,-283 806,-283 806,-283 730,-283 730,-283 724,-283 718,-277 718,-271 718,-271 718,-115 718,-115 718,-109 724,-103 730,-103"/>
<text text-anchor="middle" x="768" y="-270.2" font-family="Times,serif" font-size="11.00" fill="gray">File</text>
</g>
<!-- \\Duality\\System\\Core\\Container -->
<g id="node1" class="node"><title>\\Duality\\System\\Core\\Container</title>
<polygon fill="none" stroke="black" points="291,-482 207,-482 207,-446 291,-446 291,-482"/>
<text text-anchor="start" x="215" y="-467.2" font-family="Courier,monospace" font-size="11.00">«abstract»</text>
<text text-anchor="start" x="218.5" y="-455.2" font-family="Courier,monospace" font-size="11.00">Container</text>
</g>
<!-- \\Duality\\System\\Core\\Structure -->
<g id="node2" class="node"><title>\\Duality\\System\\Core\\Structure</title>
<polygon fill="none" stroke="black" points="291,-536 207,-536 207,-500 291,-500 291,-536"/>
<text text-anchor="start" x="215" y="-521.2" font-family="Courier,monospace" font-size="11.00">«abstract»</text>
<text text-anchor="start" x="218.5" y="-509.2" font-family="Courier,monospace" font-size="11.00">Structure</text>
</g>
<!-- \\Duality\\System\\Core\\DualityException -->
<g id="node3" class="node"><title>\\Duality\\System\\Core\\DualityException</title>
<polygon fill="none" stroke="black" points="311.5,-1022 186.5,-1022 186.5,-986 311.5,-986 311.5,-1022"/>
<text text-anchor="middle" x="249" y="-1001.2" font-family="Courier,monospace" font-size="11.00">DualityException</text>
</g>
<!-- \\Exception -->
<g id="node44" class="node"><title>\\Exception</title>
<ellipse fill="none" stroke="black" cx="49" cy="-1004" rx="48.9926" ry="18"/>
<text text-anchor="middle" x="49" y="-1000.3" font-family="Times,serif" font-size="14.00" fill="gray">\Exception</text>
</g>
<!-- \\Duality\\System\\Core\\DualityException&#45;&gt;\\Exception -->
<g id="edge19" class="edge"><title>\\Duality\\System\\Core\\DualityException&#45;&gt;\\Exception</title>
<path fill="none" stroke="black" d="M186.437,-1004C161.505,-1004 132.857,-1004 108.27,-1004"/>
<polygon fill="none" stroke="black" points="108.003,-1000.5 98.0033,-1004 108.003,-1007.5 108.003,-1000.5"/>
</g>
<!-- \\Duality\\System\\Core\\Data -->
<g id="node4" class="node"><title>\\Duality\\System\\Core\\Data</title>
<polygon fill="none" stroke="black" points="276,-968 222,-968 222,-932 276,-932 276,-968"/>
<text text-anchor="middle" x="249" y="-947.2" font-family="Courier,monospace" font-size="11.00">Data</text>
</g>
<!-- \\Duality\\System\\Core\\InterfaceService -->
<g id="node5" class="node"><title>\\Duality\\System\\Core\\InterfaceService</title>
<polygon fill="none" stroke="black" points="311.5,-806 186.5,-806 186.5,-770 311.5,-770 311.5,-806"/>
<text text-anchor="middle" x="249" y="-785.2" font-family="Courier,monospace" font-size="11.00">InterfaceService</text>
</g>
<!-- \\Duality\\System\\Core\\InterfaceCommander -->
<g id="node6" class="node"><title>\\Duality\\System\\Core\\InterfaceCommander</title>
<polygon fill="none" stroke="black" points="318,-590 180,-590 180,-554 318,-554 318,-590"/>
<text text-anchor="middle" x="249" y="-569.2" font-family="Courier,monospace" font-size="11.00">InterfaceCommander</text>
</g>
<!-- \\Duality\\System\\Core\\InterfaceAuth -->
<g id="node7" class="node"><title>\\Duality\\System\\Core\\InterfaceAuth</title>
<polygon fill="none" stroke="black" points="301,-1130 197,-1130 197,-1094 301,-1094 301,-1130"/>
<text text-anchor="middle" x="249" y="-1109.2" font-family="Courier,monospace" font-size="11.00">InterfaceAuth</text>
</g>
<!-- \\Duality\\System\\Core\\InterfacePaginator -->
<g id="node8" class="node"><title>\\Duality\\System\\Core\\InterfacePaginator</title>
<polygon fill="none" stroke="black" points="318,-1076 180,-1076 180,-1040 318,-1040 318,-1076"/>
<text text-anchor="middle" x="249" y="-1055.2" font-family="Courier,monospace" font-size="11.00">InterfacePaginator</text>
</g>
<!-- \\Duality\\System\\Core\\InterfaceStorage -->
<g id="node9" class="node"><title>\\Duality\\System\\Core\\InterfaceStorage</title>
<polygon fill="none" stroke="black" points="311.5,-860 186.5,-860 186.5,-824 311.5,-824 311.5,-860"/>
<text text-anchor="middle" x="249" y="-839.2" font-family="Courier,monospace" font-size="11.00">InterfaceStorage</text>
</g>
<!-- \\Duality\\System\\Core\\InterfaceMailer -->
<g id="node10" class="node"><title>\\Duality\\System\\Core\\InterfaceMailer</title>
<polygon fill="none" stroke="black" points="308,-752 190,-752 190,-716 308,-716 308,-752"/>
<text text-anchor="middle" x="249" y="-731.2" font-family="Courier,monospace" font-size="11.00">InterfaceMailer</text>
</g>
<!-- \\Duality\\System\\Core\\InterfaceRemote -->
<g id="node11" class="node"><title>\\Duality\\System\\Core\\InterfaceRemote</title>
<polygon fill="none" stroke="black" points="308,-698 190,-698 190,-662 308,-662 308,-698"/>
<text text-anchor="middle" x="249" y="-677.2" font-family="Courier,monospace" font-size="11.00">InterfaceRemote</text>
</g>
<!-- \\Duality\\System\\Core\\InterfaceValidator -->
<g id="node12" class="node"><title>\\Duality\\System\\Core\\InterfaceValidator</title>
<polygon fill="none" stroke="black" points="318,-914 180,-914 180,-878 318,-878 318,-914"/>
<text text-anchor="middle" x="249" y="-893.2" font-family="Courier,monospace" font-size="11.00">InterfaceValidator</text>
</g>
<!-- \\Duality\\System\\Core\\InterfaceErrorHandler -->
<g id="node13" class="node"><title>\\Duality\\System\\Core\\InterfaceErrorHandler</title>
<polygon fill="none" stroke="black" points="328,-644 170,-644 170,-608 328,-608 328,-644"/>
<text text-anchor="middle" x="249" y="-623.2" font-family="Courier,monospace" font-size="11.00">InterfaceErrorHandler</text>
</g>
<!-- \\Duality\\System\\Structure\\HtmlDoc -->
<g id="node14" class="node"><title>\\Duality\\System\\Structure\\HtmlDoc</title>
<polygon fill="none" stroke="black" points="644,-336 580,-336 580,-300 644,-300 644,-336"/>
<text text-anchor="middle" x="612" y="-315.2" font-family="Courier,monospace" font-size="11.00">HtmlDoc</text>
</g>
<!-- \\Duality\\System\\Structure\\HtmlDoc&#45;&gt;\\Duality\\System\\Core\\Structure -->
<g id="edge1" class="edge"><title>\\Duality\\System\\Structure\\HtmlDoc&#45;&gt;\\Duality\\System\\Core\\Structure</title>
<path fill="none" stroke="black" d="M579.9,-319.613C546.377,-322.369 492.16,-329.829 450,-350"/>
</g>
<!-- \\Duality\\System\\Structure\\TableRow -->
<g id="node15" class="node"><title>\\Duality\\System\\Structure\\TableRow</title>
<polygon fill="none" stroke="black" points="647.5,-390 576.5,-390 576.5,-354 647.5,-354 647.5,-390"/>
<text text-anchor="middle" x="612" y="-369.2" font-family="Courier,monospace" font-size="11.00">TableRow</text>
</g>
<!-- \\Duality\\System\\Structure\\TableRow&#45;&gt;\\Duality\\System\\Core\\Structure -->
<g id="edge3" class="edge"><title>\\Duality\\System\\Structure\\TableRow&#45;&gt;\\Duality\\System\\Core\\Structure</title>
<path fill="none" stroke="black" d="M576.28,-356.459C542.441,-343.733 490.336,-330.702 450,-350"/>
</g>
<!-- \\Duality\\System\\Structure\\Url -->
<g id="node16" class="node"><title>\\Duality\\System\\Structure\\Url</title>
<polygon fill="none" stroke="black" points="639,-444 585,-444 585,-408 639,-408 639,-444"/>
<text text-anchor="middle" x="612" y="-423.2" font-family="Courier,monospace" font-size="11.00">Url</text>
</g>
<!-- \\Duality\\System\\Structure\\Url&#45;&gt;\\Duality\\System\\Core\\Structure -->
<g id="edge11" class="edge"><title>\\Duality\\System\\Structure\\Url&#45;&gt;\\Duality\\System\\Core\\Structure</title>
<path fill="none" stroke="black" d="M584.719,-410.862C542.507,-386.959 463,-343.78 450,-350"/>
</g>
<!-- \\Duality\\System\\Structure\\Entity -->
<g id="node17" class="node"><title>\\Duality\\System\\Structure\\Entity</title>
<polygon fill="none" stroke="black" points="654,-120 570,-120 570,-84 654,-84 654,-120"/>
<text text-anchor="start" x="578" y="-105.2" font-family="Courier,monospace" font-size="11.00">«abstract»</text>
<text text-anchor="start" x="591.5" y="-93.2" font-family="Courier,monospace" font-size="11.00">Entity</text>
</g>
<!-- \\Duality\\System\\Structure\\Property -->
<g id="node18" class="node"><title>\\Duality\\System\\Structure\\Property</title>
<polygon fill="none" stroke="black" points="484.5,-145 413.5,-145 413.5,-109 484.5,-109 484.5,-145"/>
<text text-anchor="middle" x="449" y="-124.2" font-family="Courier,monospace" font-size="11.00">Property</text>
</g>
<!-- \\Duality\\System\\Structure\\Entity&#45;&gt;\\Duality\\System\\Structure\\Property -->
<g id="edge16" class="edge"><title>\\Duality\\System\\Structure\\Entity&#45;&gt;\\Duality\\System\\Structure\\Property</title>
<path fill="none" stroke="black" d="M569.956,-108.373C546.989,-111.94 518.33,-116.39 494.784,-120.046"/>
<polygon fill="none" stroke="black" points="494.046,-116.619 484.702,-121.612 495.12,-123.536 494.046,-116.619"/>
</g>
<!-- \\Duality\\System\\Structure\\Property&#45;&gt;\\Duality\\System\\Core\\Structure -->
<g id="edge21" class="edge"><title>\\Duality\\System\\Structure\\Property&#45;&gt;\\Duality\\System\\Core\\Structure</title>
<path fill="none" stroke="black" d="M437.515,-145.153C425.086,-167.352 404.489,-206.375 392,-242 354.473,-349.043 412.811,-407.534 336,-491 326.795,-501.002 313.937,-507.325 300.963,-511.314"/>
<polygon fill="none" stroke="black" points="299.849,-507.988 291.078,-513.932 301.641,-514.755 299.849,-507.988"/>
</g>
<!-- \\Duality\\System\\Structure\\Table -->
<g id="node19" class="node"><title>\\Duality\\System\\Structure\\Table</title>
<polygon fill="none" stroke="black" points="491,-287 407,-287 407,-251 491,-251 491,-287"/>
<text text-anchor="start" x="415" y="-272.2" font-family="Courier,monospace" font-size="11.00">«abstract»</text>
<text text-anchor="start" x="432" y="-260.2" font-family="Courier,monospace" font-size="11.00">Table</text>
</g>
<!-- \\Duality\\System\\Structure\\Table&#45;&gt;\\Duality\\System\\Core\\Structure -->
<g id="edge22" class="edge"><title>\\Duality\\System\\Structure\\Table&#45;&gt;\\Duality\\System\\Core\\Structure</title>
<path fill="none" stroke="black" d="M432.478,-287.106C420.312,-301.942 403.564,-323.864 392,-345 358.642,-405.969 386.643,-443.405 336,-491 326.277,-500.138 313.49,-506.184 300.759,-510.184"/>
<polygon fill="none" stroke="black" points="299.791,-506.821 291.087,-512.861 301.658,-513.567 299.791,-506.821"/>
</g>
<!-- \\Duality\\System\\Structure\\Http -->
<g id="node20" class="node"><title>\\Duality\\System\\Structure\\Http</title>
<polygon fill="none" stroke="black" points="654,-282 570,-282 570,-246 654,-246 654,-282"/>
<text text-anchor="start" x="578" y="-267.2" font-family="Courier,monospace" font-size="11.00">«abstract»</text>
<text text-anchor="start" x="598" y="-255.2" font-family="Courier,monospace" font-size="11.00">Http</text>
</g>
<!-- \\Duality\\System\\Structure\\Http&#45;&gt;\\Duality\\System\\Core\\Structure -->
<g id="edge23" class="edge"><title>\\Duality\\System\\Structure\\Http&#45;&gt;\\Duality\\System\\Core\\Structure</title>
<path fill="none" stroke="black" d="M579.052,-282.148C546.872,-300.17 495.594,-328.186 450,-350"/>
</g>
<!-- \\Duality\\System\\Structure\\DbTable -->
<g id="node21" class="node"><title>\\Duality\\System\\Structure\\DbTable</title>
<polygon fill="none" stroke="black" points="644,-174 580,-174 580,-138 644,-138 644,-174"/>
<text text-anchor="middle" x="612" y="-153.2" font-family="Courier,monospace" font-size="11.00">DbTable</text>
</g>
<!-- \\Duality\\System\\Structure\\DbTable&#45;&gt;\\Duality\\System\\Structure\\Table -->
<g id="edge30" class="edge"><title>\\Duality\\System\\Structure\\DbTable&#45;&gt;\\Duality\\System\\Structure\\Table</title>
<path fill="none" stroke="black" d="M583.112,-174.153C578.706,-177.082 574.214,-180.104 570,-183 540.275,-203.427 506.97,-227.383 483.003,-244.815"/>
<polygon fill="none" stroke="black" points="480.64,-242.206 474.619,-250.924 484.763,-247.864 480.64,-242.206"/>
</g>
<!-- \\Duality\\System\\Structure\\File -->
<g id="node22" class="node"><title>\\Duality\\System\\Structure\\File</title>
<polygon fill="none" stroke="black" points="654,-228 570,-228 570,-192 654,-192 654,-228"/>
<text text-anchor="start" x="578" y="-213.2" font-family="Courier,monospace" font-size="11.00">«abstract»</text>
<text text-anchor="start" x="598" y="-201.2" font-family="Courier,monospace" font-size="11.00">File</text>
</g>
<!-- \\Duality\\System\\Structure\\File&#45;&gt;\\Duality\\System\\Core\\Structure -->
<g id="edge41" class="edge"><title>\\Duality\\System\\Structure\\File&#45;&gt;\\Duality\\System\\Core\\Structure</title>
<path fill="none" stroke="black" d="M581.884,-228.27C577.813,-231.084 573.744,-234.04 570,-237 512.527,-282.427 516.084,-318.382 450,-350"/>
<path fill="none" stroke="black" d="M448,-350C375.807,-384.541 401.968,-445.688 336,-491 325.516,-498.201 313.021,-503.551 300.849,-507.5"/>
<polygon fill="none" stroke="black" points="299.784,-504.165 291.2,-510.374 301.783,-510.873 299.784,-504.165"/>
</g>
<!-- \\Duality\\System\\Database\\SQLite -->
<g id="node23" class="node"><title>\\Duality\\System\\Database\\SQLite</title>
<polygon fill="none" stroke="black" points="640.5,-590 583.5,-590 583.5,-554 640.5,-554 640.5,-590"/>
<text text-anchor="middle" x="612" y="-569.2" font-family="Courier,monospace" font-size="11.00">SQLite</text>
</g>
<!-- \\Duality\\System\\Service\\Database -->
<g id="node33" class="node"><title>\\Duality\\System\\Service\\Database</title>
<polygon fill="none" stroke="black" points="491,-536 407,-536 407,-500 491,-500 491,-536"/>
<text text-anchor="start" x="415" y="-521.2" font-family="Courier,monospace" font-size="11.00">«abstract»</text>
<text text-anchor="start" x="421.5" y="-509.2" font-family="Courier,monospace" font-size="11.00">Database</text>
</g>
<!-- \\Duality\\System\\Database\\SQLite&#45;&gt;\\Duality\\System\\Service\\Database -->
<g id="edge2" class="edge"><title>\\Duality\\System\\Database\\SQLite&#45;&gt;\\Duality\\System\\Service\\Database</title>
<path fill="none" stroke="black" d="M583.323,-562.717C560.742,-555.143 528.234,-544.24 500.971,-535.096"/>
<polygon fill="none" stroke="black" points="501.786,-531.678 491.192,-531.816 499.56,-538.314 501.786,-531.678"/>
</g>
<!-- \\Duality\\System\\Database\\MySql -->
<g id="node24" class="node"><title>\\Duality\\System\\Database\\MySql</title>
<polygon fill="none" stroke="black" points="639,-536 585,-536 585,-500 639,-500 639,-536"/>
<text text-anchor="middle" x="612" y="-515.2" font-family="Courier,monospace" font-size="11.00">MySql</text>
</g>
<!-- \\Duality\\System\\Database\\MySql&#45;&gt;\\Duality\\System\\Service\\Database -->
<g id="edge15" class="edge"><title>\\Duality\\System\\Database\\MySql&#45;&gt;\\Duality\\System\\Service\\Database</title>
<path fill="none" stroke="black" d="M584.774,-518C562.256,-518 529.133,-518 501.36,-518"/>
<polygon fill="none" stroke="black" points="501.01,-514.5 491.01,-518 501.01,-521.5 501.01,-514.5"/>
</g>
<!-- \\Duality\\System\\Http\\Request -->
<g id="node25" class="node"><title>\\Duality\\System\\Http\\Request</title>
<polygon fill="none" stroke="black" points="800,-389 736,-389 736,-353 800,-353 800,-389"/>
<text text-anchor="middle" x="768" y="-368.2" font-family="Courier,monospace" font-size="11.00">Request</text>
</g>
<!-- \\Duality\\System\\Http\\Request&#45;&gt;\\Duality\\System\\Structure\\Http -->
<g id="edge4" class="edge"><title>\\Duality\\System\\Http\\Request&#45;&gt;\\Duality\\System\\Structure\\Http</title>
<path fill="none" stroke="black" d="M735.942,-355.45C729.818,-351.955 723.569,-348.067 718,-344 690.325,-323.79 689.675,-311.21 662,-291 660.412,-289.84 658.768,-288.695 657.088,-287.569"/>
<polygon fill="none" stroke="black" points="658.791,-284.505 648.467,-282.125 655.054,-290.424 658.791,-284.505"/>
</g>
<!-- \\Duality\\System\\Http\\Client -->
<g id="node26" class="node"><title>\\Duality\\System\\Http\\Client</title>
<polygon fill="none" stroke="black" points="796.5,-443 739.5,-443 739.5,-407 796.5,-407 796.5,-443"/>
<text text-anchor="middle" x="768" y="-422.2" font-family="Courier,monospace" font-size="11.00">Client</text>
</g>
<!-- \\Duality\\System\\Http\\Client&#45;&gt;\\Duality\\System\\Core\\InterfaceService -->
<g id="edge8" class="edge"><title>\\Duality\\System\\Http\\Client&#45;&gt;\\Duality\\System\\Core\\InterfaceService</title>
<path fill="none" stroke="black" stroke-dasharray="1,5" d="M739.239,-442.378C718.738,-454.22 689.698,-468.978 662,-476 632.891,-483.38 414.843,-468.507 392,-488 297.783,-568.402 419.009,-669.072 336,-761 331.664,-765.802 326.485,-769.757 320.85,-773.014"/>
<polygon fill="none" stroke="black" points="319.068,-769.991 311.672,-777.578 322.185,-776.259 319.068,-769.991"/>
</g>
<!-- \\Duality\\System\\Http\\Response -->
<g id="node27" class="node"><title>\\Duality\\System\\Http\\Response</title>
<polygon fill="none" stroke="black" points="803.5,-335 732.5,-335 732.5,-299 803.5,-299 803.5,-335"/>
<text text-anchor="middle" x="768" y="-314.2" font-family="Courier,monospace" font-size="11.00">Response</text>
</g>
<!-- \\Duality\\System\\Http\\Response&#45;&gt;\\Duality\\System\\Structure\\Http -->
<g id="edge20" class="edge"><title>\\Duality\\System\\Http\\Response&#45;&gt;\\Duality\\System\\Structure\\Http</title>
<path fill="none" stroke="black" d="M732.439,-305.106C712.2,-298.14 686.272,-289.217 663.748,-281.465"/>
<polygon fill="none" stroke="black" points="664.597,-278.056 654.002,-278.111 662.319,-284.675 664.597,-278.056"/>
</g>
<!-- \\Duality\\System\\Service\\Auth -->
<g id="node28" class="node"><title>\\Duality\\System\\Service\\Auth</title>
<polygon fill="none" stroke="black" points="476,-1130 422,-1130 422,-1094 476,-1094 476,-1130"/>
<text text-anchor="middle" x="449" y="-1109.2" font-family="Courier,monospace" font-size="11.00">Auth</text>
</g>
<!-- \\Duality\\System\\Service\\Auth&#45;&gt;\\Duality\\System\\Core\\InterfaceService -->
<g id="edge6" class="edge"><title>\\Duality\\System\\Service\\Auth&#45;&gt;\\Duality\\System\\Core\\InterfaceService</title>
<path fill="none" stroke="black" stroke-dasharray="1,5" d="M421.84,-1105.03C411.089,-1100.89 399.44,-1094.53 392,-1085 316.568,-988.411 418.233,-905.869 336,-815 331.659,-810.203 326.477,-806.251 320.839,-802.996"/>
<polygon fill="none" stroke="black" points="322.171,-799.75 311.659,-798.435 319.056,-806.019 322.171,-799.75"/>
</g>
<!-- \\Duality\\System\\Service\\Auth&#45;&gt;\\Duality\\System\\Core\\InterfaceAuth -->
<g id="edge5" class="edge"><title>\\Duality\\System\\Service\\Auth&#45;&gt;\\Duality\\System\\Core\\InterfaceAuth</title>
<path fill="none" stroke="black" stroke-dasharray="1,5" d="M421.707,-1112C393.726,-1112 348.475,-1112 311.45,-1112"/>
<polygon fill="none" stroke="black" points="311.246,-1108.5 301.246,-1112 311.246,-1115.5 311.246,-1108.5"/>
</g>
<!-- \\Duality\\System\\Service\\SSH -->
<g id="node29" class="node"><title>\\Duality\\System\\Service\\SSH</title>
<polygon fill="none" stroke="black" points="476,-698 422,-698 422,-662 476,-662 476,-698"/>
<text text-anchor="middle" x="449" y="-677.2" font-family="Courier,monospace" font-size="11.00">SSH</text>
</g>
<!-- \\Duality\\System\\Service\\SSH&#45;&gt;\\Duality\\System\\Core\\InterfaceService -->
<g id="edge9" class="edge"><title>\\Duality\\System\\Service\\SSH&#45;&gt;\\Duality\\System\\Core\\InterfaceService</title>
<path fill="none" stroke="black" stroke-dasharray="1,5" d="M421.96,-690.469C412.181,-694.927 401.212,-700.586 392,-707 363.626,-726.757 365.732,-743.351 336,-761 331.29,-763.796 326.261,-766.332 321.087,-768.627"/>
<polygon fill="none" stroke="black" points="319.576,-765.464 311.656,-772.502 322.236,-771.939 319.576,-765.464"/>
</g>
<!-- \\Duality\\System\\Service\\SSH&#45;&gt;\\Duality\\System\\Core\\InterfaceRemote -->
<g id="edge10" class="edge"><title>\\Duality\\System\\Service\\SSH&#45;&gt;\\Duality\\System\\Core\\InterfaceRemote</title>
<path fill="none" stroke="black" stroke-dasharray="1,5" d="M421.707,-680C395.473,-680 354.059,-680 318.476,-680"/>
<polygon fill="none" stroke="black" points="318.129,-676.5 308.129,-680 318.129,-683.5 318.129,-676.5"/>
</g>
<!-- \\Duality\\System\\Service\\Localization -->
<g id="node30" class="node"><title>\\Duality\\System\\Service\\Localization</title>
<polygon fill="none" stroke="black" points="498,-914 400,-914 400,-878 498,-878 498,-914"/>
<text text-anchor="middle" x="449" y="-893.2" font-family="Courier,monospace" font-size="11.00">Localization</text>
</g>
<!-- \\Duality\\System\\Service\\Localization&#45;&gt;\\Duality\\System\\Core\\InterfaceService -->
<g id="edge14" class="edge"><title>\\Duality\\System\\Service\\Localization&#45;&gt;\\Duality\\System\\Core\\InterfaceService</title>
<path fill="none" stroke="black" stroke-dasharray="1,5" d="M406.767,-877.999C401.651,-875.225 396.606,-872.207 392,-869 363.626,-849.243 365.732,-832.649 336,-815 331.29,-812.204 326.261,-809.668 321.087,-807.373"/>
<polygon fill="none" stroke="black" points="322.236,-804.061 311.656,-803.498 319.576,-810.536 322.236,-804.061"/>
</g>
<!-- \\Duality\\System\\Service\\Localization&#45;&gt;\\Duality\\System\\Core\\InterfaceStorage -->
<g id="edge13" class="edge"><title>\\Duality\\System\\Service\\Localization&#45;&gt;\\Duality\\System\\Core\\InterfaceStorage</title>
<path fill="none" stroke="black" stroke-dasharray="1,5" d="M399.817,-882.859C376.268,-876.437 347.457,-868.579 321.413,-861.476"/>
<polygon fill="none" stroke="black" points="322.153,-858.05 311.584,-858.796 320.311,-864.804 322.153,-858.05"/>
</g>
<!-- \\Duality\\System\\Service\\Paginator -->
<g id="node31" class="node"><title>\\Duality\\System\\Service\\Paginator</title>
<polygon fill="none" stroke="black" points="487.5,-1076 410.5,-1076 410.5,-1040 487.5,-1040 487.5,-1076"/>
<text text-anchor="middle" x="449" y="-1055.2" font-family="Courier,monospace" font-size="11.00">Paginator</text>
</g>
<!-- \\Duality\\System\\Service\\Paginator&#45;&gt;\\Duality\\System\\Core\\InterfaceService -->
<g id="edge17" class="edge"><title>\\Duality\\System\\Service\\Paginator&#45;&gt;\\Duality\\System\\Core\\InterfaceService</title>
<path fill="none" stroke="black" stroke-dasharray="1,5" d="M410.441,-1045.51C403.52,-1041.77 396.932,-1037.01 392,-1031 329.055,-954.362 404.332,-886.876 336,-815 331.613,-810.385 326.448,-806.556 320.863,-803.378"/>
<polygon fill="none" stroke="black" points="322.309,-800.188 311.793,-798.901 319.211,-806.466 322.309,-800.188"/>
</g>
<!-- \\Duality\\System\\Service\\Paginator&#45;&gt;\\Duality\\System\\Core\\InterfacePaginator -->
<g id="edge18" class="edge"><title>\\Duality\\System\\Service\\Paginator&#45;&gt;\\Duality\\System\\Core\\InterfacePaginator</title>
<path fill="none" stroke="black" stroke-dasharray="1,5" d="M410.292,-1058C387.108,-1058 356.53,-1058 328.303,-1058"/>
<polygon fill="none" stroke="black" points="328.028,-1054.5 318.028,-1058 328.028,-1061.5 328.028,-1054.5"/>
</g>
<!-- \\Duality\\System\\Service\\Mailer -->
<g id="node32" class="node"><title>\\Duality\\System\\Service\\Mailer</title>
<polygon fill="none" stroke="black" points="477.5,-752 420.5,-752 420.5,-716 477.5,-716 477.5,-752"/>
<text text-anchor="middle" x="449" y="-731.2" font-family="Courier,monospace" font-size="11.00">Mailer</text>
</g>
<!-- \\Duality\\System\\Service\\Mailer&#45;&gt;\\Duality\\System\\Core\\InterfaceService -->
<g id="edge26" class="edge"><title>\\Duality\\System\\Service\\Mailer&#45;&gt;\\Duality\\System\\Core\\InterfaceService</title>
<path fill="none" stroke="black" stroke-dasharray="1,5" d="M420.469,-741.508C395.033,-748.445 356.121,-759.058 321.892,-768.393"/>
<polygon fill="none" stroke="black" points="320.637,-765.107 311.91,-771.115 322.479,-771.861 320.637,-765.107"/>
</g>
<!-- \\Duality\\System\\Service\\Mailer&#45;&gt;\\Duality\\System\\Core\\InterfaceMailer -->
<g id="edge25" class="edge"><title>\\Duality\\System\\Service\\Mailer&#45;&gt;\\Duality\\System\\Core\\InterfaceMailer</title>
<path fill="none" stroke="black" stroke-dasharray="1,5" d="M420.469,-734C394.163,-734 353.442,-734 318.395,-734"/>
<polygon fill="none" stroke="black" points="318.202,-730.5 308.202,-734 318.202,-737.5 318.202,-730.5"/>
</g>
<!-- \\Duality\\System\\Service\\Database&#45;&gt;\\Duality\\System\\Core\\Structure -->
<g id="edge27" class="edge"><title>\\Duality\\System\\Service\\Database&#45;&gt;\\Duality\\System\\Core\\Structure</title>
<path fill="none" stroke="black" d="M406.974,-518C376.413,-518 334.472,-518 301.63,-518"/>
<polygon fill="none" stroke="black" points="301.313,-514.5 291.313,-518 301.313,-521.5 301.313,-514.5"/>
</g>
<!-- \\Duality\\System\\Service\\Database&#45;&gt;\\Duality\\System\\Core\\InterfaceService -->
<g id="edge28" class="edge"><title>\\Duality\\System\\Service\\Database&#45;&gt;\\Duality\\System\\Core\\InterfaceService</title>
<path fill="none" stroke="black" stroke-dasharray="1,5" d="M406.733,-532.616C401.195,-535.992 396.042,-540.079 392,-545 329.055,-621.638 404.332,-689.124 336,-761 331.613,-765.615 326.448,-769.444 320.863,-772.622"/>
<polygon fill="none" stroke="black" points="319.211,-769.534 311.793,-777.099 322.309,-775.812 319.211,-769.534"/>
</g>
<!-- \\Duality\\System\\Service\\Cache -->
<g id="node34" class="node"><title>\\Duality\\System\\Service\\Cache</title>
<polygon fill="none" stroke="black" points="476,-968 422,-968 422,-932 476,-932 476,-968"/>
<text text-anchor="middle" x="449" y="-947.2" font-family="Courier,monospace" font-size="11.00">Cache</text>
</g>
<!-- \\Duality\\System\\Service\\Cache&#45;&gt;\\Duality\\System\\Core\\InterfaceService -->
<g id="edge32" class="edge"><title>\\Duality\\System\\Service\\Cache&#45;&gt;\\Duality\\System\\Core\\InterfaceService</title>
<path fill="none" stroke="black" stroke-dasharray="1,5" d="M421.875,-941.505C411.635,-937.196 400.362,-931.122 392,-923 353.215,-885.328 377.412,-849.763 336,-815 331.47,-811.197 326.402,-807.929 321.056,-805.12"/>
<polygon fill="none" stroke="black" points="322.38,-801.875 311.839,-800.813 319.417,-808.217 322.38,-801.875"/>
</g>
<!-- \\Duality\\System\\Service\\Cache&#45;&gt;\\Duality\\System\\Core\\InterfaceStorage -->
<g id="edge31" class="edge"><title>\\Duality\\System\\Service\\Cache&#45;&gt;\\Duality\\System\\Core\\InterfaceStorage</title>
<path fill="none" stroke="black" stroke-dasharray="1,5" d="M421.96,-939.531C412.181,-935.073 401.212,-929.414 392,-923 363.626,-903.243 365.732,-886.649 336,-869 331.29,-866.204 326.261,-863.668 321.087,-861.373"/>
<polygon fill="none" stroke="black" points="322.236,-858.061 311.656,-857.498 319.576,-864.536 322.236,-858.061"/>
</g>
<!-- \\Duality\\System\\Service\\Validator -->
<g id="node35" class="node"><title>\\Duality\\System\\Service\\Validator</title>
<polygon fill="none" stroke="black" points="487.5,-1022 410.5,-1022 410.5,-986 487.5,-986 487.5,-1022"/>
<text text-anchor="middle" x="449" y="-1001.2" font-family="Courier,monospace" font-size="11.00">Validator</text>
</g>
<!-- \\Duality\\System\\Service\\Validator&#45;&gt;\\Duality\\System\\Core\\InterfaceService -->
<g id="edge34" class="edge"><title>\\Duality\\System\\Service\\Validator&#45;&gt;\\Duality\\System\\Core\\InterfaceService</title>
<path fill="none" stroke="black" stroke-dasharray="1,5" d="M410.225,-990.891C403.485,-987.22 397.022,-982.644 392,-977 341.358,-920.089 390.633,-868.092 336,-815 331.614,-810.738 326.564,-807.148 321.153,-804.124"/>
<polygon fill="none" stroke="black" points="322.285,-800.783 311.762,-799.551 319.221,-807.076 322.285,-800.783"/>
</g>
<!-- \\Duality\\System\\Service\\Validator&#45;&gt;\\Duality\\System\\Core\\InterfaceStorage -->
<g id="edge33" class="edge"><title>\\Duality\\System\\Service\\Validator&#45;&gt;\\Duality\\System\\Core\\InterfaceStorage</title>
<path fill="none" stroke="black" stroke-dasharray="1,5" d="M410.272,-989.977C403.684,-986.416 397.265,-982.114 392,-977 353.215,-939.328 377.412,-903.763 336,-869 331.47,-865.197 326.402,-861.929 321.056,-859.12"/>
<polygon fill="none" stroke="black" points="322.38,-855.875 311.839,-854.813 319.417,-862.217 322.38,-855.875"/>
</g>
<!-- \\Duality\\System\\Service\\Validator&#45;&gt;\\Duality\\System\\Core\\InterfaceValidator -->
<g id="edge35" class="edge"><title>\\Duality\\System\\Service\\Validator&#45;&gt;\\Duality\\System\\Core\\InterfaceValidator</title>
<path fill="none" stroke="black" stroke-dasharray="1,5" d="M410.316,-987.88C404.003,-984.608 397.669,-980.947 392,-977 363.626,-957.243 365.732,-940.649 336,-923 333.174,-921.322 330.233,-919.739 327.215,-918.244"/>
<polygon fill="none" stroke="black" points="328.517,-914.991 317.967,-914.025 325.612,-921.36 328.517,-914.991"/>
</g>
<!-- \\Duality\\System\\Service\\Logger -->
<g id="node36" class="node"><title>\\Duality\\System\\Service\\Logger</title>
<polygon fill="none" stroke="black" points="477.5,-644 420.5,-644 420.5,-608 477.5,-608 477.5,-644"/>
<text text-anchor="middle" x="449" y="-623.2" font-family="Courier,monospace" font-size="11.00">Logger</text>
</g>
<!-- \\Duality\\System\\Service\\Logger&#45;&gt;\\Duality\\System\\Core\\InterfaceService -->
<g id="edge37" class="edge"><title>\\Duality\\System\\Service\\Logger&#45;&gt;\\Duality\\System\\Core\\InterfaceService</title>
<path fill="none" stroke="black" stroke-dasharray="1,5" d="M420.446,-635.105C410.597,-639.371 399.974,-645.254 392,-653 353.215,-690.672 377.412,-726.237 336,-761 331.47,-764.803 326.402,-768.071 321.056,-770.88"/>
<polygon fill="none" stroke="black" points="319.417,-767.783 311.839,-775.187 322.38,-774.125 319.417,-767.783"/>
</g>
<!-- \\Duality\\System\\Service\\Logger&#45;&gt;\\Duality\\System\\Core\\InterfaceErrorHandler -->
<g id="edge36" class="edge"><title>\\Duality\\System\\Service\\Logger&#45;&gt;\\Duality\\System\\Core\\InterfaceErrorHandler</title>
<path fill="none" stroke="black" stroke-dasharray="1,5" d="M420.469,-626C398.989,-626 367.897,-626 338.132,-626"/>
<polygon fill="none" stroke="black" points="338.104,-622.5 328.104,-626 338.104,-629.5 338.104,-622.5"/>
</g>
<!-- \\Duality\\System\\Service\\Commander -->
<g id="node37" class="node"><title>\\Duality\\System\\Service\\Commander</title>
<polygon fill="none" stroke="black" points="487.5,-590 410.5,-590 410.5,-554 487.5,-554 487.5,-590"/>
<text text-anchor="middle" x="449" y="-569.2" font-family="Courier,monospace" font-size="11.00">Commander</text>
</g>
<!-- \\Duality\\System\\Service\\Commander&#45;&gt;\\Duality\\System\\Core\\InterfaceService -->
<g id="edge39" class="edge"><title>\\Duality\\System\\Service\\Commander&#45;&gt;\\Duality\\System\\Core\\InterfaceService</title>
<path fill="none" stroke="black" stroke-dasharray="1,5" d="M410.225,-585.109C403.485,-588.78 397.022,-593.356 392,-599 341.358,-655.911 390.633,-707.908 336,-761 331.614,-765.262 326.564,-768.852 321.153,-771.876"/>
<polygon fill="none" stroke="black" points="319.221,-768.924 311.762,-776.449 322.285,-775.217 319.221,-768.924"/>
</g>
<!-- \\Duality\\System\\Service\\Commander&#45;&gt;\\Duality\\System\\Core\\InterfaceCommander -->
<g id="edge38" class="edge"><title>\\Duality\\System\\Service\\Commander&#45;&gt;\\Duality\\System\\Core\\InterfaceCommander</title>
<path fill="none" stroke="black" stroke-dasharray="1,5" d="M410.292,-572C387.108,-572 356.53,-572 328.303,-572"/>
<polygon fill="none" stroke="black" points="328.028,-568.5 318.028,-572 328.028,-575.5 328.028,-568.5"/>
</g>
<!-- \\Duality\\System\\Service\\Server -->
<g id="node38" class="node"><title>\\Duality\\System\\Service\\Server</title>
<polygon fill="none" stroke="black" points="477.5,-806 420.5,-806 420.5,-770 477.5,-770 477.5,-806"/>
<text text-anchor="middle" x="449" y="-785.2" font-family="Courier,monospace" font-size="11.00">Server</text>
</g>
<!-- \\Duality\\System\\Service\\Server&#45;&gt;\\Duality\\System\\Core\\InterfaceService -->
<g id="edge40" class="edge"><title>\\Duality\\System\\Service\\Server&#45;&gt;\\Duality\\System\\Core\\InterfaceService</title>
<path fill="none" stroke="black" stroke-dasharray="1,5" d="M420.469,-788C395.143,-788 356.454,-788 322.333,-788"/>
<polygon fill="none" stroke="black" points="321.91,-784.5 311.91,-788 321.91,-791.5 321.91,-784.5"/>
</g>
<!-- \\Duality\\System\\Service\\Session -->
<g id="node39" class="node"><title>\\Duality\\System\\Service\\Session</title>
<polygon fill="none" stroke="black" points="481,-860 417,-860 417,-824 481,-824 481,-860"/>
<text text-anchor="middle" x="449" y="-839.2" font-family="Courier,monospace" font-size="11.00">Session</text>
</g>
<!-- \\Duality\\System\\Service\\Session&#45;&gt;\\Duality\\System\\Core\\InterfaceService -->
<g id="edge43" class="edge"><title>\\Duality\\System\\Service\\Session&#45;&gt;\\Duality\\System\\Core\\InterfaceService</title>
<path fill="none" stroke="black" stroke-dasharray="1,5" d="M416.626,-833.444C391.13,-826.49 354.172,-816.411 321.537,-807.51"/>
<polygon fill="none" stroke="black" points="322.134,-804.045 311.565,-804.791 320.292,-810.798 322.134,-804.045"/>
</g>
<!-- \\Duality\\System\\Service\\Session&#45;&gt;\\Duality\\System\\Core\\InterfaceStorage -->
<g id="edge42" class="edge"><title>\\Duality\\System\\Service\\Session&#45;&gt;\\Duality\\System\\Core\\InterfaceStorage</title>
<path fill="none" stroke="black" stroke-dasharray="1,5" d="M416.626,-842C391.24,-842 354.49,-842 321.959,-842"/>
<polygon fill="none" stroke="black" points="321.565,-838.5 311.565,-842 321.565,-845.5 321.565,-838.5"/>
</g>
<!-- \\Duality\\System\\File\\StreamFile -->
<g id="node40" class="node"><title>\\Duality\\System\\File\\StreamFile</title>
<polygon fill="none" stroke="black" points="810,-255 726,-255 726,-219 810,-219 810,-255"/>
<text text-anchor="middle" x="768" y="-234.2" font-family="Courier,monospace" font-size="11.00">StreamFile</text>
</g>
<!-- \\Duality\\System\\File\\StreamFile&#45;&gt;\\Duality\\System\\Structure\\File -->
<g id="edge7" class="edge"><title>\\Duality\\System\\File\\StreamFile&#45;&gt;\\Duality\\System\\Structure\\File</title>
<path fill="none" stroke="black" d="M725.731,-229.764C706.753,-226.437 684.053,-222.457 664.014,-218.944"/>
<polygon fill="none" stroke="black" points="664.57,-215.488 654.116,-217.209 663.361,-222.383 664.57,-215.488"/>
</g>
<!-- \\Duality\\System\\File\\TextFile -->
<g id="node41" class="node"><title>\\Duality\\System\\File\\TextFile</title>
<polygon fill="none" stroke="black" points="803.5,-201 732.5,-201 732.5,-165 803.5,-165 803.5,-201"/>
<text text-anchor="middle" x="768" y="-180.2" font-family="Courier,monospace" font-size="11.00">TextFile</text>
</g>
<!-- \\Duality\\System\\File\\TextFile&#45;&gt;\\Duality\\System\\Structure\\File -->
<g id="edge24" class="edge"><title>\\Duality\\System\\File\\TextFile&#45;&gt;\\Duality\\System\\Structure\\File</title>
<path fill="none" stroke="black" d="M732.439,-189.059C712.291,-192.592 686.505,-197.113 664.052,-201.049"/>
<polygon fill="none" stroke="black" points="663.247,-197.637 654.002,-202.811 664.456,-204.532 663.247,-197.637"/>
</g>
<!-- \\Duality\\System\\File\\ImageFile -->
<g id="node42" class="node"><title>\\Duality\\System\\File\\ImageFile</title>
<polygon fill="none" stroke="black" points="806.5,-147 729.5,-147 729.5,-111 806.5,-111 806.5,-147"/>
<text text-anchor="middle" x="768" y="-126.2" font-family="Courier,monospace" font-size="11.00">ImageFile</text>
</g>
<!-- \\Duality\\System\\File\\ImageFile&#45;&gt;\\Duality\\System\\Structure\\File -->
<g id="edge29" class="edge"><title>\\Duality\\System\\File\\ImageFile&#45;&gt;\\Duality\\System\\Structure\\File</title>
<path fill="none" stroke="black" d="M732.439,-147.178C709.95,-159.007 680.436,-174.53 656.374,-187.186"/>
<polygon fill="none" stroke="black" points="654.666,-184.13 647.445,-191.883 657.925,-190.325 654.666,-184.13"/>
</g>
<!-- \\Duality\\System\\App -->
<g id="node43" class="node"><title>\\Duality\\System\\App</title>
<polygon fill="none" stroke="black" points="476,-68 422,-68 422,-32 476,-32 476,-68"/>
<text text-anchor="middle" x="449" y="-47.2" font-family="Courier,monospace" font-size="11.00">App</text>
</g>
<!-- \\Duality\\System\\App&#45;&gt;\\Duality\\System\\Core\\Container -->
<g id="edge12" class="edge"><title>\\Duality\\System\\App&#45;&gt;\\Duality\\System\\Core\\Container</title>
<path fill="none" stroke="black" d="M421.954,-55.2717C411.482,-58.5475 400.015,-63.7672 392,-72 288.742,-178.062 259.841,-364.822 252.391,-435.669"/>
<polygon fill="none" stroke="black" points="248.907,-435.341 251.407,-445.637 255.873,-436.029 248.907,-435.341"/>
</g>
</g>
</svg>
