<?xml version="1.0" encoding="UTF-8" standalone="no"?>
<!DOCTYPE svg PUBLIC "-//W3C//DTD SVG 1.1//EN"
 "http://www.w3.org/Graphics/SVG/1.1/DTD/svg11.dtd">
<!-- Generated by graphviz version 2.36.0 (20140111.2315)
 -->
<!-- Title: G Pages: 1 -->
<svg width="719pt" height="2174pt"
 viewBox="0.00 0.00 719.00 2174.00" xmlns="http://www.w3.org/2000/svg" xmlns:xlink="http://www.w3.org/1999/xlink">
<g id="graph0" class="graph" transform="scale(1 1) rotate(0) translate(4 2170)">
<title>G</title>
<polygon fill="white" stroke="none" points="-4,4 -4,-2170 715,-2170 715,4 -4,4"/>
<g id="clust1" class="cluster"><title>cluster_Global</title>
<path fill="none" stroke="gray" d="M20,-44C20,-44 691,-44 691,-44 697,-44 703,-50 703,-56 703,-56 703,-2146 703,-2146 703,-2152 697,-2158 691,-2158 691,-2158 20,-2158 20,-2158 14,-2158 8,-2152 8,-2146 8,-2146 8,-56 8,-56 8,-50 14,-44 20,-44"/>
<text text-anchor="middle" x="355.5" y="-2145.2" font-family="Times,serif" font-size="11.00" fill="gray">Global</text>
</g>
<g id="clust2" class="cluster"><title>cluster_\Duality</title>
<path fill="none" stroke="gray" d="M28,-52C28,-52 683,-52 683,-52 689,-52 695,-58 695,-64 695,-64 695,-2118 695,-2118 695,-2124 689,-2130 683,-2130 683,-2130 28,-2130 28,-2130 22,-2130 16,-2124 16,-2118 16,-2118 16,-64 16,-64 16,-58 22,-52 28,-52"/>
<text text-anchor="middle" x="355.5" y="-2117.2" font-family="Times,serif" font-size="11.00" fill="gray">Duality</text>
</g>
<g id="clust3" class="cluster"><title>cluster_\Duality\Core</title>
<path fill="none" stroke="gray" d="M36,-612C36,-612 349,-612 349,-612 355,-612 361,-618 361,-624 361,-624 361,-1212 361,-1212 361,-1218 355,-1224 349,-1224 349,-1224 36,-1224 36,-1224 30,-1224 24,-1218 24,-1212 24,-1212 24,-624 24,-624 24,-618 30,-612 36,-612"/>
<text text-anchor="middle" x="192.5" y="-1211.2" font-family="Times,serif" font-size="11.00" fill="gray">Core</text>
</g>
<g id="clust4" class="cluster"><title>cluster_\Duality\Structure</title>
<path fill="none" stroke="gray" d="M236,-1286C236,-1286 513,-1286 513,-1286 519,-1286 525,-1292 525,-1298 525,-1298 525,-2090 525,-2090 525,-2096 519,-2102 513,-2102 513,-2102 236,-2102 236,-2102 230,-2102 224,-2096 224,-2090 224,-2090 224,-1298 224,-1298 224,-1292 230,-1286 236,-1286"/>
<text text-anchor="middle" x="374.5" y="-2089.2" font-family="Times,serif" font-size="11.00" fill="gray">Structure</text>
</g>
<g id="clust5" class="cluster"><title>cluster_\Duality\Structure\Database</title>
<path fill="none" stroke="gray" d="M442,-1742C442,-1742 492,-1742 492,-1742 498,-1742 504,-1748 504,-1754 504,-1754 504,-1856 504,-1856 504,-1862 498,-1868 492,-1868 492,-1868 442,-1868 442,-1868 436,-1868 430,-1862 430,-1856 430,-1856 430,-1754 430,-1754 430,-1748 436,-1742 442,-1742"/>
<text text-anchor="middle" x="467" y="-1855.2" font-family="Times,serif" font-size="11.00" fill="gray">Database</text>
</g>
<g id="clust6" class="cluster"><title>cluster_\Duality\Structure\Http</title>
<path fill="none" stroke="gray" d="M435,-1608C435,-1608 499,-1608 499,-1608 505,-1608 511,-1614 511,-1620 511,-1620 511,-1722 511,-1722 511,-1728 505,-1734 499,-1734 499,-1734 435,-1734 435,-1734 429,-1734 423,-1728 423,-1722 423,-1722 423,-1620 423,-1620 423,-1614 429,-1608 435,-1608"/>
<text text-anchor="middle" x="467" y="-1721.2" font-family="Times,serif" font-size="11.00" fill="gray">Http</text>
</g>
<g id="clust7" class="cluster"><title>cluster_\Duality\Structure\Entity</title>
<path fill="none" stroke="gray" d="M444,-1528C444,-1528 490,-1528 490,-1528 496,-1528 502,-1534 502,-1540 502,-1540 502,-1588 502,-1588 502,-1594 496,-1600 490,-1600 490,-1600 444,-1600 444,-1600 438,-1600 432,-1594 432,-1588 432,-1588 432,-1540 432,-1540 432,-1534 438,-1528 444,-1528"/>
<text text-anchor="middle" x="467" y="-1587.2" font-family="Times,serif" font-size="11.00" fill="gray">Entity</text>
</g>
<g id="clust8" class="cluster"><title>cluster_\Duality\Structure\File</title>
<path fill="none" stroke="gray" d="M429,-1340C429,-1340 505,-1340 505,-1340 511,-1340 517,-1346 517,-1352 517,-1352 517,-1508 517,-1508 517,-1514 511,-1520 505,-1520 505,-1520 429,-1520 429,-1520 423,-1520 417,-1514 417,-1508 417,-1508 417,-1352 417,-1352 417,-1346 423,-1340 429,-1340"/>
<text text-anchor="middle" x="467" y="-1507.2" font-family="Times,serif" font-size="11.00" fill="gray">File</text>
</g>
<g id="clust9" class="cluster"><title>cluster_\Duality\Service</title>
<path fill="none" stroke="gray" d="M429,-104C429,-104 675,-104 675,-104 681,-104 687,-110 687,-116 687,-116 687,-1266 687,-1266 687,-1272 681,-1278 675,-1278 675,-1278 429,-1278 429,-1278 423,-1278 417,-1272 417,-1266 417,-1266 417,-116 417,-116 417,-110 423,-104 429,-104"/>
<text text-anchor="middle" x="552" y="-1265.2" font-family="Times,serif" font-size="11.00" fill="gray">Service</text>
</g>
<g id="clust10" class="cluster"><title>cluster_\Duality\Service\Session</title>
<path fill="none" stroke="gray" d="M605,-460C605,-460 655,-460 655,-460 661,-460 667,-466 667,-472 667,-472 667,-574 667,-574 667,-580 661,-586 655,-586 655,-586 605,-586 605,-586 599,-586 593,-580 593,-574 593,-574 593,-472 593,-472 593,-466 599,-460 605,-460"/>
<text text-anchor="middle" x="630" y="-573.2" font-family="Times,serif" font-size="11.00" fill="gray">Session</text>
</g>
<g id="clust11" class="cluster"><title>cluster_\Duality\Service\Auth</title>
<path fill="none" stroke="gray" d="M598,-112C598,-112 662,-112 662,-112 668,-112 674,-118 674,-124 674,-124 674,-226 674,-226 674,-232 668,-238 662,-238 662,-238 598,-238 598,-238 592,-238 586,-232 586,-226 586,-226 586,-124 586,-124 586,-118 592,-112 598,-112"/>
<text text-anchor="middle" x="630" y="-225.2" font-family="Times,serif" font-size="11.00" fill="gray">Auth</text>
</g>
<g id="clust12" class="cluster"><title>cluster_\Duality\Service\Database</title>
<path fill="none" stroke="gray" d="M605,-246C605,-246 655,-246 655,-246 661,-246 667,-252 667,-258 667,-258 667,-360 667,-360 667,-366 661,-372 655,-372 655,-372 605,-372 605,-372 599,-372 593,-366 593,-360 593,-360 593,-258 593,-258 593,-252 599,-246 605,-246"/>
<text text-anchor="middle" x="630" y="-359.2" font-family="Times,serif" font-size="11.00" fill="gray">Database</text>
</g>
<g id="clust13" class="cluster"><title>cluster_\Duality\Service\Cache</title>
<path fill="none" stroke="gray" d="M607,-380C607,-380 653,-380 653,-380 659,-380 665,-386 665,-392 665,-392 665,-440 665,-440 665,-446 659,-452 653,-452 653,-452 607,-452 607,-452 601,-452 595,-446 595,-440 595,-440 595,-392 595,-392 595,-386 601,-380 607,-380"/>
<text text-anchor="middle" x="630" y="-439.2" font-family="Times,serif" font-size="11.00" fill="gray">Cache</text>
</g>
<g id="clust14" class="cluster"><title>cluster_\Duality\Service\Controller</title>
<path fill="none" stroke="gray" d="M607,-594C607,-594 653,-594 653,-594 659,-594 665,-600 665,-606 665,-606 665,-654 665,-654 665,-660 659,-666 653,-666 653,-666 607,-666 607,-666 601,-666 595,-660 595,-654 595,-654 595,-606 595,-606 595,-600 601,-594 607,-594"/>
<text text-anchor="middle" x="630" y="-653.2" font-family="Times,serif" font-size="11.00" fill="gray">Controller</text>
</g>
<!-- \\Duality\\Core\\Container -->
<g id="node1" class="node"><title>\\Duality\\Core\\Container</title>
<polygon fill="none" stroke="black" points="316,-656 232,-656 232,-620 316,-620 316,-656"/>
<text text-anchor="start" x="240" y="-641.2" font-family="Courier,monospace" font-size="11.00">«abstract»</text>
<text text-anchor="start" x="243.5" y="-629.2" font-family="Courier,monospace" font-size="11.00">Container</text>
</g>
<!-- \\Duality\\Core\\Structure -->
<g id="node2" class="node"><title>\\Duality\\Core\\Structure</title>
<polygon fill="none" stroke="black" points="116,-1196 32,-1196 32,-1160 116,-1160 116,-1196"/>
<text text-anchor="start" x="40" y="-1181.2" font-family="Courier,monospace" font-size="11.00">«abstract»</text>
<text text-anchor="start" x="43.5" y="-1169.2" font-family="Courier,monospace" font-size="11.00">Structure</text>
</g>
<!-- \\Duality\\Core\\AbstractService -->
<g id="node3" class="node"><title>\\Duality\\Core\\AbstractService</title>
<polygon fill="none" stroke="black" points="333,-926 215,-926 215,-890 333,-890 333,-926"/>
<text text-anchor="start" x="240" y="-911.2" font-family="Courier,monospace" font-size="11.00">«abstract»</text>
<text text-anchor="start" x="223" y="-899.2" font-family="Courier,monospace" font-size="11.00">AbstractService</text>
</g>
<!-- \\Duality\\Core\\AbstractService&#45;&gt;\\Duality\\Core\\Structure -->
<g id="edge17" class="edge"><title>\\Duality\\Core\\AbstractService&#45;&gt;\\Duality\\Core\\Structure</title>
<path fill="none" stroke="black" d="M214.789,-922.343C207.63,-925.722 200.804,-929.882 195,-935 127.788,-994.268 94.1653,-1099.84 81.3535,-1150.02"/>
<polygon fill="none" stroke="black" points="77.9256,-1149.31 78.931,-1159.85 84.7222,-1150.98 77.9256,-1149.31"/>
</g>
<!-- \\Duality\\Core\\DualityException -->
<g id="node4" class="node"><title>\\Duality\\Core\\DualityException</title>
<polygon fill="none" stroke="black" points="336.5,-872 211.5,-872 211.5,-836 336.5,-836 336.5,-872"/>
<text text-anchor="middle" x="274" y="-851.2" font-family="Courier,monospace" font-size="11.00">DualityException</text>
</g>
<!-- \\Exception -->
<g id="node54" class="node"><title>\\Exception</title>
<ellipse fill="none" stroke="black" cx="74" cy="-18" rx="48.9926" ry="18"/>
<text text-anchor="middle" x="74" y="-14.3" font-family="Times,serif" font-size="14.00" fill="gray">\Exception</text>
</g>
<!-- \\Duality\\Core\\DualityException&#45;&gt;\\Exception -->
<g id="edge25" class="edge"><title>\\Duality\\Core\\DualityException&#45;&gt;\\Exception</title>
<path fill="none" stroke="black" d="M211.271,-840.19C205.107,-836.73 199.483,-832.405 195,-827 143.813,-765.283 89.5302,-182.632 77.4664,-46.3936"/>
<polygon fill="none" stroke="black" points="80.9437,-45.981 76.5801,-36.3265 73.9707,-46.5949 80.9437,-45.981"/>
</g>
<!-- \\Duality\\Core\\InterfaceCommander -->
<g id="node5" class="node"><title>\\Duality\\Core\\InterfaceCommander</title>
<polygon fill="none" stroke="black" points="343,-1196 205,-1196 205,-1160 343,-1160 343,-1196"/>
<text text-anchor="middle" x="274" y="-1175.2" font-family="Courier,monospace" font-size="11.00">InterfaceCommander</text>
</g>
<!-- \\Duality\\Core\\InterfacePaginator -->
<g id="node6" class="node"><title>\\Duality\\Core\\InterfacePaginator</title>
<polygon fill="none" stroke="black" points="343,-980 205,-980 205,-944 343,-944 343,-980"/>
<text text-anchor="middle" x="274" y="-959.2" font-family="Courier,monospace" font-size="11.00">InterfacePaginator</text>
</g>
<!-- \\Duality\\Core\\InterfaceSecurity -->
<g id="node7" class="node"><title>\\Duality\\Core\\InterfaceSecurity</title>
<polygon fill="none" stroke="black" points="339.5,-818 208.5,-818 208.5,-782 339.5,-782 339.5,-818"/>
<text text-anchor="middle" x="274" y="-797.2" font-family="Courier,monospace" font-size="11.00">InterfaceSecurity</text>
</g>
<!-- \\Duality\\Core\\InterfaceStorage -->
<g id="node8" class="node"><title>\\Duality\\Core\\InterfaceStorage</title>
<polygon fill="none" stroke="black" points="336.5,-1034 211.5,-1034 211.5,-998 336.5,-998 336.5,-1034"/>
<text text-anchor="middle" x="274" y="-1013.2" font-family="Courier,monospace" font-size="11.00">InterfaceStorage</text>
</g>
<!-- \\Duality\\Core\\InterfaceMailer -->
<g id="node9" class="node"><title>\\Duality\\Core\\InterfaceMailer</title>
<polygon fill="none" stroke="black" points="333,-1088 215,-1088 215,-1052 333,-1052 333,-1088"/>
<text text-anchor="middle" x="274" y="-1067.2" font-family="Courier,monospace" font-size="11.00">InterfaceMailer</text>
</g>
<!-- \\Duality\\Core\\InterfaceRemote -->
<g id="node10" class="node"><title>\\Duality\\Core\\InterfaceRemote</title>
<polygon fill="none" stroke="black" points="333,-764 215,-764 215,-728 333,-728 333,-764"/>
<text text-anchor="middle" x="274" y="-743.2" font-family="Courier,monospace" font-size="11.00">InterfaceRemote</text>
</g>
<!-- \\Duality\\Core\\InterfaceValidator -->
<g id="node11" class="node"><title>\\Duality\\Core\\InterfaceValidator</title>
<polygon fill="none" stroke="black" points="343,-710 205,-710 205,-674 343,-674 343,-710"/>
<text text-anchor="middle" x="274" y="-689.2" font-family="Courier,monospace" font-size="11.00">InterfaceValidator</text>
</g>
<!-- \\Duality\\Core\\InterfaceErrorHandler -->
<g id="node12" class="node"><title>\\Duality\\Core\\InterfaceErrorHandler</title>
<polygon fill="none" stroke="black" points="353,-1142 195,-1142 195,-1106 353,-1106 353,-1142"/>
<text text-anchor="middle" x="274" y="-1121.2" font-family="Courier,monospace" font-size="11.00">InterfaceErrorHandler</text>
</g>
<!-- \\Duality\\Structure\\Database\\Filter -->
<g id="node13" class="node"><title>\\Duality\\Structure\\Database\\Filter</title>
<polygon fill="none" stroke="black" points="495.5,-1840 438.5,-1840 438.5,-1804 495.5,-1804 495.5,-1840"/>
<text text-anchor="middle" x="467" y="-1819.2" font-family="Courier,monospace" font-size="11.00">Filter</text>
</g>
<!-- \\Duality\\Structure\\Database\\Table -->
<g id="node14" class="node"><title>\\Duality\\Structure\\Database\\Table</title>
<polygon fill="none" stroke="black" points="494,-1786 440,-1786 440,-1750 494,-1750 494,-1786"/>
<text text-anchor="middle" x="467" y="-1765.2" font-family="Courier,monospace" font-size="11.00">Table</text>
</g>
<!-- \\Duality\\Structure\\Table -->
<g id="node27" class="node"><title>\\Duality\\Structure\\Table</title>
<polygon fill="none" stroke="black" points="301,-1746 247,-1746 247,-1710 301,-1710 301,-1746"/>
<text text-anchor="middle" x="274" y="-1725.2" font-family="Courier,monospace" font-size="11.00">Table</text>
</g>
<!-- \\Duality\\Structure\\Database\\Table&#45;&gt;\\Duality\\Structure\\Table -->
<g id="edge8" class="edge"><title>\\Duality\\Structure\\Database\\Table&#45;&gt;\\Duality\\Structure\\Table</title>
<path fill="none" stroke="black" d="M439.843,-1762.52C406.503,-1755.54 348.701,-1743.43 311.161,-1735.57"/>
<polygon fill="none" stroke="black" points="311.652,-1732.1 301.147,-1733.48 310.217,-1738.95 311.652,-1732.1"/>
</g>
<!-- \\Duality\\Structure\\Http\\Response -->
<g id="node15" class="node"><title>\\Duality\\Structure\\Http\\Response</title>
<polygon fill="none" stroke="black" points="502.5,-1706 431.5,-1706 431.5,-1670 502.5,-1670 502.5,-1706"/>
<text text-anchor="middle" x="467" y="-1685.2" font-family="Courier,monospace" font-size="11.00">Response</text>
</g>
<!-- \\Duality\\Structure\\Http -->
<g id="node28" class="node"><title>\\Duality\\Structure\\Http</title>
<polygon fill="none" stroke="black" points="316,-1652 232,-1652 232,-1616 316,-1616 316,-1652"/>
<text text-anchor="start" x="240" y="-1637.2" font-family="Courier,monospace" font-size="11.00">«abstract»</text>
<text text-anchor="start" x="260" y="-1625.2" font-family="Courier,monospace" font-size="11.00">Http</text>
</g>
<!-- \\Duality\\Structure\\Http\\Response&#45;&gt;\\Duality\\Structure\\Http -->
<g id="edge2" class="edge"><title>\\Duality\\Structure\\Http\\Response&#45;&gt;\\Duality\\Structure\\Http</title>
<path fill="none" stroke="black" d="M431.411,-1678.22C402.087,-1669.93 359.612,-1657.92 326.322,-1648.51"/>
<polygon fill="none" stroke="black" points="326.886,-1645.03 316.311,-1645.68 324.981,-1651.77 326.886,-1645.03"/>
</g>
<!-- \\Duality\\Structure\\Http\\Request -->
<g id="node16" class="node"><title>\\Duality\\Structure\\Http\\Request</title>
<polygon fill="none" stroke="black" points="499,-1652 435,-1652 435,-1616 499,-1616 499,-1652"/>
<text text-anchor="middle" x="467" y="-1631.2" font-family="Courier,monospace" font-size="11.00">Request</text>
</g>
<!-- \\Duality\\Structure\\Http\\Request&#45;&gt;\\Duality\\Structure\\Http -->
<g id="edge46" class="edge"><title>\\Duality\\Structure\\Http\\Request&#45;&gt;\\Duality\\Structure\\Http</title>
<path fill="none" stroke="black" d="M434.887,-1634C405.574,-1634 361.11,-1634 326.506,-1634"/>
<polygon fill="none" stroke="black" points="326.112,-1630.5 316.112,-1634 326.112,-1637.5 326.112,-1630.5"/>
</g>
<!-- \\Duality\\Structure\\Entity\\User -->
<g id="node17" class="node"><title>\\Duality\\Structure\\Entity\\User</title>
<polygon fill="none" stroke="black" points="494,-1572 440,-1572 440,-1536 494,-1536 494,-1572"/>
<text text-anchor="middle" x="467" y="-1551.2" font-family="Courier,monospace" font-size="11.00">User</text>
</g>
<!-- \\Duality\\Structure\\Entity -->
<g id="node24" class="node"><title>\\Duality\\Structure\\Entity</title>
<polygon fill="none" stroke="black" points="316,-1505 232,-1505 232,-1469 316,-1469 316,-1505"/>
<text text-anchor="start" x="240" y="-1490.2" font-family="Courier,monospace" font-size="11.00">«abstract»</text>
<text text-anchor="start" x="253.5" y="-1478.2" font-family="Courier,monospace" font-size="11.00">Entity</text>
</g>
<!-- \\Duality\\Structure\\Entity\\User&#45;&gt;\\Duality\\Structure\\Entity -->
<g id="edge7" class="edge"><title>\\Duality\\Structure\\Entity\\User&#45;&gt;\\Duality\\Structure\\Entity</title>
<path fill="none" stroke="black" d="M439.843,-1544.82C410.581,-1534.56 362.475,-1517.68 325.764,-1504.81"/>
<polygon fill="none" stroke="black" points="326.811,-1501.47 316.216,-1501.46 324.494,-1508.07 326.811,-1501.47"/>
</g>
<!-- \\Duality\\Structure\\File\\StreamFile -->
<g id="node18" class="node"><title>\\Duality\\Structure\\File\\StreamFile</title>
<polygon fill="none" stroke="black" points="509,-1438 425,-1438 425,-1402 509,-1402 509,-1438"/>
<text text-anchor="middle" x="467" y="-1417.2" font-family="Courier,monospace" font-size="11.00">StreamFile</text>
</g>
<!-- \\Duality\\Structure\\File -->
<g id="node29" class="node"><title>\\Duality\\Structure\\File</title>
<polygon fill="none" stroke="black" points="316,-1411 232,-1411 232,-1375 316,-1375 316,-1411"/>
<text text-anchor="start" x="240" y="-1396.2" font-family="Courier,monospace" font-size="11.00">«abstract»</text>
<text text-anchor="start" x="260" y="-1384.2" font-family="Courier,monospace" font-size="11.00">File</text>
</g>
<!-- \\Duality\\Structure\\File\\StreamFile&#45;&gt;\\Duality\\Structure\\File -->
<g id="edge18" class="edge"><title>\\Duality\\Structure\\File\\StreamFile&#45;&gt;\\Duality\\Structure\\File</title>
<path fill="none" stroke="black" d="M424.556,-1414.14C395.674,-1410.06 356.957,-1404.59 326.152,-1400.23"/>
<polygon fill="none" stroke="black" points="326.426,-1396.73 316.035,-1398.8 325.446,-1403.67 326.426,-1396.73"/>
</g>
<!-- \\Duality\\Structure\\File\\TextFile -->
<g id="node19" class="node"><title>\\Duality\\Structure\\File\\TextFile</title>
<polygon fill="none" stroke="black" points="502.5,-1384 431.5,-1384 431.5,-1348 502.5,-1348 502.5,-1384"/>
<text text-anchor="middle" x="467" y="-1363.2" font-family="Courier,monospace" font-size="11.00">TextFile</text>
</g>
<!-- \\Duality\\Structure\\File\\TextFile&#45;&gt;\\Duality\\Structure\\File -->
<g id="edge21" class="edge"><title>\\Duality\\Structure\\File\\TextFile&#45;&gt;\\Duality\\Structure\\File</title>
<path fill="none" stroke="black" d="M431.411,-1370.89C402.087,-1375.03 359.612,-1381.04 326.322,-1385.74"/>
<polygon fill="none" stroke="black" points="325.723,-1382.29 316.311,-1387.16 326.702,-1389.23 325.723,-1382.29"/>
</g>
<!-- \\Duality\\Structure\\File\\ImageFile -->
<g id="node20" class="node"><title>\\Duality\\Structure\\File\\ImageFile</title>
<polygon fill="none" stroke="black" points="505.5,-1492 428.5,-1492 428.5,-1456 505.5,-1456 505.5,-1492"/>
<text text-anchor="middle" x="467" y="-1471.2" font-family="Courier,monospace" font-size="11.00">ImageFile</text>
</g>
<!-- \\Duality\\Structure\\File\\ImageFile&#45;&gt;\\Duality\\Structure\\File -->
<g id="edge30" class="edge"><title>\\Duality\\Structure\\File\\ImageFile&#45;&gt;\\Duality\\Structure\\File</title>
<path fill="none" stroke="black" d="M428.265,-1458C398.876,-1445.53 357.798,-1428.11 325.566,-1414.44"/>
<polygon fill="none" stroke="black" points="326.872,-1411.2 316.299,-1410.51 324.139,-1417.64 326.872,-1411.2"/>
</g>
<!-- \\Duality\\Structure\\HtmlDoc -->
<g id="node21" class="node"><title>\\Duality\\Structure\\HtmlDoc</title>
<polygon fill="none" stroke="black" points="499,-1912 435,-1912 435,-1876 499,-1876 499,-1912"/>
<text text-anchor="middle" x="467" y="-1891.2" font-family="Courier,monospace" font-size="11.00">HtmlDoc</text>
</g>
<!-- \\Duality\\Structure\\HtmlDoc&#45;&gt;\\Duality\\Core\\Structure -->
<g id="edge1" class="edge"><title>\\Duality\\Structure\\HtmlDoc&#45;&gt;\\Duality\\Core\\Structure</title>
<path fill="none" stroke="black" d="M434.747,-1910.74C384.072,-1937.36 288.277,-1985.36 275,-1975"/>
<path fill="none" stroke="black" d="M273,-1975C146.7,-1876.48 89.5726,-1336.88 77.4916,-1206.41"/>
<polygon fill="none" stroke="black" points="80.9421,-1205.71 76.5494,-1196.06 73.971,-1206.34 80.9421,-1205.71"/>
</g>
<!-- \\Duality\\Structure\\TableRow -->
<g id="node22" class="node"><title>\\Duality\\Structure\\TableRow</title>
<polygon fill="none" stroke="black" points="502.5,-1966 431.5,-1966 431.5,-1930 502.5,-1930 502.5,-1966"/>
<text text-anchor="middle" x="467" y="-1945.2" font-family="Courier,monospace" font-size="11.00">TableRow</text>
</g>
<!-- \\Duality\\Structure\\TableRow&#45;&gt;\\Duality\\Core\\Structure -->
<g id="edge6" class="edge"><title>\\Duality\\Structure\\TableRow&#45;&gt;\\Duality\\Core\\Structure</title>
<path fill="none" stroke="black" d="M432.833,-1966.08C391.437,-1985.92 320.55,-2010.53 275,-1975"/>
</g>
<!-- \\Duality\\Structure\\Url -->
<g id="node23" class="node"><title>\\Duality\\Structure\\Url</title>
<polygon fill="none" stroke="black" points="494,-2020 440,-2020 440,-1984 494,-1984 494,-2020"/>
<text text-anchor="middle" x="467" y="-1999.2" font-family="Courier,monospace" font-size="11.00">Url</text>
</g>
<!-- \\Duality\\Structure\\Url&#45;&gt;\\Duality\\Core\\Structure -->
<g id="edge13" class="edge"><title>\\Duality\\Structure\\Url&#45;&gt;\\Duality\\Core\\Structure</title>
<path fill="none" stroke="black" d="M439.725,-2005.9C399.74,-2010.31 323.19,-2012.59 275,-1975"/>
</g>
<!-- \\Duality\\Structure\\Entity&#45;&gt;\\Duality\\Core\\Structure -->
<g id="edge22" class="edge"><title>\\Duality\\Structure\\Entity&#45;&gt;\\Duality\\Core\\Structure</title>
<path fill="none" stroke="black" d="M247.108,-1469C230.672,-1456.62 209.79,-1439.03 195,-1420 140.974,-1350.49 101.655,-1252.79 84.5249,-1205.63"/>
<polygon fill="none" stroke="black" points="87.778,-1204.33 81.1156,-1196.09 81.1866,-1206.68 87.778,-1204.33"/>
</g>
<!-- \\Duality\\Structure\\Storage -->
<g id="node25" class="node"><title>\\Duality\\Structure\\Storage</title>
<polygon fill="none" stroke="black" points="499,-1330 435,-1330 435,-1294 499,-1294 499,-1330"/>
<text text-anchor="middle" x="467" y="-1309.2" font-family="Courier,monospace" font-size="11.00">Storage</text>
</g>
<!-- \\Duality\\Structure\\Storage&#45;&gt;\\Duality\\Core\\InterfaceStorage -->
<g id="edge26" class="edge"><title>\\Duality\\Structure\\Storage&#45;&gt;\\Duality\\Core\\InterfaceStorage</title>
<path fill="none" stroke="black" stroke-dasharray="1,5" d="M434.992,-1298.13C428.212,-1293.82 421.674,-1288.47 417,-1282 353.097,-1193.58 435.236,-1122.95 361,-1043 356.667,-1038.33 351.54,-1034.47 345.979,-1031.27"/>
<polygon fill="none" stroke="black" points="347.448,-1028.09 336.936,-1026.77 344.328,-1034.36 347.448,-1028.09"/>
</g>
<!-- \\Duality\\Structure\\Property -->
<g id="node26" class="node"><title>\\Duality\\Structure\\Property</title>
<polygon fill="none" stroke="black" points="502.5,-2074 431.5,-2074 431.5,-2038 502.5,-2038 502.5,-2074"/>
<text text-anchor="middle" x="467" y="-2053.2" font-family="Courier,monospace" font-size="11.00">Property</text>
</g>
<!-- \\Duality\\Structure\\Property&#45;&gt;\\Duality\\Core\\Structure -->
<g id="edge27" class="edge"><title>\\Duality\\Structure\\Property&#45;&gt;\\Duality\\Core\\Structure</title>
<path fill="none" stroke="black" d="M431.445,-2047.27C390.861,-2035.75 322.995,-2012.44 275,-1975"/>
</g>
<!-- \\Duality\\Structure\\Table&#45;&gt;\\Duality\\Core\\Structure -->
<g id="edge28" class="edge"><title>\\Duality\\Structure\\Table&#45;&gt;\\Duality\\Core\\Structure</title>
<path fill="none" stroke="black" d="M246.799,-1711.79C229.581,-1699.8 207.925,-1681.97 195,-1661 100.615,-1507.85 80.3816,-1284.33 76.1166,-1206.2"/>
<polygon fill="none" stroke="black" points="79.61,-1205.98 75.6148,-1196.17 72.6187,-1206.33 79.61,-1205.98"/>
</g>
<!-- \\Duality\\Structure\\Http&#45;&gt;\\Duality\\Core\\Structure -->
<g id="edge29" class="edge"><title>\\Duality\\Structure\\Http&#45;&gt;\\Duality\\Core\\Structure</title>
<path fill="none" stroke="black" d="M259.148,-1615.69C242.321,-1592.83 213.852,-1552.08 195,-1514 140.815,-1404.55 98.9144,-1264.39 82.5161,-1205.74"/>
<polygon fill="none" stroke="black" points="85.8835,-1204.79 79.8411,-1196.09 79.1375,-1206.66 85.8835,-1204.79"/>
</g>
<!-- \\Duality\\Structure\\File&#45;&gt;\\Duality\\Core\\Structure -->
<g id="edge45" class="edge"><title>\\Duality\\Structure\\File&#45;&gt;\\Duality\\Core\\Structure</title>
<path fill="none" stroke="black" d="M256.119,-1374.67C220.83,-1336.35 139.179,-1247.69 98.6711,-1203.7"/>
<polygon fill="none" stroke="black" points="101.188,-1201.27 91.8386,-1196.28 96.0384,-1206.01 101.188,-1201.27"/>
</g>
<!-- \\Duality\\Service\\Session\\Native -->
<g id="node30" class="node"><title>\\Duality\\Service\\Session\\Native</title>
<polygon fill="none" stroke="black" points="658.5,-558 601.5,-558 601.5,-522 658.5,-522 658.5,-558"/>
<text text-anchor="middle" x="630" y="-537.2" font-family="Courier,monospace" font-size="11.00">Native</text>
</g>
<!-- \\Duality\\Service\\Session -->
<g id="node52" class="node"><title>\\Duality\\Service\\Session</title>
<polygon fill="none" stroke="black" points="509,-869 425,-869 425,-833 509,-833 509,-869"/>
<text text-anchor="start" x="433" y="-854.2" font-family="Courier,monospace" font-size="11.00">«abstract»</text>
<text text-anchor="start" x="443" y="-842.2" font-family="Courier,monospace" font-size="11.00">Session</text>
</g>
<!-- \\Duality\\Service\\Session\\Native&#45;&gt;\\Duality\\Service\\Session -->
<g id="edge4" class="edge"><title>\\Duality\\Service\\Session\\Native&#45;&gt;\\Duality\\Service\\Session</title>
<path fill="none" stroke="black" d="M606.656,-558.436C597.456,-567.124 587.461,-578.172 581,-590 529.737,-683.849 592.379,-740.961 525,-824 522.794,-826.718 520.251,-829.179 517.488,-831.403"/>
<polygon fill="none" stroke="black" points="515.492,-828.528 509.22,-837.066 519.448,-834.303 515.492,-828.528"/>
</g>
<!-- \\Duality\\Service\\Session\\Dummy -->
<g id="node31" class="node"><title>\\Duality\\Service\\Session\\Dummy</title>
<polygon fill="none" stroke="black" points="657,-504 603,-504 603,-468 657,-468 657,-504"/>
<text text-anchor="middle" x="630" y="-483.2" font-family="Courier,monospace" font-size="11.00">Dummy</text>
</g>
<!-- \\Duality\\Service\\Session\\Dummy&#45;&gt;\\Duality\\Service\\Session -->
<g id="edge16" class="edge"><title>\\Duality\\Service\\Session\\Dummy&#45;&gt;\\Duality\\Service\\Session</title>
<path fill="none" stroke="black" d="M602.924,-495.434C594.738,-499.618 586.431,-505.365 581,-513 499.593,-627.445 610.363,-712.474 525,-824 522.838,-826.825 520.307,-829.367 517.535,-831.654"/>
<polygon fill="none" stroke="black" points="515.414,-828.865 509.194,-837.441 519.405,-834.616 515.414,-828.865"/>
</g>
<!-- \\Duality\\Service\\Auth\\LDAP -->
<g id="node32" class="node"><title>\\Duality\\Service\\Auth\\LDAP</title>
<polygon fill="none" stroke="black" points="657,-210 603,-210 603,-174 657,-174 657,-210"/>
<text text-anchor="middle" x="630" y="-189.2" font-family="Courier,monospace" font-size="11.00">LDAP</text>
</g>
<!-- \\Duality\\Service\\Auth -->
<g id="node39" class="node"><title>\\Duality\\Service\\Auth</title>
<polygon fill="none" stroke="black" points="509,-210 425,-210 425,-174 509,-174 509,-210"/>
<text text-anchor="start" x="433" y="-195.2" font-family="Courier,monospace" font-size="11.00">«abstract»</text>
<text text-anchor="start" x="453" y="-183.2" font-family="Courier,monospace" font-size="11.00">Auth</text>
</g>
<!-- \\Duality\\Service\\Auth\\LDAP&#45;&gt;\\Duality\\Service\\Auth -->
<g id="edge5" class="edge"><title>\\Duality\\Service\\Auth\\LDAP&#45;&gt;\\Duality\\Service\\Auth</title>
<path fill="none" stroke="black" d="M602.774,-192C580.256,-192 547.133,-192 519.36,-192"/>
<polygon fill="none" stroke="black" points="519.01,-188.5 509.01,-192 519.01,-195.5 519.01,-188.5"/>
</g>
<!-- \\Duality\\Service\\Auth\\Database -->
<g id="node33" class="node"><title>\\Duality\\Service\\Auth\\Database</title>
<polygon fill="none" stroke="black" points="665.5,-156 594.5,-156 594.5,-120 665.5,-120 665.5,-156"/>
<text text-anchor="middle" x="630" y="-135.2" font-family="Courier,monospace" font-size="11.00">Database</text>
</g>
<!-- \\Duality\\Service\\Auth\\Database&#45;&gt;\\Duality\\Service\\Auth -->
<g id="edge43" class="edge"><title>\\Duality\\Service\\Auth\\Database&#45;&gt;\\Duality\\Service\\Auth</title>
<path fill="none" stroke="black" d="M594.461,-149.584C572.356,-156.999 543.298,-166.745 518.61,-175.025"/>
<polygon fill="none" stroke="black" points="517.404,-171.738 509.036,-178.236 519.63,-178.375 517.404,-171.738"/>
</g>
<!-- \\Duality\\Service\\Database\\MySql -->
<g id="node34" class="node"><title>\\Duality\\Service\\Database\\MySql</title>
<polygon fill="none" stroke="black" points="657,-344 603,-344 603,-308 657,-308 657,-344"/>
<text text-anchor="middle" x="630" y="-323.2" font-family="Courier,monospace" font-size="11.00">MySql</text>
</g>
<!-- \\Duality\\Service\\Database -->
<g id="node46" class="node"><title>\\Duality\\Service\\Database</title>
<polygon fill="none" stroke="black" points="509,-344 425,-344 425,-308 509,-308 509,-344"/>
<text text-anchor="start" x="433" y="-329.2" font-family="Courier,monospace" font-size="11.00">«abstract»</text>
<text text-anchor="start" x="439.5" y="-317.2" font-family="Courier,monospace" font-size="11.00">Database</text>
</g>
<!-- \\Duality\\Service\\Database\\MySql&#45;&gt;\\Duality\\Service\\Database -->
<g id="edge9" class="edge"><title>\\Duality\\Service\\Database\\MySql&#45;&gt;\\Duality\\Service\\Database</title>
<path fill="none" stroke="black" d="M602.774,-326C580.256,-326 547.133,-326 519.36,-326"/>
<polygon fill="none" stroke="black" points="519.01,-322.5 509.01,-326 519.01,-329.5 519.01,-322.5"/>
</g>
<!-- \\Duality\\Service\\Database\\SQLite -->
<g id="node35" class="node"><title>\\Duality\\Service\\Database\\SQLite</title>
<polygon fill="none" stroke="black" points="658.5,-290 601.5,-290 601.5,-254 658.5,-254 658.5,-290"/>
<text text-anchor="middle" x="630" y="-269.2" font-family="Courier,monospace" font-size="11.00">SQLite</text>
</g>
<!-- \\Duality\\Service\\Database\\SQLite&#45;&gt;\\Duality\\Service\\Database -->
<g id="edge24" class="edge"><title>\\Duality\\Service\\Database\\SQLite&#45;&gt;\\Duality\\Service\\Database</title>
<path fill="none" stroke="black" d="M601.323,-281.283C578.742,-288.857 546.234,-299.76 518.971,-308.904"/>
<polygon fill="none" stroke="black" points="517.56,-305.686 509.192,-312.184 519.786,-312.322 517.56,-305.686"/>
</g>
<!-- \\Duality\\Service\\Cache\\APC -->
<g id="node36" class="node"><title>\\Duality\\Service\\Cache\\APC</title>
<polygon fill="none" stroke="black" points="657,-424 603,-424 603,-388 657,-388 657,-424"/>
<text text-anchor="middle" x="630" y="-403.2" font-family="Courier,monospace" font-size="11.00">APC</text>
</g>
<!-- \\Duality\\Service\\Cache -->
<g id="node47" class="node"><title>\\Duality\\Service\\Cache</title>
<polygon fill="none" stroke="black" points="509,-815 425,-815 425,-779 509,-779 509,-815"/>
<text text-anchor="start" x="433" y="-800.2" font-family="Courier,monospace" font-size="11.00">«abstract»</text>
<text text-anchor="start" x="450" y="-788.2" font-family="Courier,monospace" font-size="11.00">Cache</text>
</g>
<!-- \\Duality\\Service\\Cache\\APC&#45;&gt;\\Duality\\Service\\Cache -->
<g id="edge41" class="edge"><title>\\Duality\\Service\\Cache\\APC&#45;&gt;\\Duality\\Service\\Cache</title>
<path fill="none" stroke="black" d="M607.615,-424.241C598.375,-433.052 588.082,-444.252 581,-456 517.213,-561.814 484.48,-708.065 472.937,-768.803"/>
<polygon fill="none" stroke="black" points="469.467,-768.321 471.085,-778.791 476.349,-769.597 469.467,-768.321"/>
</g>
<!-- \\Duality\\Service\\Controller\\Base -->
<g id="node37" class="node"><title>\\Duality\\Service\\Controller\\Base</title>
<polygon fill="none" stroke="black" points="657,-638 603,-638 603,-602 657,-602 657,-638"/>
<text text-anchor="middle" x="630" y="-617.2" font-family="Courier,monospace" font-size="11.00">Base</text>
</g>
<!-- \\Duality\\Service\\Controller\\Base&#45;&gt;\\Duality\\Core\\AbstractService -->
<g id="edge44" class="edge"><title>\\Duality\\Service\\Controller\\Base&#45;&gt;\\Duality\\Core\\AbstractService</title>
<path fill="none" stroke="black" d="M602.71,-627.051C594.707,-630.385 586.565,-635.183 581,-642 511.456,-727.181 607.86,-810.706 525,-883 515.919,-890.923 428.993,-891.811 417,-893 392.932,-895.385 366.585,-898.131 343.191,-900.616"/>
<polygon fill="none" stroke="black" points="342.59,-897.16 333.017,-901.7 343.331,-904.121 342.59,-897.16"/>
</g>
<!-- \\Duality\\Service\\Performance -->
<g id="node38" class="node"><title>\\Duality\\Service\\Performance</title>
<polygon fill="none" stroke="black" points="675.5,-926 584.5,-926 584.5,-890 675.5,-890 675.5,-926"/>
<text text-anchor="middle" x="630" y="-905.2" font-family="Courier,monospace" font-size="11.00">Performance</text>
</g>
<!-- \\Duality\\Service\\Performance&#45;&gt;\\Duality\\Core\\AbstractService -->
<g id="edge3" class="edge"><title>\\Duality\\Service\\Performance&#45;&gt;\\Duality\\Core\\AbstractService</title>
<path fill="none" stroke="black" d="M588.655,-926.123C549.13,-943.037 491.512,-965.227 468,-962"/>
</g>
<!-- \\Duality\\Service\\Auth&#45;&gt;\\Duality\\Core\\AbstractService -->
<g id="edge10" class="edge"><title>\\Duality\\Service\\Auth&#45;&gt;\\Duality\\Core\\AbstractService</title>
<path fill="none" stroke="black" d="M455.355,-210.231C443.796,-230.98 425.807,-266.247 417,-299 383.261,-424.474 442.826,-780.072 361,-881 356.011,-887.154 349.632,-891.93 342.607,-895.632"/>
<polygon fill="none" stroke="black" points="341.101,-892.472 333.421,-899.77 343.976,-898.854 341.101,-892.472"/>
</g>
<!-- \\Duality\\Service\\Client -->
<g id="node40" class="node"><title>\\Duality\\Service\\Client</title>
<polygon fill="none" stroke="black" points="658.5,-980 601.5,-980 601.5,-944 658.5,-944 658.5,-980"/>
<text text-anchor="middle" x="630" y="-959.2" font-family="Courier,monospace" font-size="11.00">Client</text>
</g>
<!-- \\Duality\\Service\\Client&#45;&gt;\\Duality\\Core\\AbstractService -->
<g id="edge11" class="edge"><title>\\Duality\\Service\\Client&#45;&gt;\\Duality\\Core\\AbstractService</title>
<path fill="none" stroke="black" d="M601.498,-964.264C569.321,-966.39 514.522,-968.386 468,-962"/>
</g>
<!-- \\Duality\\Service\\SSH -->
<g id="node41" class="node"><title>\\Duality\\Service\\SSH</title>
<polygon fill="none" stroke="black" points="657,-1142 603,-1142 603,-1106 657,-1106 657,-1142"/>
<text text-anchor="middle" x="630" y="-1121.2" font-family="Courier,monospace" font-size="11.00">SSH</text>
</g>
<!-- \\Duality\\Service\\SSH&#45;&gt;\\Duality\\Core\\AbstractService -->
<g id="edge12" class="edge"><title>\\Duality\\Service\\SSH&#45;&gt;\\Duality\\Core\\AbstractService</title>
<path fill="none" stroke="black" d="M602.976,-1111.6C595.517,-1107.47 587.619,-1102.5 581,-1097 520.81,-1047.01 545.518,-972.64 468,-962"/>
</g>
<!-- \\Duality\\Service\\Security -->
<g id="node42" class="node"><title>\\Duality\\Service\\Security</title>
<polygon fill="none" stroke="black" points="665.5,-710 594.5,-710 594.5,-674 665.5,-674 665.5,-710"/>
<text text-anchor="middle" x="630" y="-689.2" font-family="Courier,monospace" font-size="11.00">Security</text>
</g>
<!-- \\Duality\\Service\\Security&#45;&gt;\\Duality\\Core\\AbstractService -->
<g id="edge14" class="edge"><title>\\Duality\\Service\\Security&#45;&gt;\\Duality\\Core\\AbstractService</title>
<path fill="none" stroke="black" d="M466,-908C426.946,-921.192 380.783,-921.572 343.623,-918.472"/>
<polygon fill="none" stroke="black" points="343.678,-914.962 333.395,-917.514 343.024,-921.932 343.678,-914.962"/>
</g>
<!-- \\Duality\\Service\\Security&#45;&gt;\\Duality\\Core\\InterfaceSecurity -->
<g id="edge15" class="edge"><title>\\Duality\\Service\\Security&#45;&gt;\\Duality\\Core\\InterfaceSecurity</title>
<path fill="none" stroke="black" stroke-dasharray="1,5" d="M594.056,-707.432C589.194,-710.713 584.629,-714.557 581,-719 529.609,-781.919 583.976,-837.128 525,-893 505.983,-911.016 492.818,-899.617 468,-908"/>
<path fill="none" stroke="black" stroke-dasharray="1,5" d="M466,-908C443.74,-915.519 362.087,-827.625 361,-827 357.156,-824.792 353.11,-822.741 348.953,-820.841"/>
<polygon fill="none" stroke="black" points="350.285,-817.605 339.712,-816.919 347.55,-824.048 350.285,-817.605"/>
</g>
<!-- \\Duality\\Service\\Localization -->
<g id="node43" class="node"><title>\\Duality\\Service\\Localization</title>
<polygon fill="none" stroke="black" points="679,-764 581,-764 581,-728 679,-728 679,-764"/>
<text text-anchor="middle" x="630" y="-743.2" font-family="Courier,monospace" font-size="11.00">Localization</text>
</g>
<!-- \\Duality\\Service\\Localization&#45;&gt;\\Duality\\Core\\AbstractService -->
<g id="edge20" class="edge"><title>\\Duality\\Service\\Localization&#45;&gt;\\Duality\\Core\\AbstractService</title>
<path fill="none" stroke="black" d="M590.943,-764.02C587.305,-766.701 583.898,-769.692 581,-773 516.507,-846.613 564.96,-975.309 468,-962"/>
<path fill="none" stroke="black" d="M466,-962C441.987,-958.704 386.688,-942.724 341.739,-928.995"/>
<polygon fill="none" stroke="black" points="342.615,-925.603 332.028,-926.015 340.562,-932.295 342.615,-925.603"/>
</g>
<!-- \\Duality\\Service\\Paginator -->
<g id="node44" class="node"><title>\\Duality\\Service\\Paginator</title>
<polygon fill="none" stroke="black" points="668.5,-818 591.5,-818 591.5,-782 668.5,-782 668.5,-818"/>
<text text-anchor="middle" x="630" y="-797.2" font-family="Courier,monospace" font-size="11.00">Paginator</text>
</g>
<!-- \\Duality\\Service\\Paginator&#45;&gt;\\Duality\\Core\\AbstractService -->
<g id="edge23" class="edge"><title>\\Duality\\Service\\Paginator&#45;&gt;\\Duality\\Core\\AbstractService</title>
<path fill="none" stroke="black" d="M592.062,-818.293C588.129,-820.951 584.349,-823.862 581,-827 523.909,-880.506 545.518,-972.64 468,-962"/>
</g>
<!-- \\Duality\\Service\\Mailer -->
<g id="node45" class="node"><title>\\Duality\\Service\\Mailer</title>
<polygon fill="none" stroke="black" points="658.5,-1088 601.5,-1088 601.5,-1052 658.5,-1052 658.5,-1088"/>
<text text-anchor="middle" x="630" y="-1067.2" font-family="Courier,monospace" font-size="11.00">Mailer</text>
</g>
<!-- \\Duality\\Service\\Mailer&#45;&gt;\\Duality\\Core\\AbstractService -->
<g id="edge31" class="edge"><title>\\Duality\\Service\\Mailer&#45;&gt;\\Duality\\Core\\AbstractService</title>
<path fill="none" stroke="black" d="M601.281,-1055.09C594.558,-1051.29 587.451,-1047.11 581,-1043 528.882,-1009.8 529.218,-970.403 468,-962"/>
</g>
<!-- \\Duality\\Service\\Mailer&#45;&gt;\\Duality\\Core\\InterfaceMailer -->
<g id="edge32" class="edge"><title>\\Duality\\Service\\Mailer&#45;&gt;\\Duality\\Core\\InterfaceMailer</title>
<path fill="none" stroke="black" stroke-dasharray="1,5" d="M601.222,-1070C546.158,-1070 421.731,-1070 343.45,-1070"/>
<polygon fill="none" stroke="black" points="343.196,-1066.5 333.196,-1070 343.196,-1073.5 343.196,-1066.5"/>
</g>
<!-- \\Duality\\Service\\Database&#45;&gt;\\Duality\\Core\\AbstractService -->
<g id="edge33" class="edge"><title>\\Duality\\Service\\Database&#45;&gt;\\Duality\\Core\\AbstractService</title>
<path fill="none" stroke="black" d="M465.012,-344.238C459.977,-430.679 434.468,-798.372 361,-881 355.924,-886.709 349.658,-891.222 342.838,-894.788"/>
<polygon fill="none" stroke="black" points="340.948,-891.8 333.257,-899.087 343.814,-898.186 340.948,-891.8"/>
</g>
<!-- \\Duality\\Service\\Cache&#45;&gt;\\Duality\\Core\\AbstractService -->
<g id="edge34" class="edge"><title>\\Duality\\Service\\Cache&#45;&gt;\\Duality\\Core\\AbstractService</title>
<path fill="none" stroke="black" d="M430.168,-815.139C425.605,-817.909 421.101,-820.889 417,-824 388.705,-845.462 391.291,-862.461 361,-881 355.261,-884.513 349.023,-887.607 342.616,-890.325"/>
<polygon fill="none" stroke="black" points="341.177,-887.13 333.147,-894.042 343.735,-893.646 341.177,-887.13"/>
</g>
<!-- \\Duality\\Service\\Cache&#45;&gt;\\Duality\\Core\\InterfaceStorage -->
<g id="edge35" class="edge"><title>\\Duality\\Service\\Cache&#45;&gt;\\Duality\\Core\\InterfaceStorage</title>
<path fill="none" stroke="black" stroke-dasharray="1,5" d="M426.49,-815.141C422.992,-817.776 419.744,-820.724 417,-824 367.278,-883.371 416.385,-934.873 361,-989 356.626,-993.274 351.584,-996.873 346.179,-999.902"/>
<polygon fill="none" stroke="black" points="344.246,-996.951 336.795,-1004.48 347.317,-1003.24 344.246,-996.951"/>
</g>
<!-- \\Duality\\Service\\Validator -->
<g id="node48" class="node"><title>\\Duality\\Service\\Validator</title>
<polygon fill="none" stroke="black" points="668.5,-872 591.5,-872 591.5,-836 668.5,-836 668.5,-872"/>
<text text-anchor="middle" x="630" y="-851.2" font-family="Courier,monospace" font-size="11.00">Validator</text>
</g>
<!-- \\Duality\\Service\\Validator&#45;&gt;\\Duality\\Core\\AbstractService -->
<g id="edge36" class="edge"><title>\\Duality\\Service\\Validator&#45;&gt;\\Duality\\Core\\AbstractService</title>
<path fill="none" stroke="black" d="M595.669,-872.124C590.699,-875.006 585.677,-878.021 581,-881 528.882,-914.197 529.218,-970.403 468,-962"/>
</g>
<!-- \\Duality\\Service\\Logger -->
<g id="node49" class="node"><title>\\Duality\\Service\\Logger</title>
<polygon fill="none" stroke="black" points="658.5,-1196 601.5,-1196 601.5,-1160 658.5,-1160 658.5,-1196"/>
<text text-anchor="middle" x="630" y="-1175.2" font-family="Courier,monospace" font-size="11.00">Logger</text>
</g>
<!-- \\Duality\\Service\\Logger&#45;&gt;\\Duality\\Core\\AbstractService -->
<g id="edge37" class="edge"><title>\\Duality\\Service\\Logger&#45;&gt;\\Duality\\Core\\AbstractService</title>
<path fill="none" stroke="black" d="M601.405,-1165.68C594.241,-1161.67 586.891,-1156.74 581,-1151 510.887,-1082.72 564.96,-975.309 468,-962"/>
</g>
<!-- \\Duality\\Service\\Logger&#45;&gt;\\Duality\\Core\\InterfaceErrorHandler -->
<g id="edge38" class="edge"><title>\\Duality\\Service\\Logger&#45;&gt;\\Duality\\Core\\InterfaceErrorHandler</title>
<path fill="none" stroke="black" stroke-dasharray="1,5" d="M601.222,-1173.76C550.682,-1166.05 441.707,-1149.43 363.613,-1137.52"/>
<polygon fill="none" stroke="black" points="363.703,-1133.99 353.29,-1135.94 362.647,-1140.91 363.703,-1133.99"/>
</g>
<!-- \\Duality\\Service\\Commander -->
<g id="node50" class="node"><title>\\Duality\\Service\\Commander</title>
<polygon fill="none" stroke="black" points="668.5,-1250 591.5,-1250 591.5,-1214 668.5,-1214 668.5,-1250"/>
<text text-anchor="middle" x="630" y="-1229.2" font-family="Courier,monospace" font-size="11.00">Commander</text>
</g>
<!-- \\Duality\\Service\\Commander&#45;&gt;\\Duality\\Core\\AbstractService -->
<g id="edge39" class="edge"><title>\\Duality\\Service\\Commander&#45;&gt;\\Duality\\Core\\AbstractService</title>
<path fill="none" stroke="black" d="M591.363,-1222.64C557.949,-1213.57 508.315,-1198.23 468,-1178"/>
<path fill="none" stroke="black" d="M466,-1178C360.848,-1125.23 448.39,-1013.77 361,-935 355.566,-930.102 349.248,-926.092 342.551,-922.81"/>
<polygon fill="none" stroke="black" points="343.799,-919.536 333.231,-918.77 341.014,-925.958 343.799,-919.536"/>
</g>
<!-- \\Duality\\Service\\Commander&#45;&gt;\\Duality\\Core\\InterfaceCommander -->
<g id="edge40" class="edge"><title>\\Duality\\Service\\Commander&#45;&gt;\\Duality\\Core\\InterfaceCommander</title>
<path fill="none" stroke="black" stroke-dasharray="1,5" d="M466,-1178C431.731,-1160.8 389.453,-1159.14 353.392,-1162.49"/>
<polygon fill="none" stroke="black" points="352.969,-1159.01 343.398,-1163.56 353.713,-1165.97 352.969,-1159.01"/>
</g>
<!-- \\Duality\\Service\\Server -->
<g id="node51" class="node"><title>\\Duality\\Service\\Server</title>
<polygon fill="none" stroke="black" points="658.5,-1034 601.5,-1034 601.5,-998 658.5,-998 658.5,-1034"/>
<text text-anchor="middle" x="630" y="-1013.2" font-family="Courier,monospace" font-size="11.00">Server</text>
</g>
<!-- \\Duality\\Service\\Server&#45;&gt;\\Duality\\Core\\AbstractService -->
<g id="edge42" class="edge"><title>\\Duality\\Service\\Server&#45;&gt;\\Duality\\Core\\AbstractService</title>
<path fill="none" stroke="black" d="M601.272,-1003.14C569.787,-989.385 516.485,-968.655 468,-962"/>
</g>
<!-- \\Duality\\Service\\Session&#45;&gt;\\Duality\\Core\\AbstractService -->
<g id="edge47" class="edge"><title>\\Duality\\Service\\Session&#45;&gt;\\Duality\\Core\\AbstractService</title>
<path fill="none" stroke="black" d="M424.556,-863.368C400.713,-870.484 370.168,-879.599 342.905,-887.735"/>
<polygon fill="none" stroke="black" points="341.609,-884.469 333.027,-890.683 343.611,-891.177 341.609,-884.469"/>
</g>
<!-- \\Duality\\Service\\Session&#45;&gt;\\Duality\\Core\\InterfaceStorage -->
<g id="edge48" class="edge"><title>\\Duality\\Service\\Session&#45;&gt;\\Duality\\Core\\InterfaceStorage</title>
<path fill="none" stroke="black" stroke-dasharray="1,5" d="M447.468,-869.049C437.922,-878.737 426.355,-891.105 417,-903 388.803,-938.852 397.341,-961.436 361,-989 356.367,-992.514 351.268,-995.576 345.934,-998.245"/>
<polygon fill="none" stroke="black" points="344.456,-995.072 336.779,-1002.37 347.334,-1001.45 344.456,-995.072"/>
</g>
<!-- \\Duality\\App -->
<g id="node53" class="node"><title>\\Duality\\App</title>
<polygon fill="none" stroke="black" points="494,-96 440,-96 440,-60 494,-60 494,-96"/>
<text text-anchor="middle" x="467" y="-75.2" font-family="Courier,monospace" font-size="11.00">App</text>
</g>
<!-- \\Duality\\App&#45;&gt;\\Duality\\Core\\Container -->
<g id="edge19" class="edge"><title>\\Duality\\App&#45;&gt;\\Duality\\Core\\Container</title>
<path fill="none" stroke="black" d="M439.799,-84.8321C431.477,-88.1732 422.911,-93.0307 417,-100 284.422,-256.312 274.065,-523.084 274.404,-609.841"/>
<polygon fill="none" stroke="black" points="270.905,-609.995 274.497,-619.962 277.904,-609.93 270.905,-609.995"/>
</g>
</g>
</svg>
