<?xml version="1.0" encoding="UTF-8" standalone="no"?>
<!DOCTYPE svg PUBLIC "-//W3C//DTD SVG 1.1//EN"
 "http://www.w3.org/Graphics/SVG/1.1/DTD/svg11.dtd">
<!-- Generated by graphviz version 2.36.0 (20140111.2315)
 -->
<!-- Title: G Pages: 1 -->
<svg width="864pt" height="1276pt"
 viewBox="0.00 0.00 864.00 1276.00" xmlns="http://www.w3.org/2000/svg" xmlns:xlink="http://www.w3.org/1999/xlink">
<g id="graph0" class="graph" transform="scale(1 1) rotate(0) translate(4 1272)">
<title>G</title>
<polygon fill="white" stroke="none" points="-4,4 -4,-1272 860,-1272 860,4 -4,4"/>
<g id="clust1" class="cluster"><title>cluster_Global</title>
<path fill="none" stroke="gray" d="M158,-8C158,-8 836,-8 836,-8 842,-8 848,-14 848,-20 848,-20 848,-1248 848,-1248 848,-1254 842,-1260 836,-1260 836,-1260 158,-1260 158,-1260 152,-1260 146,-1254 146,-1248 146,-1248 146,-20 146,-20 146,-14 152,-8 158,-8"/>
<text text-anchor="middle" x="497" y="-1247.2" font-family="Times,serif" font-size="11.00" fill="gray">Global</text>
</g>
<g id="clust2" class="cluster"><title>cluster_\Duality</title>
<path fill="none" stroke="gray" d="M166,-16C166,-16 828,-16 828,-16 834,-16 840,-22 840,-28 840,-28 840,-1220 840,-1220 840,-1226 834,-1232 828,-1232 828,-1232 166,-1232 166,-1232 160,-1232 154,-1226 154,-1220 154,-1220 154,-28 154,-28 154,-22 160,-16 166,-16"/>
<text text-anchor="middle" x="497" y="-1219.2" font-family="Times,serif" font-size="11.00" fill="gray">Duality</text>
</g>
<g id="clust3" class="cluster"><title>cluster_\Duality\Core</title>
<path fill="none" stroke="gray" d="M174,-484C174,-484 324,-484 324,-484 330,-484 336,-490 336,-496 336,-496 336,-1192 336,-1192 336,-1198 330,-1204 324,-1204 324,-1204 174,-1204 174,-1204 168,-1204 162,-1198 162,-1192 162,-1192 162,-496 162,-496 162,-490 168,-484 174,-484"/>
<text text-anchor="middle" x="249" y="-1191.2" font-family="Times,serif" font-size="11.00" fill="gray">Core</text>
</g>
<g id="clust4" class="cluster"><title>cluster_\Duality\Structure</title>
<path fill="none" stroke="gray" d="M418,-68C418,-68 664,-68 664,-68 670,-68 676,-74 676,-80 676,-80 676,-452 676,-452 676,-458 670,-464 664,-464 664,-464 418,-464 418,-464 412,-464 406,-458 406,-452 406,-452 406,-80 406,-80 406,-74 412,-68 418,-68"/>
<text text-anchor="middle" x="541" y="-451.2" font-family="Times,serif" font-size="11.00" fill="gray">Structure</text>
</g>
<g id="clust5" class="cluster"><title>cluster_\Duality\Database</title>
<path fill="none" stroke="gray" d="M601,-484C601,-484 651,-484 651,-484 657,-484 663,-490 663,-496 663,-496 663,-598 663,-598 663,-604 657,-610 651,-610 651,-610 601,-610 601,-610 595,-610 589,-604 589,-598 589,-598 589,-496 589,-496 589,-490 595,-484 601,-484"/>
<text text-anchor="middle" x="626" y="-597.2" font-family="Times,serif" font-size="11.00" fill="gray">Database</text>
</g>
<g id="clust6" class="cluster"><title>cluster_\Duality\Http</title>
<path fill="none" stroke="gray" d="M750,-324C750,-324 814,-324 814,-324 820,-324 826,-330 826,-336 826,-336 826,-492 826,-492 826,-498 820,-504 814,-504 814,-504 750,-504 750,-504 744,-504 738,-498 738,-492 738,-492 738,-336 738,-336 738,-330 744,-324 750,-324"/>
<text text-anchor="middle" x="782" y="-491.2" font-family="Times,serif" font-size="11.00" fill="gray">Http</text>
</g>
<g id="clust7" class="cluster"><title>cluster_\Duality\Service</title>
<path fill="none" stroke="gray" d="M404,-484C404,-484 508,-484 508,-484 514,-484 520,-490 520,-496 520,-496 520,-1192 520,-1192 520,-1198 514,-1204 508,-1204 508,-1204 404,-1204 404,-1204 398,-1204 392,-1198 392,-1192 392,-1192 392,-496 392,-496 392,-490 398,-484 404,-484"/>
<text text-anchor="middle" x="456" y="-1191.2" font-family="Times,serif" font-size="11.00" fill="gray">Service</text>
</g>
<g id="clust8" class="cluster"><title>cluster_\Duality\File</title>
<path fill="none" stroke="gray" d="M744,-136C744,-136 820,-136 820,-136 826,-136 832,-142 832,-148 832,-148 832,-304 832,-304 832,-310 826,-316 820,-316 820,-316 744,-316 744,-316 738,-316 732,-310 732,-304 732,-304 732,-148 732,-148 732,-142 738,-136 744,-136"/>
<text text-anchor="middle" x="782" y="-303.2" font-family="Times,serif" font-size="11.00" fill="gray">File</text>
</g>
<!-- \\Duality\\Core\\Container -->
<g id="node1" class="node"><title>\\Duality\\Core\\Container</title>
<polygon fill="none" stroke="black" points="291,-528 207,-528 207,-492 291,-492 291,-528"/>
<text text-anchor="start" x="215" y="-513.2" font-family="Courier,monospace" font-size="11.00">«abstract»</text>
<text text-anchor="start" x="218.5" y="-501.2" font-family="Courier,monospace" font-size="11.00">Container</text>
</g>
<!-- \\Duality\\Core\\Structure -->
<g id="node2" class="node"><title>\\Duality\\Core\\Structure</title>
<polygon fill="none" stroke="black" points="291,-582 207,-582 207,-546 291,-546 291,-582"/>
<text text-anchor="start" x="215" y="-567.2" font-family="Courier,monospace" font-size="11.00">«abstract»</text>
<text text-anchor="start" x="218.5" y="-555.2" font-family="Courier,monospace" font-size="11.00">Structure</text>
</g>
<!-- \\Duality\\Core\\DualityException -->
<g id="node3" class="node"><title>\\Duality\\Core\\DualityException</title>
<polygon fill="none" stroke="black" points="311.5,-1068 186.5,-1068 186.5,-1032 311.5,-1032 311.5,-1068"/>
<text text-anchor="middle" x="249" y="-1047.2" font-family="Courier,monospace" font-size="11.00">DualityException</text>
</g>
<!-- \\Exception -->
<g id="node45" class="node"><title>\\Exception</title>
<ellipse fill="none" stroke="black" cx="49" cy="-1050" rx="48.9926" ry="18"/>
<text text-anchor="middle" x="49" y="-1046.3" font-family="Times,serif" font-size="14.00" fill="gray">\Exception</text>
</g>
<!-- \\Duality\\Core\\DualityException&#45;&gt;\\Exception -->
<g id="edge19" class="edge"><title>\\Duality\\Core\\DualityException&#45;&gt;\\Exception</title>
<path fill="none" stroke="black" d="M186.437,-1050C161.505,-1050 132.857,-1050 108.27,-1050"/>
<polygon fill="none" stroke="black" points="108.003,-1046.5 98.0033,-1050 108.003,-1053.5 108.003,-1046.5"/>
</g>
<!-- \\Duality\\Core\\Data -->
<g id="node4" class="node"><title>\\Duality\\Core\\Data</title>
<polygon fill="none" stroke="black" points="276,-1014 222,-1014 222,-978 276,-978 276,-1014"/>
<text text-anchor="middle" x="249" y="-993.2" font-family="Courier,monospace" font-size="11.00">Data</text>
</g>
<!-- \\Duality\\Core\\InterfaceService -->
<g id="node5" class="node"><title>\\Duality\\Core\\InterfaceService</title>
<polygon fill="none" stroke="black" points="311.5,-798 186.5,-798 186.5,-762 311.5,-762 311.5,-798"/>
<text text-anchor="middle" x="249" y="-777.2" font-family="Courier,monospace" font-size="11.00">InterfaceService</text>
</g>
<!-- \\Duality\\Core\\InterfaceCommander -->
<g id="node6" class="node"><title>\\Duality\\Core\\InterfaceCommander</title>
<polygon fill="none" stroke="black" points="318,-636 180,-636 180,-600 318,-600 318,-636"/>
<text text-anchor="middle" x="249" y="-615.2" font-family="Courier,monospace" font-size="11.00">InterfaceCommander</text>
</g>
<!-- \\Duality\\Core\\InterfaceAuth -->
<g id="node7" class="node"><title>\\Duality\\Core\\InterfaceAuth</title>
<polygon fill="none" stroke="black" points="301,-1176 197,-1176 197,-1140 301,-1140 301,-1176"/>
<text text-anchor="middle" x="249" y="-1155.2" font-family="Courier,monospace" font-size="11.00">InterfaceAuth</text>
</g>
<!-- \\Duality\\Core\\InterfacePaginator -->
<g id="node8" class="node"><title>\\Duality\\Core\\InterfacePaginator</title>
<polygon fill="none" stroke="black" points="318,-1122 180,-1122 180,-1086 318,-1086 318,-1122"/>
<text text-anchor="middle" x="249" y="-1101.2" font-family="Courier,monospace" font-size="11.00">InterfacePaginator</text>
</g>
<!-- \\Duality\\Core\\InterfaceStorage -->
<g id="node9" class="node"><title>\\Duality\\Core\\InterfaceStorage</title>
<polygon fill="none" stroke="black" points="311.5,-906 186.5,-906 186.5,-870 311.5,-870 311.5,-906"/>
<text text-anchor="middle" x="249" y="-885.2" font-family="Courier,monospace" font-size="11.00">InterfaceStorage</text>
</g>
<!-- \\Duality\\Core\\InterfaceMailer -->
<g id="node10" class="node"><title>\\Duality\\Core\\InterfaceMailer</title>
<polygon fill="none" stroke="black" points="308,-852 190,-852 190,-816 308,-816 308,-852"/>
<text text-anchor="middle" x="249" y="-831.2" font-family="Courier,monospace" font-size="11.00">InterfaceMailer</text>
</g>
<!-- \\Duality\\Core\\InterfaceRemote -->
<g id="node11" class="node"><title>\\Duality\\Core\\InterfaceRemote</title>
<polygon fill="none" stroke="black" points="308,-744 190,-744 190,-708 308,-708 308,-744"/>
<text text-anchor="middle" x="249" y="-723.2" font-family="Courier,monospace" font-size="11.00">InterfaceRemote</text>
</g>
<!-- \\Duality\\Core\\InterfaceValidator -->
<g id="node12" class="node"><title>\\Duality\\Core\\InterfaceValidator</title>
<polygon fill="none" stroke="black" points="318,-960 180,-960 180,-924 318,-924 318,-960"/>
<text text-anchor="middle" x="249" y="-939.2" font-family="Courier,monospace" font-size="11.00">InterfaceValidator</text>
</g>
<!-- \\Duality\\Core\\InterfaceErrorHandler -->
<g id="node13" class="node"><title>\\Duality\\Core\\InterfaceErrorHandler</title>
<polygon fill="none" stroke="black" points="328,-690 170,-690 170,-654 328,-654 328,-690"/>
<text text-anchor="middle" x="249" y="-669.2" font-family="Courier,monospace" font-size="11.00">InterfaceErrorHandler</text>
</g>
<!-- \\Duality\\Structure\\HtmlDoc -->
<g id="node14" class="node"><title>\\Duality\\Structure\\HtmlDoc</title>
<polygon fill="none" stroke="black" points="658,-382 594,-382 594,-346 658,-346 658,-382"/>
<text text-anchor="middle" x="626" y="-361.2" font-family="Courier,monospace" font-size="11.00">HtmlDoc</text>
</g>
<!-- \\Duality\\Structure\\HtmlDoc&#45;&gt;\\Duality\\Core\\Structure -->
<g id="edge1" class="edge"><title>\\Duality\\Structure\\HtmlDoc&#45;&gt;\\Duality\\Core\\Structure</title>
<path fill="none" stroke="black" d="M593.807,-349.282C558.415,-334.891 500.035,-318.311 457,-342"/>
</g>
<!-- \\Duality\\Structure\\TableRow -->
<g id="node15" class="node"><title>\\Duality\\Structure\\TableRow</title>
<polygon fill="none" stroke="black" points="661.5,-436 590.5,-436 590.5,-400 661.5,-400 661.5,-436"/>
<text text-anchor="middle" x="626" y="-415.2" font-family="Courier,monospace" font-size="11.00">TableRow</text>
</g>
<!-- \\Duality\\Structure\\TableRow&#45;&gt;\\Duality\\Core\\Structure -->
<g id="edge3" class="edge"><title>\\Duality\\Structure\\TableRow&#45;&gt;\\Duality\\Core\\Structure</title>
<path fill="none" stroke="black" d="M592.331,-399.84C547.117,-375.224 469.585,-335.072 457,-342"/>
</g>
<!-- \\Duality\\Structure\\Url -->
<g id="node16" class="node"><title>\\Duality\\Structure\\Url</title>
<polygon fill="none" stroke="black" points="653,-220 599,-220 599,-184 653,-184 653,-220"/>
<text text-anchor="middle" x="626" y="-199.2" font-family="Courier,monospace" font-size="11.00">Url</text>
</g>
<!-- \\Duality\\Structure\\Url&#45;&gt;\\Duality\\Core\\Structure -->
<g id="edge11" class="edge"><title>\\Duality\\Structure\\Url&#45;&gt;\\Duality\\Core\\Structure</title>
<path fill="none" stroke="black" d="M598.963,-218.228C593.895,-221.642 588.7,-225.325 584,-229 524.479,-275.535 523.188,-305.566 457,-342"/>
<path fill="none" stroke="black" d="M455,-342C366.055,-390.961 415.987,-474.467 336,-537 325.883,-544.91 313.415,-550.523 301.143,-554.499"/>
<polygon fill="none" stroke="black" points="300.008,-551.184 291.391,-557.349 301.972,-557.903 300.008,-551.184"/>
</g>
<!-- \\Duality\\Structure\\Entity -->
<g id="node17" class="node"><title>\\Duality\\Structure\\Entity</title>
<polygon fill="none" stroke="black" points="668,-166 584,-166 584,-130 668,-130 668,-166"/>
<text text-anchor="start" x="592" y="-151.2" font-family="Courier,monospace" font-size="11.00">«abstract»</text>
<text text-anchor="start" x="605.5" y="-139.2" font-family="Courier,monospace" font-size="11.00">Entity</text>
</g>
<!-- \\Duality\\Structure\\Property -->
<g id="node18" class="node"><title>\\Duality\\Structure\\Property</title>
<polygon fill="none" stroke="black" points="491.5,-279 420.5,-279 420.5,-243 491.5,-243 491.5,-279"/>
<text text-anchor="middle" x="456" y="-258.2" font-family="Courier,monospace" font-size="11.00">Property</text>
</g>
<!-- \\Duality\\Structure\\Entity&#45;&gt;\\Duality\\Structure\\Property -->
<g id="edge16" class="edge"><title>\\Duality\\Structure\\Entity&#45;&gt;\\Duality\\Structure\\Property</title>
<path fill="none" stroke="black" d="M597.179,-166.252C592.764,-169.168 588.253,-172.16 584,-175 552.9,-195.769 517.701,-219.633 492.26,-236.945"/>
<polygon fill="none" stroke="black" points="489.987,-234.259 483.691,-242.78 493.927,-240.045 489.987,-234.259"/>
</g>
<!-- \\Duality\\Structure\\Property&#45;&gt;\\Duality\\Core\\Structure -->
<g id="edge21" class="edge"><title>\\Duality\\Structure\\Property&#45;&gt;\\Duality\\Core\\Structure</title>
<path fill="none" stroke="black" d="M436.243,-279.059C422.212,-293.529 403.532,-314.987 392,-337 349.163,-418.766 400.245,-470.718 336,-537 326.626,-546.671 313.836,-552.891 300.985,-556.887"/>
<polygon fill="none" stroke="black" points="299.943,-553.543 291.202,-559.53 301.768,-560.301 299.943,-553.543"/>
</g>
<!-- \\Duality\\Structure\\Table -->
<g id="node19" class="node"><title>\\Duality\\Structure\\Table</title>
<polygon fill="none" stroke="black" points="498,-137 414,-137 414,-101 498,-101 498,-137"/>
<text text-anchor="start" x="422" y="-122.2" font-family="Courier,monospace" font-size="11.00">«abstract»</text>
<text text-anchor="start" x="439" y="-110.2" font-family="Courier,monospace" font-size="11.00">Table</text>
</g>
<!-- \\Duality\\Structure\\Table&#45;&gt;\\Duality\\Core\\Structure -->
<g id="edge22" class="edge"><title>\\Duality\\Structure\\Table&#45;&gt;\\Duality\\Core\\Structure</title>
<path fill="none" stroke="black" d="M442.587,-137.26C428.225,-159.247 404.901,-197.755 392,-234 346.076,-363.018 426.781,-434.465 336,-537 326.99,-547.177 314.193,-553.556 301.217,-557.543"/>
<polygon fill="none" stroke="black" points="300.098,-554.219 291.319,-560.149 301.881,-560.988 300.098,-554.219"/>
</g>
<!-- \\Duality\\Structure\\Http -->
<g id="node20" class="node"><title>\\Duality\\Structure\\Http</title>
<polygon fill="none" stroke="black" points="668,-328 584,-328 584,-292 668,-292 668,-328"/>
<text text-anchor="start" x="592" y="-313.2" font-family="Courier,monospace" font-size="11.00">«abstract»</text>
<text text-anchor="start" x="612" y="-301.2" font-family="Courier,monospace" font-size="11.00">Http</text>
</g>
<!-- \\Duality\\Structure\\Http&#45;&gt;\\Duality\\Core\\Structure -->
<g id="edge23" class="edge"><title>\\Duality\\Structure\\Http&#45;&gt;\\Duality\\Core\\Structure</title>
<path fill="none" stroke="black" d="M583.923,-310.777C548.35,-313.036 496.536,-320.237 457,-342"/>
</g>
<!-- \\Duality\\Structure\\DbTable -->
<g id="node21" class="node"><title>\\Duality\\Structure\\DbTable</title>
<polygon fill="none" stroke="black" points="658,-112 594,-112 594,-76 658,-76 658,-112"/>
<text text-anchor="middle" x="626" y="-91.2" font-family="Courier,monospace" font-size="11.00">DbTable</text>
</g>
<!-- \\Duality\\Structure\\DbTable&#45;&gt;\\Duality\\Structure\\Table -->
<g id="edge30" class="edge"><title>\\Duality\\Structure\\DbTable&#45;&gt;\\Duality\\Structure\\Table</title>
<path fill="none" stroke="black" d="M593.794,-98.6437C569.793,-102.215 536.12,-107.226 508.19,-111.382"/>
<polygon fill="none" stroke="black" points="507.564,-107.937 498.188,-112.871 508.594,-114.861 507.564,-107.937"/>
</g>
<!-- \\Duality\\Structure\\File -->
<g id="node22" class="node"><title>\\Duality\\Structure\\File</title>
<polygon fill="none" stroke="black" points="668,-274 584,-274 584,-238 668,-238 668,-274"/>
<text text-anchor="start" x="592" y="-259.2" font-family="Courier,monospace" font-size="11.00">«abstract»</text>
<text text-anchor="start" x="612" y="-247.2" font-family="Courier,monospace" font-size="11.00">File</text>
</g>
<!-- \\Duality\\Structure\\File&#45;&gt;\\Duality\\Core\\Structure -->
<g id="edge42" class="edge"><title>\\Duality\\Structure\\File&#45;&gt;\\Duality\\Core\\Structure</title>
<path fill="none" stroke="black" d="M587.96,-274.16C553.694,-291.148 501.492,-317.509 457,-342"/>
</g>
<!-- \\Duality\\Database\\SQLite -->
<g id="node23" class="node"><title>\\Duality\\Database\\SQLite</title>
<polygon fill="none" stroke="black" points="654.5,-582 597.5,-582 597.5,-546 654.5,-546 654.5,-582"/>
<text text-anchor="middle" x="626" y="-561.2" font-family="Courier,monospace" font-size="11.00">SQLite</text>
</g>
<!-- \\Duality\\Service\\Database -->
<g id="node33" class="node"><title>\\Duality\\Service\\Database</title>
<polygon fill="none" stroke="black" points="498,-528 414,-528 414,-492 498,-492 498,-528"/>
<text text-anchor="start" x="422" y="-513.2" font-family="Courier,monospace" font-size="11.00">«abstract»</text>
<text text-anchor="start" x="428.5" y="-501.2" font-family="Courier,monospace" font-size="11.00">Database</text>
</g>
<!-- \\Duality\\Database\\SQLite&#45;&gt;\\Duality\\Service\\Database -->
<g id="edge2" class="edge"><title>\\Duality\\Database\\SQLite&#45;&gt;\\Duality\\Service\\Database</title>
<path fill="none" stroke="black" d="M597.258,-555.083C573.06,-547.305 537.334,-535.822 507.995,-526.391"/>
<polygon fill="none" stroke="black" points="508.907,-523.008 498.316,-523.28 506.765,-529.672 508.907,-523.008"/>
</g>
<!-- \\Duality\\Database\\MySql -->
<g id="node24" class="node"><title>\\Duality\\Database\\MySql</title>
<polygon fill="none" stroke="black" points="653,-528 599,-528 599,-492 653,-492 653,-528"/>
<text text-anchor="middle" x="626" y="-507.2" font-family="Courier,monospace" font-size="11.00">MySql</text>
</g>
<!-- \\Duality\\Database\\MySql&#45;&gt;\\Duality\\Service\\Database -->
<g id="edge15" class="edge"><title>\\Duality\\Database\\MySql&#45;&gt;\\Duality\\Service\\Database</title>
<path fill="none" stroke="black" d="M598.75,-510C574.645,-510 538.242,-510 508.363,-510"/>
<polygon fill="none" stroke="black" points="508.097,-506.5 498.097,-510 508.097,-513.5 508.097,-506.5"/>
</g>
<!-- \\Duality\\Http\\Request -->
<g id="node25" class="node"><title>\\Duality\\Http\\Request</title>
<polygon fill="none" stroke="black" points="814,-422 750,-422 750,-386 814,-386 814,-422"/>
<text text-anchor="middle" x="782" y="-401.2" font-family="Courier,monospace" font-size="11.00">Request</text>
</g>
<!-- \\Duality\\Http\\Request&#45;&gt;\\Duality\\Structure\\Http -->
<g id="edge4" class="edge"><title>\\Duality\\Http\\Request&#45;&gt;\\Duality\\Structure\\Http</title>
<path fill="none" stroke="black" d="M749.839,-387.543C743.845,-384.178 737.671,-380.571 732,-377 706.117,-360.703 701.883,-353.297 676,-337 674.063,-335.781 672.068,-334.557 670.041,-333.34"/>
<polygon fill="none" stroke="black" points="671.439,-330.103 661.039,-328.083 667.91,-336.148 671.439,-330.103"/>
</g>
<!-- \\Duality\\Http\\Client -->
<g id="node26" class="node"><title>\\Duality\\Http\\Client</title>
<polygon fill="none" stroke="black" points="810.5,-476 753.5,-476 753.5,-440 810.5,-440 810.5,-476"/>
<text text-anchor="middle" x="782" y="-455.2" font-family="Courier,monospace" font-size="11.00">Client</text>
</g>
<!-- \\Duality\\Http\\Client&#45;&gt;\\Duality\\Core\\InterfaceService -->
<g id="edge8" class="edge"><title>\\Duality\\Http\\Client&#45;&gt;\\Duality\\Core\\InterfaceService</title>
<path fill="none" stroke="black" stroke-dasharray="1,5" d="M753.398,-461.03C732.241,-463.255 702.307,-466.193 676,-468 660.245,-469.082 404.024,-469.762 392,-480 297.695,-560.298 419.009,-661.072 336,-753 331.664,-757.802 326.485,-761.757 320.85,-765.014"/>
<polygon fill="none" stroke="black" points="319.068,-761.991 311.672,-769.578 322.185,-768.259 319.068,-761.991"/>
</g>
<!-- \\Duality\\Http\\Response -->
<g id="node27" class="node"><title>\\Duality\\Http\\Response</title>
<polygon fill="none" stroke="black" points="817.5,-368 746.5,-368 746.5,-332 817.5,-332 817.5,-368"/>
<text text-anchor="middle" x="782" y="-347.2" font-family="Courier,monospace" font-size="11.00">Response</text>
</g>
<!-- \\Duality\\Http\\Response&#45;&gt;\\Duality\\Structure\\Http -->
<g id="edge20" class="edge"><title>\\Duality\\Http\\Response&#45;&gt;\\Duality\\Structure\\Http</title>
<path fill="none" stroke="black" d="M746.439,-341.023C726.2,-335.766 700.272,-329.032 677.748,-323.181"/>
<polygon fill="none" stroke="black" points="678.561,-319.776 668.002,-320.65 676.801,-326.552 678.561,-319.776"/>
</g>
<!-- \\Duality\\Service\\Auth -->
<g id="node28" class="node"><title>\\Duality\\Service\\Auth</title>
<polygon fill="none" stroke="black" points="483,-1176 429,-1176 429,-1140 483,-1140 483,-1176"/>
<text text-anchor="middle" x="456" y="-1155.2" font-family="Courier,monospace" font-size="11.00">Auth</text>
</g>
<!-- \\Duality\\Service\\Auth&#45;&gt;\\Duality\\Core\\InterfaceService -->
<g id="edge6" class="edge"><title>\\Duality\\Service\\Auth&#45;&gt;\\Duality\\Core\\InterfaceService</title>
<path fill="none" stroke="black" stroke-dasharray="1,5" d="M428.683,-1152.92C415.728,-1149.06 400.998,-1142.39 392,-1131 301.421,-1016.32 432.235,-916.974 336,-807 331.739,-802.131 326.612,-798.131 321.009,-794.845"/>
<polygon fill="none" stroke="black" points="322.374,-791.614 311.868,-790.248 319.23,-797.868 322.374,-791.614"/>
</g>
<!-- \\Duality\\Service\\Auth&#45;&gt;\\Duality\\Core\\InterfaceAuth -->
<g id="edge5" class="edge"><title>\\Duality\\Service\\Auth&#45;&gt;\\Duality\\Core\\InterfaceAuth</title>
<path fill="none" stroke="black" stroke-dasharray="1,5" d="M428.62,-1158C399.137,-1158 350.405,-1158 311.285,-1158"/>
<polygon fill="none" stroke="black" points="311.048,-1154.5 301.048,-1158 311.048,-1161.5 311.048,-1154.5"/>
</g>
<!-- \\Duality\\Service\\SSH -->
<g id="node29" class="node"><title>\\Duality\\Service\\SSH</title>
<polygon fill="none" stroke="black" points="483,-690 429,-690 429,-654 483,-654 483,-690"/>
<text text-anchor="middle" x="456" y="-669.2" font-family="Courier,monospace" font-size="11.00">SSH</text>
</g>
<!-- \\Duality\\Service\\SSH&#45;&gt;\\Duality\\Core\\InterfaceService -->
<g id="edge9" class="edge"><title>\\Duality\\Service\\SSH&#45;&gt;\\Duality\\Core\\InterfaceService</title>
<path fill="none" stroke="black" stroke-dasharray="1,5" d="M428.785,-680.781C417.031,-685.322 403.302,-691.497 392,-699 363.194,-718.123 365.732,-735.351 336,-753 331.29,-755.796 326.261,-758.332 321.087,-760.627"/>
<polygon fill="none" stroke="black" points="319.576,-757.464 311.656,-764.502 322.236,-763.939 319.576,-757.464"/>
</g>
<!-- \\Duality\\Service\\SSH&#45;&gt;\\Duality\\Core\\InterfaceRemote -->
<g id="edge10" class="edge"><title>\\Duality\\Service\\SSH&#45;&gt;\\Duality\\Core\\InterfaceRemote</title>
<path fill="none" stroke="black" stroke-dasharray="1,5" d="M428.62,-678.949C400.824,-686.271 355.921,-698.099 318.091,-708.064"/>
<polygon fill="none" stroke="black" points="316.915,-704.754 308.137,-710.686 318.698,-711.523 316.915,-704.754"/>
</g>
<!-- \\Duality\\Service\\Localization -->
<g id="node30" class="node"><title>\\Duality\\Service\\Localization</title>
<polygon fill="none" stroke="black" points="505,-960 407,-960 407,-924 505,-924 505,-960"/>
<text text-anchor="middle" x="456" y="-939.2" font-family="Courier,monospace" font-size="11.00">Localization</text>
</g>
<!-- \\Duality\\Service\\Localization&#45;&gt;\\Duality\\Core\\InterfaceService -->
<g id="edge14" class="edge"><title>\\Duality\\Service\\Localization&#45;&gt;\\Duality\\Core\\InterfaceService</title>
<path fill="none" stroke="black" stroke-dasharray="1,5" d="M406.738,-925.555C401.418,-922.548 396.359,-919.05 392,-915 352.389,-878.197 377.412,-841.763 336,-807 331.47,-803.197 326.402,-799.929 321.056,-797.12"/>
<polygon fill="none" stroke="black" points="322.38,-793.875 311.839,-792.813 319.417,-800.217 322.38,-793.875"/>
</g>
<!-- \\Duality\\Service\\Localization&#45;&gt;\\Duality\\Core\\InterfaceStorage -->
<g id="edge13" class="edge"><title>\\Duality\\Service\\Localization&#45;&gt;\\Duality\\Core\\InterfaceStorage</title>
<path fill="none" stroke="black" stroke-dasharray="1,5" d="M406.937,-929.339C381.53,-922.647 349.837,-914.298 321.596,-906.86"/>
<polygon fill="none" stroke="black" points="322.329,-903.433 311.767,-904.27 320.546,-910.202 322.329,-903.433"/>
</g>
<!-- \\Duality\\Service\\Paginator -->
<g id="node31" class="node"><title>\\Duality\\Service\\Paginator</title>
<polygon fill="none" stroke="black" points="494.5,-1122 417.5,-1122 417.5,-1086 494.5,-1086 494.5,-1122"/>
<text text-anchor="middle" x="456" y="-1101.2" font-family="Courier,monospace" font-size="11.00">Paginator</text>
</g>
<!-- \\Duality\\Service\\Paginator&#45;&gt;\\Duality\\Core\\InterfaceService -->
<g id="edge17" class="edge"><title>\\Duality\\Service\\Paginator&#45;&gt;\\Duality\\Core\\InterfaceService</title>
<path fill="none" stroke="black" stroke-dasharray="1,5" d="M417.448,-1094.72C407.926,-1090.7 398.552,-1085.02 392,-1077 314.444,-982.108 418.233,-897.869 336,-807 331.659,-802.203 326.477,-798.251 320.839,-794.996"/>
<polygon fill="none" stroke="black" points="322.171,-791.75 311.659,-790.435 319.056,-798.019 322.171,-791.75"/>
</g>
<!-- \\Duality\\Service\\Paginator&#45;&gt;\\Duality\\Core\\InterfacePaginator -->
<g id="edge18" class="edge"><title>\\Duality\\Service\\Paginator&#45;&gt;\\Duality\\Core\\InterfacePaginator</title>
<path fill="none" stroke="black" stroke-dasharray="1,5" d="M417.4,-1104C392.476,-1104 358.855,-1104 328.283,-1104"/>
<polygon fill="none" stroke="black" points="328.048,-1100.5 318.048,-1104 328.048,-1107.5 328.048,-1100.5"/>
</g>
<!-- \\Duality\\Service\\Mailer -->
<g id="node32" class="node"><title>\\Duality\\Service\\Mailer</title>
<polygon fill="none" stroke="black" points="484.5,-852 427.5,-852 427.5,-816 484.5,-816 484.5,-852"/>
<text text-anchor="middle" x="456" y="-831.2" font-family="Courier,monospace" font-size="11.00">Mailer</text>
</g>
<!-- \\Duality\\Service\\Mailer&#45;&gt;\\Duality\\Core\\InterfaceService -->
<g id="edge26" class="edge"><title>\\Duality\\Service\\Mailer&#45;&gt;\\Duality\\Core\\InterfaceService</title>
<path fill="none" stroke="black" stroke-dasharray="1,5" d="M427.353,-826.717C400.38,-819.612 358.203,-808.502 321.746,-798.899"/>
<polygon fill="none" stroke="black" points="322.194,-795.398 311.633,-796.235 320.411,-802.167 322.194,-795.398"/>
</g>
<!-- \\Duality\\Service\\Mailer&#45;&gt;\\Duality\\Core\\InterfaceMailer -->
<g id="edge25" class="edge"><title>\\Duality\\Service\\Mailer&#45;&gt;\\Duality\\Core\\InterfaceMailer</title>
<path fill="none" stroke="black" stroke-dasharray="1,5" d="M427.353,-834C399.581,-834 355.69,-834 318.521,-834"/>
<polygon fill="none" stroke="black" points="318.235,-830.5 308.235,-834 318.235,-837.5 318.235,-830.5"/>
</g>
<!-- \\Duality\\Service\\Database&#45;&gt;\\Duality\\Core\\Structure -->
<g id="edge27" class="edge"><title>\\Duality\\Service\\Database&#45;&gt;\\Duality\\Core\\Structure</title>
<path fill="none" stroke="black" d="M413.515,-520.928C381.038,-529.483 335.71,-541.423 301.014,-550.562"/>
<polygon fill="none" stroke="black" points="299.851,-547.249 291.073,-553.181 301.635,-554.018 299.851,-547.249"/>
</g>
<!-- \\Duality\\Service\\Database&#45;&gt;\\Duality\\Core\\InterfaceService -->
<g id="edge28" class="edge"><title>\\Duality\\Service\\Database&#45;&gt;\\Duality\\Core\\InterfaceService</title>
<path fill="none" stroke="black" stroke-dasharray="1,5" d="M413.776,-521.254C405.632,-525.11 397.816,-530.231 392,-537 327.371,-612.223 404.332,-681.124 336,-753 331.613,-757.615 326.448,-761.444 320.863,-764.622"/>
<polygon fill="none" stroke="black" points="319.211,-761.534 311.793,-769.099 322.309,-767.812 319.211,-761.534"/>
</g>
<!-- \\Duality\\Service\\Cache -->
<g id="node34" class="node"><title>\\Duality\\Service\\Cache</title>
<polygon fill="none" stroke="black" points="483,-1014 429,-1014 429,-978 483,-978 483,-1014"/>
<text text-anchor="middle" x="456" y="-993.2" font-family="Courier,monospace" font-size="11.00">Cache</text>
</g>
<!-- \\Duality\\Service\\Cache&#45;&gt;\\Duality\\Core\\InterfaceService -->
<g id="edge32" class="edge"><title>\\Duality\\Service\\Cache&#45;&gt;\\Duality\\Core\\InterfaceService</title>
<path fill="none" stroke="black" stroke-dasharray="1,5" d="M428.786,-990.088C416.178,-986.04 401.727,-979.454 392,-969 340.108,-913.227 390.633,-860.092 336,-807 331.614,-802.738 326.564,-799.148 321.153,-796.124"/>
<polygon fill="none" stroke="black" points="322.285,-792.783 311.762,-791.551 319.221,-799.076 322.285,-792.783"/>
</g>
<!-- \\Duality\\Service\\Cache&#45;&gt;\\Duality\\Core\\InterfaceStorage -->
<g id="edge31" class="edge"><title>\\Duality\\Service\\Cache&#45;&gt;\\Duality\\Core\\InterfaceStorage</title>
<path fill="none" stroke="black" stroke-dasharray="1,5" d="M428.785,-987.219C417.031,-982.678 403.302,-976.503 392,-969 363.194,-949.877 365.732,-932.649 336,-915 331.29,-912.204 326.261,-909.668 321.087,-907.373"/>
<polygon fill="none" stroke="black" points="322.236,-904.061 311.656,-903.498 319.576,-910.536 322.236,-904.061"/>
</g>
<!-- \\Duality\\Service\\UserController -->
<g id="node35" class="node"><title>\\Duality\\Service\\UserController</title>
<polygon fill="none" stroke="black" points="511.5,-744 400.5,-744 400.5,-708 511.5,-708 511.5,-744"/>
<text text-anchor="middle" x="456" y="-723.2" font-family="Courier,monospace" font-size="11.00">UserController</text>
</g>
<!-- \\Duality\\Service\\UserController&#45;&gt;\\Duality\\Core\\InterfaceService -->
<g id="edge33" class="edge"><title>\\Duality\\Service\\UserController&#45;&gt;\\Duality\\Core\\InterfaceService</title>
<path fill="none" stroke="black" stroke-dasharray="1,5" d="M400.333,-740.4C376.143,-746.772 347.371,-754.351 321.506,-761.164"/>
<polygon fill="none" stroke="black" points="320.53,-757.802 311.751,-763.734 322.313,-764.571 320.53,-757.802"/>
</g>
<!-- \\Duality\\Service\\Validator -->
<g id="node36" class="node"><title>\\Duality\\Service\\Validator</title>
<polygon fill="none" stroke="black" points="494.5,-1068 417.5,-1068 417.5,-1032 494.5,-1032 494.5,-1068"/>
<text text-anchor="middle" x="456" y="-1047.2" font-family="Courier,monospace" font-size="11.00">Validator</text>
</g>
<!-- \\Duality\\Service\\Validator&#45;&gt;\\Duality\\Core\\InterfaceService -->
<g id="edge35" class="edge"><title>\\Duality\\Service\\Validator&#45;&gt;\\Duality\\Core\\InterfaceService</title>
<path fill="none" stroke="black" stroke-dasharray="1,5" d="M417.375,-1040.36C407.967,-1036.36 398.669,-1030.76 392,-1023 327.371,-947.777 404.332,-878.876 336,-807 331.613,-802.385 326.448,-798.556 320.863,-795.378"/>
<polygon fill="none" stroke="black" points="322.309,-792.188 311.793,-790.901 319.211,-798.466 322.309,-792.188"/>
</g>
<!-- \\Duality\\Service\\Validator&#45;&gt;\\Duality\\Core\\InterfaceStorage -->
<g id="edge34" class="edge"><title>\\Duality\\Service\\Validator&#45;&gt;\\Duality\\Core\\InterfaceStorage</title>
<path fill="none" stroke="black" stroke-dasharray="1,5" d="M417.486,-1038.88C408.402,-1034.92 399.236,-1029.72 392,-1023 352.389,-986.197 377.412,-949.763 336,-915 331.47,-911.197 326.402,-907.929 321.056,-905.12"/>
<polygon fill="none" stroke="black" points="322.38,-901.875 311.839,-900.813 319.417,-908.217 322.38,-901.875"/>
</g>
<!-- \\Duality\\Service\\Validator&#45;&gt;\\Duality\\Core\\InterfaceValidator -->
<g id="edge36" class="edge"><title>\\Duality\\Service\\Validator&#45;&gt;\\Duality\\Core\\InterfaceValidator</title>
<path fill="none" stroke="black" stroke-dasharray="1,5" d="M417.197,-1036.44C408.602,-1032.65 399.733,-1028.13 392,-1023 363.194,-1003.88 365.732,-986.649 336,-969 333.174,-967.322 330.233,-965.739 327.215,-964.244"/>
<polygon fill="none" stroke="black" points="328.517,-960.991 317.967,-960.025 325.612,-967.36 328.517,-960.991"/>
</g>
<!-- \\Duality\\Service\\Logger -->
<g id="node37" class="node"><title>\\Duality\\Service\\Logger</title>
<polygon fill="none" stroke="black" points="484.5,-636 427.5,-636 427.5,-600 484.5,-600 484.5,-636"/>
<text text-anchor="middle" x="456" y="-615.2" font-family="Courier,monospace" font-size="11.00">Logger</text>
</g>
<!-- \\Duality\\Service\\Logger&#45;&gt;\\Duality\\Core\\InterfaceService -->
<g id="edge38" class="edge"><title>\\Duality\\Service\\Logger&#45;&gt;\\Duality\\Core\\InterfaceService</title>
<path fill="none" stroke="black" stroke-dasharray="1,5" d="M427.21,-625.295C415.28,-629.514 401.851,-635.847 392,-645 352.389,-681.803 377.412,-718.237 336,-753 331.47,-756.803 326.402,-760.071 321.056,-762.88"/>
<polygon fill="none" stroke="black" points="319.417,-759.783 311.839,-767.187 322.38,-766.125 319.417,-759.783"/>
</g>
<!-- \\Duality\\Service\\Logger&#45;&gt;\\Duality\\Core\\InterfaceErrorHandler -->
<g id="edge37" class="edge"><title>\\Duality\\Service\\Logger&#45;&gt;\\Duality\\Core\\InterfaceErrorHandler</title>
<path fill="none" stroke="black" stroke-dasharray="1,5" d="M427.353,-625.283C401.979,-631.967 363.149,-642.195 328.283,-651.379"/>
<polygon fill="none" stroke="black" points="327.348,-648.006 318.569,-653.938 329.131,-654.775 327.348,-648.006"/>
</g>
<!-- \\Duality\\Service\\Commander -->
<g id="node38" class="node"><title>\\Duality\\Service\\Commander</title>
<polygon fill="none" stroke="black" points="494.5,-582 417.5,-582 417.5,-546 494.5,-546 494.5,-582"/>
<text text-anchor="middle" x="456" y="-561.2" font-family="Courier,monospace" font-size="11.00">Commander</text>
</g>
<!-- \\Duality\\Service\\Commander&#45;&gt;\\Duality\\Core\\InterfaceService -->
<g id="edge40" class="edge"><title>\\Duality\\Service\\Commander&#45;&gt;\\Duality\\Core\\InterfaceService</title>
<path fill="none" stroke="black" stroke-dasharray="1,5" d="M417.446,-574.135C408.15,-578.13 398.89,-583.595 392,-591 340.108,-646.773 390.633,-699.908 336,-753 331.614,-757.262 326.564,-760.852 321.153,-763.876"/>
<polygon fill="none" stroke="black" points="319.221,-760.924 311.762,-768.449 322.285,-767.217 319.221,-760.924"/>
</g>
<!-- \\Duality\\Service\\Commander&#45;&gt;\\Duality\\Core\\InterfaceCommander -->
<g id="edge39" class="edge"><title>\\Duality\\Service\\Commander&#45;&gt;\\Duality\\Core\\InterfaceCommander</title>
<path fill="none" stroke="black" stroke-dasharray="1,5" d="M417.4,-573.904C392.368,-580.498 358.562,-589.403 327.884,-597.484"/>
<polygon fill="none" stroke="black" points="326.827,-594.143 318.048,-600.075 328.61,-600.912 326.827,-594.143"/>
</g>
<!-- \\Duality\\Service\\Server -->
<g id="node39" class="node"><title>\\Duality\\Service\\Server</title>
<polygon fill="none" stroke="black" points="484.5,-798 427.5,-798 427.5,-762 484.5,-762 484.5,-798"/>
<text text-anchor="middle" x="456" y="-777.2" font-family="Courier,monospace" font-size="11.00">Server</text>
</g>
<!-- \\Duality\\Service\\Server&#45;&gt;\\Duality\\Core\\InterfaceService -->
<g id="edge41" class="edge"><title>\\Duality\\Service\\Server&#45;&gt;\\Duality\\Core\\InterfaceService</title>
<path fill="none" stroke="black" stroke-dasharray="1,5" d="M427.353,-780C400.38,-780 358.203,-780 321.746,-780"/>
<polygon fill="none" stroke="black" points="321.633,-776.5 311.633,-780 321.633,-783.5 321.633,-776.5"/>
</g>
<!-- \\Duality\\Service\\Session -->
<g id="node40" class="node"><title>\\Duality\\Service\\Session</title>
<polygon fill="none" stroke="black" points="488,-906 424,-906 424,-870 488,-870 488,-906"/>
<text text-anchor="middle" x="456" y="-885.2" font-family="Courier,monospace" font-size="11.00">Session</text>
</g>
<!-- \\Duality\\Service\\Session&#45;&gt;\\Duality\\Core\\InterfaceService -->
<g id="edge44" class="edge"><title>\\Duality\\Service\\Session&#45;&gt;\\Duality\\Core\\InterfaceService</title>
<path fill="none" stroke="black" stroke-dasharray="1,5" d="M423.731,-877.211C413.225,-872.918 401.716,-867.45 392,-861 363.194,-841.877 365.732,-824.649 336,-807 331.29,-804.204 326.261,-801.668 321.087,-799.373"/>
<polygon fill="none" stroke="black" points="322.236,-796.061 311.656,-795.498 319.576,-802.536 322.236,-796.061"/>
</g>
<!-- \\Duality\\Service\\Session&#45;&gt;\\Duality\\Core\\InterfaceStorage -->
<g id="edge43" class="edge"><title>\\Duality\\Service\\Session&#45;&gt;\\Duality\\Core\\InterfaceStorage</title>
<path fill="none" stroke="black" stroke-dasharray="1,5" d="M423.865,-888C396.85,-888 356.704,-888 321.794,-888"/>
<polygon fill="none" stroke="black" points="321.626,-884.5 311.626,-888 321.626,-891.5 321.626,-884.5"/>
</g>
<!-- \\Duality\\File\\StreamFile -->
<g id="node41" class="node"><title>\\Duality\\File\\StreamFile</title>
<polygon fill="none" stroke="black" points="824,-288 740,-288 740,-252 824,-252 824,-288"/>
<text text-anchor="middle" x="782" y="-267.2" font-family="Courier,monospace" font-size="11.00">StreamFile</text>
</g>
<!-- \\Duality\\File\\StreamFile&#45;&gt;\\Duality\\Structure\\File -->
<g id="edge7" class="edge"><title>\\Duality\\File\\StreamFile&#45;&gt;\\Duality\\Structure\\File</title>
<path fill="none" stroke="black" d="M739.731,-266.248C720.839,-264.531 698.261,-262.478 678.289,-260.663"/>
<polygon fill="none" stroke="black" points="678.392,-257.158 668.116,-259.738 677.758,-264.129 678.392,-257.158"/>
</g>
<!-- \\Duality\\File\\TextFile -->
<g id="node42" class="node"><title>\\Duality\\File\\TextFile</title>
<polygon fill="none" stroke="black" points="817.5,-234 746.5,-234 746.5,-198 817.5,-198 817.5,-234"/>
<text text-anchor="middle" x="782" y="-213.2" font-family="Courier,monospace" font-size="11.00">TextFile</text>
</g>
<!-- \\Duality\\File\\TextFile&#45;&gt;\\Duality\\Structure\\File -->
<g id="edge24" class="edge"><title>\\Duality\\File\\TextFile&#45;&gt;\\Duality\\Structure\\File</title>
<path fill="none" stroke="black" d="M746.439,-224.977C726.2,-230.234 700.272,-236.968 677.748,-242.819"/>
<polygon fill="none" stroke="black" points="676.801,-239.448 668.002,-245.35 678.561,-246.224 676.801,-239.448"/>
</g>
<!-- \\Duality\\File\\ImageFile -->
<g id="node43" class="node"><title>\\Duality\\File\\ImageFile</title>
<polygon fill="none" stroke="black" points="820.5,-180 743.5,-180 743.5,-144 820.5,-144 820.5,-180"/>
<text text-anchor="middle" x="782" y="-159.2" font-family="Courier,monospace" font-size="11.00">ImageFile</text>
</g>
<!-- \\Duality\\File\\ImageFile&#45;&gt;\\Duality\\Structure\\File -->
<g id="edge29" class="edge"><title>\\Duality\\File\\ImageFile&#45;&gt;\\Duality\\Structure\\File</title>
<path fill="none" stroke="black" d="M746.961,-180.083C741.889,-182.971 736.767,-185.998 732,-189 706.117,-205.297 701.883,-212.703 676,-229 674.063,-230.219 672.068,-231.443 670.041,-232.66"/>
<polygon fill="none" stroke="black" points="667.91,-229.852 661.039,-237.917 671.439,-235.897 667.91,-229.852"/>
</g>
<!-- \\Duality\\App -->
<g id="node44" class="node"><title>\\Duality\\App</title>
<polygon fill="none" stroke="black" points="483,-60 429,-60 429,-24 483,-24 483,-60"/>
<text text-anchor="middle" x="456" y="-39.2" font-family="Courier,monospace" font-size="11.00">App</text>
</g>
<!-- \\Duality\\App&#45;&gt;\\Duality\\Core\\Container -->
<g id="edge12" class="edge"><title>\\Duality\\App&#45;&gt;\\Duality\\Core\\Container</title>
<path fill="none" stroke="black" d="M428.758,-45.5921C416.142,-48.5774 401.693,-54.0343 392,-64 274.276,-185.034 254.107,-403.405 250.686,-481.374"/>
<polygon fill="none" stroke="black" points="247.171,-481.706 250.293,-491.83 254.166,-481.969 247.171,-481.706"/>
</g>
</g>
</svg>
