<?xml version="1.0" encoding="UTF-8" standalone="no"?>
<!DOCTYPE svg PUBLIC "-//W3C//DTD SVG 1.1//EN"
 "http://www.w3.org/Graphics/SVG/1.1/DTD/svg11.dtd">
<!-- Generated by graphviz version 2.36.0 (20140111.2315)
 -->
<!-- Title: G Pages: 1 -->
<svg width="564pt" height="2610pt"
 viewBox="0.00 0.00 564.00 2610.00" xmlns="http://www.w3.org/2000/svg" xmlns:xlink="http://www.w3.org/1999/xlink">
<g id="graph0" class="graph" transform="scale(1 1) rotate(0) translate(4 2606)">
<title>G</title>
<polygon fill="white" stroke="none" points="-4,4 -4,-2606 560,-2606 560,4 -4,4"/>
<g id="clust1" class="cluster"><title>cluster_Global</title>
<path fill="none" stroke="gray" d="M20,-44C20,-44 536,-44 536,-44 542,-44 548,-50 548,-56 548,-56 548,-2582 548,-2582 548,-2588 542,-2594 536,-2594 536,-2594 20,-2594 20,-2594 14,-2594 8,-2588 8,-2582 8,-2582 8,-56 8,-56 8,-50 14,-44 20,-44"/>
<text text-anchor="middle" x="278" y="-2581.2" font-family="Times,serif" font-size="11.00" fill="gray">Global</text>
</g>
<g id="clust2" class="cluster"><title>cluster_\Duality</title>
<path fill="none" stroke="gray" d="M28,-52C28,-52 528,-52 528,-52 534,-52 540,-58 540,-64 540,-64 540,-2554 540,-2554 540,-2560 534,-2566 528,-2566 528,-2566 28,-2566 28,-2566 22,-2566 16,-2560 16,-2554 16,-2554 16,-64 16,-64 16,-58 22,-52 28,-52"/>
<text text-anchor="middle" x="278" y="-2553.2" font-family="Times,serif" font-size="11.00" fill="gray">Duality</text>
</g>
<g id="clust3" class="cluster"><title>cluster_\Duality\Core</title>
<path fill="none" stroke="gray" d="M36,-1102C36,-1102 349,-1102 349,-1102 355,-1102 361,-1108 361,-1114 361,-1114 361,-1756 361,-1756 361,-1762 355,-1768 349,-1768 349,-1768 36,-1768 36,-1768 30,-1768 24,-1762 24,-1756 24,-1756 24,-1114 24,-1114 24,-1108 30,-1102 36,-1102"/>
<text text-anchor="middle" x="192.5" y="-1755.2" font-family="Times,serif" font-size="11.00" fill="gray">Core</text>
</g>
<g id="clust4" class="cluster"><title>cluster_\Duality\Structure</title>
<path fill="none" stroke="gray" d="M236,-1776C236,-1776 520,-1776 520,-1776 526,-1776 532,-1782 532,-1788 532,-1788 532,-2526 532,-2526 532,-2532 526,-2538 520,-2538 520,-2538 236,-2538 236,-2538 230,-2538 224,-2532 224,-2526 224,-2526 224,-1788 224,-1788 224,-1782 230,-1776 236,-1776"/>
<text text-anchor="middle" x="378" y="-2525.2" font-family="Times,serif" font-size="11.00" fill="gray">Structure</text>
</g>
<g id="clust5" class="cluster"><title>cluster_\Duality\Structure\Http</title>
<path fill="none" stroke="gray" d="M442,-2340C442,-2340 506,-2340 506,-2340 512,-2340 518,-2346 518,-2352 518,-2352 518,-2454 518,-2454 518,-2460 512,-2466 506,-2466 506,-2466 442,-2466 442,-2466 436,-2466 430,-2460 430,-2454 430,-2454 430,-2352 430,-2352 430,-2346 436,-2340 442,-2340"/>
<text text-anchor="middle" x="474" y="-2453.2" font-family="Times,serif" font-size="11.00" fill="gray">Http</text>
</g>
<g id="clust6" class="cluster"><title>cluster_\Duality\Structure\Entity</title>
<path fill="none" stroke="gray" d="M451,-2260C451,-2260 497,-2260 497,-2260 503,-2260 509,-2266 509,-2272 509,-2272 509,-2320 509,-2320 509,-2326 503,-2332 497,-2332 497,-2332 451,-2332 451,-2332 445,-2332 439,-2326 439,-2320 439,-2320 439,-2272 439,-2272 439,-2266 445,-2260 451,-2260"/>
<text text-anchor="middle" x="474" y="-2319.2" font-family="Times,serif" font-size="11.00" fill="gray">Entity</text>
</g>
<g id="clust7" class="cluster"><title>cluster_\Duality\Structure\Database</title>
<path fill="none" stroke="gray" d="M451,-2180C451,-2180 497,-2180 497,-2180 503,-2180 509,-2186 509,-2192 509,-2192 509,-2240 509,-2240 509,-2246 503,-2252 497,-2252 497,-2252 451,-2252 451,-2252 445,-2252 439,-2246 439,-2240 439,-2240 439,-2192 439,-2192 439,-2186 445,-2180 451,-2180"/>
<text text-anchor="middle" x="474" y="-2239.2" font-family="Times,serif" font-size="11.00" fill="gray">Database</text>
</g>
<g id="clust8" class="cluster"><title>cluster_\Duality\Structure\File</title>
<path fill="none" stroke="gray" d="M436,-1992C436,-1992 512,-1992 512,-1992 518,-1992 524,-1998 524,-2004 524,-2004 524,-2160 524,-2160 524,-2166 518,-2172 512,-2172 512,-2172 436,-2172 436,-2172 430,-2172 424,-2166 424,-2160 424,-2160 424,-2004 424,-2004 424,-1998 430,-1992 436,-1992"/>
<text text-anchor="middle" x="474" y="-2159.2" font-family="Times,serif" font-size="11.00" fill="gray">File</text>
</g>
<g id="clust9" class="cluster"><title>cluster_\Duality\Service</title>
<path fill="none" stroke="gray" d="M236,-60C236,-60 519,-60 519,-60 525,-60 531,-66 531,-72 531,-72 531,-1082 531,-1082 531,-1088 525,-1094 519,-1094 519,-1094 236,-1094 236,-1094 230,-1094 224,-1088 224,-1082 224,-1082 224,-72 224,-72 224,-66 230,-60 236,-60"/>
<text text-anchor="middle" x="377.5" y="-1081.2" font-family="Times,serif" font-size="11.00" fill="gray">Service</text>
</g>
<g id="clust10" class="cluster"><title>cluster_\Duality\Service\Session</title>
<path fill="none" stroke="gray" d="M449,-940C449,-940 499,-940 499,-940 505,-940 511,-946 511,-952 511,-952 511,-1054 511,-1054 511,-1060 505,-1066 499,-1066 499,-1066 449,-1066 449,-1066 443,-1066 437,-1060 437,-1054 437,-1054 437,-952 437,-952 437,-946 443,-940 449,-940"/>
<text text-anchor="middle" x="474" y="-1053.2" font-family="Times,serif" font-size="11.00" fill="gray">Session</text>
</g>
<g id="clust11" class="cluster"><title>cluster_\Duality\Service\Database</title>
<path fill="none" stroke="gray" d="M449,-68C449,-68 499,-68 499,-68 505,-68 511,-74 511,-80 511,-80 511,-182 511,-182 511,-188 505,-194 499,-194 499,-194 449,-194 449,-194 443,-194 437,-188 437,-182 437,-182 437,-80 437,-80 437,-74 443,-68 449,-68"/>
<text text-anchor="middle" x="474" y="-181.2" font-family="Times,serif" font-size="11.00" fill="gray">Database</text>
</g>
<g id="clust12" class="cluster"><title>cluster_\Duality\Service\Cache</title>
<path fill="none" stroke="gray" d="M451,-860C451,-860 497,-860 497,-860 503,-860 509,-866 509,-872 509,-872 509,-920 509,-920 509,-926 503,-932 497,-932 497,-932 451,-932 451,-932 445,-932 439,-926 439,-920 439,-920 439,-872 439,-872 439,-866 445,-860 451,-860"/>
<text text-anchor="middle" x="474" y="-919.2" font-family="Times,serif" font-size="11.00" fill="gray">Cache</text>
</g>
<g id="clust13" class="cluster"><title>cluster_\Duality\Service\Controller</title>
<path fill="none" stroke="gray" d="M451,-680C451,-680 497,-680 497,-680 503,-680 509,-686 509,-692 509,-692 509,-740 509,-740 509,-746 503,-752 497,-752 497,-752 451,-752 451,-752 445,-752 439,-746 439,-740 439,-740 439,-692 439,-692 439,-686 445,-680 451,-680"/>
<text text-anchor="middle" x="474" y="-739.2" font-family="Times,serif" font-size="11.00" fill="gray">Controller</text>
</g>
<!-- \\Duality\\Core\\Container -->
<g id="node1" class="node"><title>\\Duality\\Core\\Container</title>
<polygon fill="none" stroke="black" points="316,-1740 232,-1740 232,-1704 316,-1704 316,-1740"/>
<text text-anchor="start" x="240" y="-1725.2" font-family="Courier,monospace" font-size="11.00">«abstract»</text>
<text text-anchor="start" x="243.5" y="-1713.2" font-family="Courier,monospace" font-size="11.00">Container</text>
</g>
<!-- \\Duality\\Core\\Structure -->
<g id="node2" class="node"><title>\\Duality\\Core\\Structure</title>
<polygon fill="none" stroke="black" points="116,-1740 32,-1740 32,-1704 116,-1704 116,-1740"/>
<text text-anchor="start" x="40" y="-1725.2" font-family="Courier,monospace" font-size="11.00">«abstract»</text>
<text text-anchor="start" x="43.5" y="-1713.2" font-family="Courier,monospace" font-size="11.00">Structure</text>
</g>
<!-- \\Duality\\Core\\AbstractService -->
<g id="node3" class="node"><title>\\Duality\\Core\\AbstractService</title>
<polygon fill="none" stroke="black" points="333,-1632 215,-1632 215,-1596 333,-1596 333,-1632"/>
<text text-anchor="start" x="240" y="-1617.2" font-family="Courier,monospace" font-size="11.00">«abstract»</text>
<text text-anchor="start" x="223" y="-1605.2" font-family="Courier,monospace" font-size="11.00">AbstractService</text>
</g>
<!-- \\Duality\\Core\\AbstractService&#45;&gt;\\Duality\\Core\\Structure -->
<g id="edge18" class="edge"><title>\\Duality\\Core\\AbstractService&#45;&gt;\\Duality\\Core\\Structure</title>
<path fill="none" stroke="black" d="M215.214,-1632.09C208.29,-1634.81 201.409,-1637.8 195,-1641 162.961,-1657.01 129.409,-1680.3 105.955,-1697.8"/>
<polygon fill="none" stroke="black" points="103.666,-1695.14 97.7925,-1703.96 107.883,-1700.73 103.666,-1695.14"/>
</g>
<!-- \\Duality\\Core\\DualityException -->
<g id="node4" class="node"><title>\\Duality\\Core\\DualityException</title>
<polygon fill="none" stroke="black" points="336.5,-1146 211.5,-1146 211.5,-1110 336.5,-1110 336.5,-1146"/>
<text text-anchor="middle" x="274" y="-1125.2" font-family="Courier,monospace" font-size="11.00">DualityException</text>
</g>
<!-- \\Exception -->
<g id="node49" class="node"><title>\\Exception</title>
<ellipse fill="none" stroke="black" cx="74" cy="-18" rx="48.9926" ry="18"/>
<text text-anchor="middle" x="74" y="-14.3" font-family="Times,serif" font-size="14.00" fill="gray">\Exception</text>
</g>
<!-- \\Duality\\Core\\DualityException&#45;&gt;\\Exception -->
<g id="edge26" class="edge"><title>\\Duality\\Core\\DualityException&#45;&gt;\\Exception</title>
<path fill="none" stroke="black" d="M211.372,-1112.14C205.107,-1108.39 199.431,-1103.74 195,-1098 128.747,-1012.13 84.6905,-209.027 76.4151,-46.5717"/>
<polygon fill="none" stroke="black" points="79.9017,-46.2154 75.9015,-36.4047 72.9106,-46.5686 79.9017,-46.2154"/>
</g>
<!-- \\Duality\\Core\\InterfaceCommander -->
<g id="node5" class="node"><title>\\Duality\\Core\\InterfaceCommander</title>
<polygon fill="none" stroke="black" points="343,-1578 205,-1578 205,-1542 343,-1542 343,-1578"/>
<text text-anchor="middle" x="274" y="-1557.2" font-family="Courier,monospace" font-size="11.00">InterfaceCommander</text>
</g>
<!-- \\Duality\\Core\\InterfaceAuth -->
<g id="node6" class="node"><title>\\Duality\\Core\\InterfaceAuth</title>
<polygon fill="none" stroke="black" points="326,-1524 222,-1524 222,-1488 326,-1488 326,-1524"/>
<text text-anchor="middle" x="274" y="-1503.2" font-family="Courier,monospace" font-size="11.00">InterfaceAuth</text>
</g>
<!-- \\Duality\\Core\\InterfacePaginator -->
<g id="node7" class="node"><title>\\Duality\\Core\\InterfacePaginator</title>
<polygon fill="none" stroke="black" points="343,-1470 205,-1470 205,-1434 343,-1434 343,-1470"/>
<text text-anchor="middle" x="274" y="-1449.2" font-family="Courier,monospace" font-size="11.00">InterfacePaginator</text>
</g>
<!-- \\Duality\\Core\\InterfaceSecurity -->
<g id="node8" class="node"><title>\\Duality\\Core\\InterfaceSecurity</title>
<polygon fill="none" stroke="black" points="339.5,-1416 208.5,-1416 208.5,-1380 339.5,-1380 339.5,-1416"/>
<text text-anchor="middle" x="274" y="-1395.2" font-family="Courier,monospace" font-size="11.00">InterfaceSecurity</text>
</g>
<!-- \\Duality\\Core\\InterfaceStorage -->
<g id="node9" class="node"><title>\\Duality\\Core\\InterfaceStorage</title>
<polygon fill="none" stroke="black" points="336.5,-1686 211.5,-1686 211.5,-1650 336.5,-1650 336.5,-1686"/>
<text text-anchor="middle" x="274" y="-1665.2" font-family="Courier,monospace" font-size="11.00">InterfaceStorage</text>
</g>
<!-- \\Duality\\Core\\InterfaceMailer -->
<g id="node10" class="node"><title>\\Duality\\Core\\InterfaceMailer</title>
<polygon fill="none" stroke="black" points="333,-1308 215,-1308 215,-1272 333,-1272 333,-1308"/>
<text text-anchor="middle" x="274" y="-1287.2" font-family="Courier,monospace" font-size="11.00">InterfaceMailer</text>
</g>
<!-- \\Duality\\Core\\InterfaceRemote -->
<g id="node11" class="node"><title>\\Duality\\Core\\InterfaceRemote</title>
<polygon fill="none" stroke="black" points="333,-1254 215,-1254 215,-1218 333,-1218 333,-1254"/>
<text text-anchor="middle" x="274" y="-1233.2" font-family="Courier,monospace" font-size="11.00">InterfaceRemote</text>
</g>
<!-- \\Duality\\Core\\InterfaceValidator -->
<g id="node12" class="node"><title>\\Duality\\Core\\InterfaceValidator</title>
<polygon fill="none" stroke="black" points="343,-1200 205,-1200 205,-1164 343,-1164 343,-1200"/>
<text text-anchor="middle" x="274" y="-1179.2" font-family="Courier,monospace" font-size="11.00">InterfaceValidator</text>
</g>
<!-- \\Duality\\Core\\InterfaceErrorHandler -->
<g id="node13" class="node"><title>\\Duality\\Core\\InterfaceErrorHandler</title>
<polygon fill="none" stroke="black" points="353,-1362 195,-1362 195,-1326 353,-1326 353,-1362"/>
<text text-anchor="middle" x="274" y="-1341.2" font-family="Courier,monospace" font-size="11.00">InterfaceErrorHandler</text>
</g>
<!-- \\Duality\\Structure\\Http\\Response -->
<g id="node14" class="node"><title>\\Duality\\Structure\\Http\\Response</title>
<polygon fill="none" stroke="black" points="509.5,-2438 438.5,-2438 438.5,-2402 509.5,-2402 509.5,-2438"/>
<text text-anchor="middle" x="474" y="-2417.2" font-family="Courier,monospace" font-size="11.00">Response</text>
</g>
<!-- \\Duality\\Structure\\Http -->
<g id="node28" class="node"><title>\\Duality\\Structure\\Http</title>
<polygon fill="none" stroke="black" points="316,-2384 232,-2384 232,-2348 316,-2348 316,-2384"/>
<text text-anchor="start" x="240" y="-2369.2" font-family="Courier,monospace" font-size="11.00">«abstract»</text>
<text text-anchor="start" x="260" y="-2357.2" font-family="Courier,monospace" font-size="11.00">Http</text>
</g>
<!-- \\Duality\\Structure\\Http\\Response&#45;&gt;\\Duality\\Structure\\Http -->
<g id="edge2" class="edge"><title>\\Duality\\Structure\\Http\\Response&#45;&gt;\\Duality\\Structure\\Http</title>
<path fill="none" stroke="black" d="M438.057,-2410.47C407.037,-2402.01 361.311,-2389.54 326.169,-2379.96"/>
<polygon fill="none" stroke="black" points="326.665,-2376.46 316.096,-2377.21 324.823,-2383.22 326.665,-2376.46"/>
</g>
<!-- \\Duality\\Structure\\Http\\Request -->
<g id="node15" class="node"><title>\\Duality\\Structure\\Http\\Request</title>
<polygon fill="none" stroke="black" points="506,-2384 442,-2384 442,-2348 506,-2348 506,-2384"/>
<text text-anchor="middle" x="474" y="-2363.2" font-family="Courier,monospace" font-size="11.00">Request</text>
</g>
<!-- \\Duality\\Structure\\Http\\Request&#45;&gt;\\Duality\\Structure\\Http -->
<g id="edge45" class="edge"><title>\\Duality\\Structure\\Http\\Request&#45;&gt;\\Duality\\Structure\\Http</title>
<path fill="none" stroke="black" d="M441.626,-2366C410.76,-2366 363.095,-2366 326.639,-2366"/>
<polygon fill="none" stroke="black" points="326.198,-2362.5 316.198,-2366 326.198,-2369.5 326.198,-2362.5"/>
</g>
<!-- \\Duality\\Structure\\Entity\\User -->
<g id="node16" class="node"><title>\\Duality\\Structure\\Entity\\User</title>
<polygon fill="none" stroke="black" points="501,-2304 447,-2304 447,-2268 501,-2268 501,-2304"/>
<text text-anchor="middle" x="474" y="-2283.2" font-family="Courier,monospace" font-size="11.00">User</text>
</g>
<!-- \\Duality\\Structure\\Entity -->
<g id="node24" class="node"><title>\\Duality\\Structure\\Entity</title>
<polygon fill="none" stroke="black" points="316,-2258 232,-2258 232,-2222 316,-2222 316,-2258"/>
<text text-anchor="start" x="240" y="-2243.2" font-family="Courier,monospace" font-size="11.00">«abstract»</text>
<text text-anchor="start" x="253.5" y="-2231.2" font-family="Courier,monospace" font-size="11.00">Entity</text>
</g>
<!-- \\Duality\\Structure\\Entity\\User&#45;&gt;\\Duality\\Structure\\Entity -->
<g id="edge6" class="edge"><title>\\Duality\\Structure\\Entity\\User&#45;&gt;\\Duality\\Structure\\Entity</title>
<path fill="none" stroke="black" d="M446.707,-2279.89C416.096,-2272.78 364.815,-2260.87 326.248,-2251.91"/>
<polygon fill="none" stroke="black" points="326.77,-2248.43 316.237,-2249.58 325.186,-2255.25 326.77,-2248.43"/>
</g>
<!-- \\Duality\\Structure\\Database\\Table -->
<g id="node17" class="node"><title>\\Duality\\Structure\\Database\\Table</title>
<polygon fill="none" stroke="black" points="501,-2224 447,-2224 447,-2188 501,-2188 501,-2224"/>
<text text-anchor="middle" x="474" y="-2203.2" font-family="Courier,monospace" font-size="11.00">Table</text>
</g>
<!-- \\Duality\\Structure\\Table -->
<g id="node27" class="node"><title>\\Duality\\Structure\\Table</title>
<polygon fill="none" stroke="black" points="301,-2157 247,-2157 247,-2121 301,-2121 301,-2157"/>
<text text-anchor="middle" x="274" y="-2136.2" font-family="Courier,monospace" font-size="11.00">Table</text>
</g>
<!-- \\Duality\\Structure\\Database\\Table&#45;&gt;\\Duality\\Structure\\Table -->
<g id="edge7" class="edge"><title>\\Duality\\Structure\\Database\\Table&#45;&gt;\\Duality\\Structure\\Table</title>
<path fill="none" stroke="black" d="M446.707,-2197.1C411.773,-2185.28 349.919,-2164.35 310.763,-2151.1"/>
<polygon fill="none" stroke="black" points="311.681,-2147.72 301.086,-2147.83 309.437,-2154.35 311.681,-2147.72"/>
</g>
<!-- \\Duality\\Structure\\File\\StreamFile -->
<g id="node18" class="node"><title>\\Duality\\Structure\\File\\StreamFile</title>
<polygon fill="none" stroke="black" points="516,-2144 432,-2144 432,-2108 516,-2108 516,-2144"/>
<text text-anchor="middle" x="474" y="-2123.2" font-family="Courier,monospace" font-size="11.00">StreamFile</text>
</g>
<!-- \\Duality\\Structure\\File -->
<g id="node29" class="node"><title>\\Duality\\Structure\\File</title>
<polygon fill="none" stroke="black" points="316,-2063 232,-2063 232,-2027 316,-2027 316,-2063"/>
<text text-anchor="start" x="240" y="-2048.2" font-family="Courier,monospace" font-size="11.00">«abstract»</text>
<text text-anchor="start" x="260" y="-2036.2" font-family="Courier,monospace" font-size="11.00">File</text>
</g>
<!-- \\Duality\\Structure\\File\\StreamFile&#45;&gt;\\Duality\\Structure\\File -->
<g id="edge19" class="edge"><title>\\Duality\\Structure\\File\\StreamFile&#45;&gt;\\Duality\\Structure\\File</title>
<path fill="none" stroke="black" d="M431.974,-2109.22C401.149,-2096.61 358.745,-2079.26 325.779,-2065.77"/>
<polygon fill="none" stroke="black" points="326.894,-2062.45 316.313,-2061.9 324.244,-2068.93 326.894,-2062.45"/>
</g>
<!-- \\Duality\\Structure\\File\\TextFile -->
<g id="node19" class="node"><title>\\Duality\\Structure\\File\\TextFile</title>
<polygon fill="none" stroke="black" points="509.5,-2090 438.5,-2090 438.5,-2054 509.5,-2054 509.5,-2090"/>
<text text-anchor="middle" x="474" y="-2069.2" font-family="Courier,monospace" font-size="11.00">TextFile</text>
</g>
<!-- \\Duality\\Structure\\File\\TextFile&#45;&gt;\\Duality\\Structure\\File -->
<g id="edge22" class="edge"><title>\\Duality\\Structure\\File\\TextFile&#45;&gt;\\Duality\\Structure\\File</title>
<path fill="none" stroke="black" d="M438.057,-2067.24C407.037,-2063 361.311,-2056.77 326.169,-2051.98"/>
<polygon fill="none" stroke="black" points="326.477,-2048.49 316.096,-2050.6 325.532,-2055.42 326.477,-2048.49"/>
</g>
<!-- \\Duality\\Structure\\File\\ImageFile -->
<g id="node20" class="node"><title>\\Duality\\Structure\\File\\ImageFile</title>
<polygon fill="none" stroke="black" points="512.5,-2036 435.5,-2036 435.5,-2000 512.5,-2000 512.5,-2036"/>
<text text-anchor="middle" x="474" y="-2015.2" font-family="Courier,monospace" font-size="11.00">ImageFile</text>
</g>
<!-- \\Duality\\Structure\\File\\ImageFile&#45;&gt;\\Duality\\Structure\\File -->
<g id="edge31" class="edge"><title>\\Duality\\Structure\\File\\ImageFile&#45;&gt;\\Duality\\Structure\\File</title>
<path fill="none" stroke="black" d="M435.292,-2023.14C404.481,-2027.34 360.614,-2033.33 326.557,-2037.97"/>
<polygon fill="none" stroke="black" points="325.763,-2034.55 316.327,-2039.36 326.709,-2041.48 325.763,-2034.55"/>
</g>
<!-- \\Duality\\Structure\\HtmlDoc -->
<g id="node21" class="node"><title>\\Duality\\Structure\\HtmlDoc</title>
<polygon fill="none" stroke="black" points="506,-2510 442,-2510 442,-2474 506,-2474 506,-2510"/>
<text text-anchor="middle" x="474" y="-2489.2" font-family="Courier,monospace" font-size="11.00">HtmlDoc</text>
</g>
<!-- \\Duality\\Structure\\HtmlDoc&#45;&gt;\\Duality\\Core\\Structure -->
<g id="edge1" class="edge"><title>\\Duality\\Structure\\HtmlDoc&#45;&gt;\\Duality\\Core\\Structure</title>
<path fill="none" stroke="black" d="M441.938,-2490.64C383.815,-2486.31 258.748,-2468.25 195,-2393 110.43,-2293.17 82.4275,-1865.2 76.3663,-1750.42"/>
<polygon fill="none" stroke="black" points="79.8556,-1750.12 75.8471,-1740.31 72.8648,-1750.48 79.8556,-1750.12"/>
</g>
<!-- \\Duality\\Structure\\TableRow -->
<g id="node22" class="node"><title>\\Duality\\Structure\\TableRow</title>
<polygon fill="none" stroke="black" points="509.5,-1874 438.5,-1874 438.5,-1838 509.5,-1838 509.5,-1874"/>
<text text-anchor="middle" x="474" y="-1853.2" font-family="Courier,monospace" font-size="11.00">TableRow</text>
</g>
<!-- \\Duality\\Structure\\TableRow&#45;&gt;\\Duality\\Core\\Structure -->
<g id="edge5" class="edge"><title>\\Duality\\Structure\\TableRow&#45;&gt;\\Duality\\Core\\Structure</title>
<path fill="none" stroke="black" d="M438.488,-1870.74C390.113,-1890.49 304.73,-1921.78 275,-1910"/>
<path fill="none" stroke="black" d="M273,-1910C190.543,-1877.33 122.848,-1791.99 92.3847,-1748.42"/>
<polygon fill="none" stroke="black" points="95.1747,-1746.3 86.6261,-1740.04 89.4058,-1750.26 95.1747,-1746.3"/>
</g>
<!-- \\Duality\\Structure\\Url -->
<g id="node23" class="node"><title>\\Duality\\Structure\\Url</title>
<polygon fill="none" stroke="black" points="501,-1928 447,-1928 447,-1892 501,-1892 501,-1928"/>
<text text-anchor="middle" x="474" y="-1907.2" font-family="Courier,monospace" font-size="11.00">Url</text>
</g>
<!-- \\Duality\\Structure\\Url&#45;&gt;\\Duality\\Core\\Structure -->
<g id="edge13" class="edge"><title>\\Duality\\Structure\\Url&#45;&gt;\\Duality\\Core\\Structure</title>
<path fill="none" stroke="black" d="M446.869,-1915.9C407.872,-1923.43 332.844,-1932.92 275,-1910"/>
</g>
<!-- \\Duality\\Structure\\Entity&#45;&gt;\\Duality\\Core\\Structure -->
<g id="edge23" class="edge"><title>\\Duality\\Structure\\Entity&#45;&gt;\\Duality\\Core\\Structure</title>
<path fill="none" stroke="black" d="M247.344,-2221.72C230.145,-2208.18 208.292,-2188.28 195,-2166 110.96,-2025.11 84.522,-1824.39 77.3583,-1750.62"/>
<polygon fill="none" stroke="black" points="80.8088,-1749.92 76.4022,-1740.28 73.8386,-1750.56 80.8088,-1749.92"/>
</g>
<!-- \\Duality\\Structure\\Storage -->
<g id="node25" class="node"><title>\\Duality\\Structure\\Storage</title>
<polygon fill="none" stroke="black" points="506,-1820 442,-1820 442,-1784 506,-1784 506,-1820"/>
<text text-anchor="middle" x="474" y="-1799.2" font-family="Courier,monospace" font-size="11.00">Storage</text>
</g>
<!-- \\Duality\\Structure\\Storage&#45;&gt;\\Duality\\Core\\InterfaceStorage -->
<g id="edge27" class="edge"><title>\\Duality\\Structure\\Storage&#45;&gt;\\Duality\\Core\\InterfaceStorage</title>
<path fill="none" stroke="black" stroke-dasharray="1,5" d="M441.812,-1790.89C435.567,-1787.89 429.304,-1784.27 424,-1780 387.362,-1750.52 399.31,-1722.27 361,-1695 356.458,-1691.77 351.515,-1688.91 346.37,-1686.39"/>
<polygon fill="none" stroke="black" points="347.495,-1683.06 336.934,-1682.2 344.656,-1689.46 347.495,-1683.06"/>
</g>
<!-- \\Duality\\Structure\\Property -->
<g id="node26" class="node"><title>\\Duality\\Structure\\Property</title>
<polygon fill="none" stroke="black" points="509.5,-1982 438.5,-1982 438.5,-1946 509.5,-1946 509.5,-1982"/>
<text text-anchor="middle" x="474" y="-1961.2" font-family="Courier,monospace" font-size="11.00">Property</text>
</g>
<!-- \\Duality\\Structure\\Property&#45;&gt;\\Duality\\Core\\Structure -->
<g id="edge28" class="edge"><title>\\Duality\\Structure\\Property&#45;&gt;\\Duality\\Core\\Structure</title>
<path fill="none" stroke="black" d="M438.264,-1956.98C398.127,-1948.32 330.485,-1931.98 275,-1910"/>
</g>
<!-- \\Duality\\Structure\\Table&#45;&gt;\\Duality\\Core\\Structure -->
<g id="edge29" class="edge"><title>\\Duality\\Structure\\Table&#45;&gt;\\Duality\\Core\\Structure</title>
<path fill="none" stroke="black" d="M246.631,-2121.88C229.785,-2109.75 208.622,-2092.1 195,-2072 123.109,-1965.94 90.3972,-1812.68 79.4545,-1750.16"/>
<polygon fill="none" stroke="black" points="82.8958,-1749.51 77.7705,-1740.24 75.9947,-1750.69 82.8958,-1749.51"/>
</g>
<!-- \\Duality\\Structure\\Http&#45;&gt;\\Duality\\Core\\Structure -->
<g id="edge30" class="edge"><title>\\Duality\\Structure\\Http&#45;&gt;\\Duality\\Core\\Structure</title>
<path fill="none" stroke="black" d="M254.301,-2347.68C236.367,-2329.02 209.882,-2298.45 195,-2267 107.94,-2083.04 82.9573,-1834.01 76.795,-1750.57"/>
<polygon fill="none" stroke="black" points="80.2694,-1750.08 76.0749,-1740.36 73.2868,-1750.58 80.2694,-1750.08"/>
</g>
<!-- \\Duality\\Structure\\File&#45;&gt;\\Duality\\Core\\Structure -->
<g id="edge44" class="edge"><title>\\Duality\\Structure\\File&#45;&gt;\\Duality\\Core\\Structure</title>
<path fill="none" stroke="black" d="M261.787,-2026.71C228.571,-1972.52 130.568,-1812.65 91.4233,-1748.79"/>
<polygon fill="none" stroke="black" points="94.2999,-1746.79 86.0897,-1740.09 88.332,-1750.45 94.2999,-1746.79"/>
</g>
<!-- \\Duality\\Service\\Session\\Native -->
<g id="node30" class="node"><title>\\Duality\\Service\\Session\\Native</title>
<polygon fill="none" stroke="black" points="502.5,-1038 445.5,-1038 445.5,-1002 502.5,-1002 502.5,-1038"/>
<text text-anchor="middle" x="474" y="-1017.2" font-family="Courier,monospace" font-size="11.00">Native</text>
</g>
<!-- \\Duality\\Service\\Session\\Native&#45;&gt;\\Duality\\Core\\AbstractService -->
<g id="edge3" class="edge"><title>\\Duality\\Service\\Session\\Native&#45;&gt;\\Duality\\Core\\AbstractService</title>
<path fill="none" stroke="black" d="M445.445,-1026.68C437.33,-1029.98 429.233,-1034.85 424,-1042 279.964,-1238.75 516.367,-1399.07 361,-1587 355.952,-1593.11 349.537,-1597.85 342.494,-1601.54"/>
<polygon fill="none" stroke="black" points="340.985,-1598.38 333.292,-1605.66 343.849,-1604.77 340.985,-1598.38"/>
</g>
<!-- \\Duality\\Service\\Session\\Native&#45;&gt;\\Duality\\Core\\InterfaceStorage -->
<g id="edge4" class="edge"><title>\\Duality\\Service\\Session\\Native&#45;&gt;\\Duality\\Core\\InterfaceStorage</title>
<path fill="none" stroke="black" stroke-dasharray="1,5" d="M445.401,-1026.65C437.284,-1029.95 429.196,-1034.83 424,-1042 266.986,-1258.81 530.503,-1433.81 361,-1641 356.838,-1646.09 351.727,-1650.23 346.09,-1653.61"/>
<polygon fill="none" stroke="black" points="344.188,-1650.65 336.861,-1658.3 347.361,-1656.89 344.188,-1650.65"/>
</g>
<!-- \\Duality\\Service\\Session\\Dummy -->
<g id="node31" class="node"><title>\\Duality\\Service\\Session\\Dummy</title>
<polygon fill="none" stroke="black" points="501,-984 447,-984 447,-948 501,-948 501,-984"/>
<text text-anchor="middle" x="474" y="-963.2" font-family="Courier,monospace" font-size="11.00">Dummy</text>
</g>
<!-- \\Duality\\Service\\Session\\Dummy&#45;&gt;\\Duality\\Core\\AbstractService -->
<g id="edge16" class="edge"><title>\\Duality\\Service\\Session\\Dummy&#45;&gt;\\Duality\\Core\\AbstractService</title>
<path fill="none" stroke="black" d="M446.833,-974.722C438.201,-978.903 429.429,-984.829 424,-993 277.088,-1214.13 529.194,-1381.6 361,-1587 355.981,-1593.13 349.584,-1597.89 342.55,-1601.58"/>
<polygon fill="none" stroke="black" points="341.042,-1598.43 333.355,-1605.72 343.911,-1604.81 341.042,-1598.43"/>
</g>
<!-- \\Duality\\Service\\Session\\Dummy&#45;&gt;\\Duality\\Core\\InterfaceStorage -->
<g id="edge17" class="edge"><title>\\Duality\\Service\\Session\\Dummy&#45;&gt;\\Duality\\Core\\InterfaceStorage</title>
<path fill="none" stroke="black" stroke-dasharray="1,5" d="M446.794,-974.696C438.158,-978.874 429.393,-984.805 424,-993 344.465,-1113.86 452.17,-1528.66 361,-1641 356.858,-1646.1 351.761,-1650.26 346.132,-1653.64"/>
<polygon fill="none" stroke="black" points="344.231,-1650.68 336.912,-1658.34 347.411,-1656.92 344.231,-1650.68"/>
</g>
<!-- \\Duality\\Service\\Database\\MySql -->
<g id="node32" class="node"><title>\\Duality\\Service\\Database\\MySql</title>
<polygon fill="none" stroke="black" points="501,-166 447,-166 447,-130 501,-130 501,-166"/>
<text text-anchor="middle" x="474" y="-145.2" font-family="Courier,monospace" font-size="11.00">MySql</text>
</g>
<!-- \\Duality\\Service\\Database -->
<g id="node43" class="node"><title>\\Duality\\Service\\Database</title>
<polygon fill="none" stroke="black" points="316,-166 232,-166 232,-130 316,-130 316,-166"/>
<text text-anchor="start" x="240" y="-151.2" font-family="Courier,monospace" font-size="11.00">«abstract»</text>
<text text-anchor="start" x="246.5" y="-139.2" font-family="Courier,monospace" font-size="11.00">Database</text>
</g>
<!-- \\Duality\\Service\\Database\\MySql&#45;&gt;\\Duality\\Service\\Database -->
<g id="edge8" class="edge"><title>\\Duality\\Service\\Database\\MySql&#45;&gt;\\Duality\\Service\\Database</title>
<path fill="none" stroke="black" d="M446.707,-148C416.096,-148 364.815,-148 326.248,-148"/>
<polygon fill="none" stroke="black" points="326.237,-144.5 316.237,-148 326.237,-151.5 326.237,-144.5"/>
</g>
<!-- \\Duality\\Service\\Database\\SQLite -->
<g id="node33" class="node"><title>\\Duality\\Service\\Database\\SQLite</title>
<polygon fill="none" stroke="black" points="502.5,-112 445.5,-112 445.5,-76 502.5,-76 502.5,-112"/>
<text text-anchor="middle" x="474" y="-91.2" font-family="Courier,monospace" font-size="11.00">SQLite</text>
</g>
<!-- \\Duality\\Service\\Database\\SQLite&#45;&gt;\\Duality\\Service\\Database -->
<g id="edge25" class="edge"><title>\\Duality\\Service\\Database\\SQLite&#45;&gt;\\Duality\\Service\\Database</title>
<path fill="none" stroke="black" d="M445.469,-101.508C414.645,-109.915 364.03,-123.719 325.943,-134.106"/>
<polygon fill="none" stroke="black" points="324.782,-130.795 316.056,-136.803 326.624,-137.548 324.782,-130.795"/>
</g>
<!-- \\Duality\\Service\\Cache\\APC -->
<g id="node34" class="node"><title>\\Duality\\Service\\Cache\\APC</title>
<polygon fill="none" stroke="black" points="501,-904 447,-904 447,-868 501,-868 501,-904"/>
<text text-anchor="middle" x="474" y="-883.2" font-family="Courier,monospace" font-size="11.00">APC</text>
</g>
<!-- \\Duality\\Service\\Cache\\APC&#45;&gt;\\Duality\\Core\\AbstractService -->
<g id="edge40" class="edge"><title>\\Duality\\Service\\Cache\\APC&#45;&gt;\\Duality\\Core\\AbstractService</title>
<path fill="none" stroke="black" d="M449.13,-904.181C439.665,-912.746 429.696,-923.77 424,-936 362.634,-1067.75 452.563,-1474.13 361,-1587 356.009,-1593.15 349.629,-1597.93 342.604,-1601.63"/>
<polygon fill="none" stroke="black" points="341.098,-1598.47 333.417,-1605.77 343.973,-1604.85 341.098,-1598.47"/>
</g>
<!-- \\Duality\\Service\\Cache\\APC&#45;&gt;\\Duality\\Core\\InterfaceStorage -->
<g id="edge41" class="edge"><title>\\Duality\\Service\\Cache\\APC&#45;&gt;\\Duality\\Core\\InterfaceStorage</title>
<path fill="none" stroke="black" stroke-dasharray="1,5" d="M449.087,-904.161C439.614,-912.722 429.651,-923.75 424,-936 358.114,-1078.83 459.641,-1518.48 361,-1641 356.714,-1646.32 351.388,-1650.62 345.501,-1654.08"/>
<polygon fill="none" stroke="black" points="343.903,-1650.96 336.53,-1658.57 347.038,-1657.22 343.903,-1650.96"/>
</g>
<!-- \\Duality\\Service\\Controller\\Base -->
<g id="node35" class="node"><title>\\Duality\\Service\\Controller\\Base</title>
<polygon fill="none" stroke="black" points="501,-724 447,-724 447,-688 501,-688 501,-724"/>
<text text-anchor="middle" x="474" y="-703.2" font-family="Courier,monospace" font-size="11.00">Base</text>
</g>
<!-- \\Duality\\Service\\Controller\\Base&#45;&gt;\\Duality\\Core\\AbstractService -->
<g id="edge43" class="edge"><title>\\Duality\\Service\\Controller\\Base&#45;&gt;\\Duality\\Core\\AbstractService</title>
<path fill="none" stroke="black" d="M446.805,-711.945C438.17,-715.234 429.403,-720.286 424,-728 314.195,-884.772 479.843,-1436.96 361,-1587 356.013,-1593.3 349.568,-1598.15 342.451,-1601.9"/>
<polygon fill="none" stroke="black" points="340.834,-1598.78 333.135,-1606.06 343.693,-1605.17 340.834,-1598.78"/>
</g>
<!-- \\Duality\\Service\\Auth -->
<g id="node36" class="node"><title>\\Duality\\Service\\Auth</title>
<polygon fill="none" stroke="black" points="501,-400 447,-400 447,-364 501,-364 501,-400"/>
<text text-anchor="middle" x="474" y="-379.2" font-family="Courier,monospace" font-size="11.00">Auth</text>
</g>
<!-- \\Duality\\Service\\Auth&#45;&gt;\\Duality\\Core\\AbstractService -->
<g id="edge9" class="edge"><title>\\Duality\\Service\\Auth&#45;&gt;\\Duality\\Core\\AbstractService</title>
<path fill="none" stroke="black" d="M446.854,-390.446C438.113,-394.617 429.265,-400.608 424,-409 284.682,-631.068 521.732,-1379.9 361,-1587 356.075,-1593.35 349.668,-1598.23 342.571,-1601.99"/>
<polygon fill="none" stroke="black" points="340.957,-1598.88 333.272,-1606.17 343.828,-1605.26 340.957,-1598.88"/>
</g>
<!-- \\Duality\\Service\\Auth&#45;&gt;\\Duality\\Core\\InterfaceAuth -->
<g id="edge10" class="edge"><title>\\Duality\\Service\\Auth&#45;&gt;\\Duality\\Core\\InterfaceAuth</title>
<path fill="none" stroke="black" stroke-dasharray="1,5" d="M446.878,-390.461C438.141,-394.634 429.288,-400.622 424,-409 296.874,-610.428 507.545,-1291.23 361,-1479 354.506,-1487.32 345.465,-1493.13 335.669,-1497.18"/>
<polygon fill="none" stroke="black" points="334.378,-1493.92 326.105,-1500.54 336.699,-1500.52 334.378,-1493.92"/>
</g>
<!-- \\Duality\\Service\\Client -->
<g id="node37" class="node"><title>\\Duality\\Service\\Client</title>
<polygon fill="none" stroke="black" points="502.5,-670 445.5,-670 445.5,-634 502.5,-634 502.5,-670"/>
<text text-anchor="middle" x="474" y="-649.2" font-family="Courier,monospace" font-size="11.00">Client</text>
</g>
<!-- \\Duality\\Service\\Client&#45;&gt;\\Duality\\Core\\AbstractService -->
<g id="edge11" class="edge"><title>\\Duality\\Service\\Client&#45;&gt;\\Duality\\Core\\AbstractService</title>
<path fill="none" stroke="black" d="M445.452,-659.564C437.236,-663.194 429.076,-668.455 424,-676 310.729,-844.373 486.668,-1427.67 361,-1587 356.026,-1593.31 349.589,-1598.17 342.476,-1601.91"/>
<polygon fill="none" stroke="black" points="340.86,-1598.8 333.164,-1606.08 343.721,-1605.19 340.86,-1598.8"/>
</g>
<!-- \\Duality\\Service\\SSH -->
<g id="node38" class="node"><title>\\Duality\\Service\\SSH</title>
<polygon fill="none" stroke="black" points="501,-616 447,-616 447,-580 501,-580 501,-616"/>
<text text-anchor="middle" x="474" y="-595.2" font-family="Courier,monospace" font-size="11.00">SSH</text>
</g>
<!-- \\Duality\\Service\\SSH&#45;&gt;\\Duality\\Core\\AbstractService -->
<g id="edge12" class="edge"><title>\\Duality\\Service\\SSH&#45;&gt;\\Duality\\Core\\AbstractService</title>
<path fill="none" stroke="black" d="M446.908,-606.48C438.174,-610.655 429.315,-616.639 424,-625 309.063,-805.794 493.363,-1418.55 361,-1587 356.037,-1593.32 349.607,-1598.18 342.498,-1601.93"/>
<polygon fill="none" stroke="black" points="340.883,-1598.82 333.189,-1606.1 343.746,-1605.21 340.883,-1598.82"/>
</g>
<!-- \\Duality\\Service\\Security -->
<g id="node39" class="node"><title>\\Duality\\Service\\Security</title>
<polygon fill="none" stroke="black" points="509.5,-346 438.5,-346 438.5,-310 509.5,-310 509.5,-346"/>
<text text-anchor="middle" x="474" y="-325.2" font-family="Courier,monospace" font-size="11.00">Security</text>
</g>
<!-- \\Duality\\Service\\Security&#45;&gt;\\Duality\\Core\\AbstractService -->
<g id="edge14" class="edge"><title>\\Duality\\Service\\Security&#45;&gt;\\Duality\\Core\\AbstractService</title>
<path fill="none" stroke="black" d="M438.204,-341.238C432.603,-344.871 427.504,-349.401 424,-355 278.585,-587.389 528.826,-1370.24 361,-1587 356.083,-1593.35 349.68,-1598.24 342.585,-1602"/>
<polygon fill="none" stroke="black" points="340.972,-1598.89 333.288,-1606.18 343.844,-1605.27 340.972,-1598.89"/>
</g>
<!-- \\Duality\\Service\\Security&#45;&gt;\\Duality\\Core\\InterfaceSecurity -->
<g id="edge15" class="edge"><title>\\Duality\\Service\\Security&#45;&gt;\\Duality\\Core\\InterfaceSecurity</title>
<path fill="none" stroke="black" stroke-dasharray="1,5" d="M438.253,-341.269C432.648,-344.899 427.534,-349.42 424,-355 302.969,-546.11 500.454,-1192.89 361,-1371 357.503,-1375.47 353.272,-1379.21 348.585,-1382.34"/>
<polygon fill="none" stroke="black" points="346.7,-1379.39 339.715,-1387.36 350.144,-1385.48 346.7,-1379.39"/>
</g>
<!-- \\Duality\\Service\\Localization -->
<g id="node40" class="node"><title>\\Duality\\Service\\Localization</title>
<polygon fill="none" stroke="black" points="523,-562 425,-562 425,-526 523,-526 523,-562"/>
<text text-anchor="middle" x="474" y="-541.2" font-family="Courier,monospace" font-size="11.00">Localization</text>
</g>
<!-- \\Duality\\Service\\Localization&#45;&gt;\\Duality\\Core\\AbstractService -->
<g id="edge21" class="edge"><title>\\Duality\\Service\\Localization&#45;&gt;\\Duality\\Core\\AbstractService</title>
<path fill="none" stroke="black" d="M431.655,-562.218C428.704,-564.802 426.079,-567.718 424,-571 302.969,-762.11 500.454,-1408.89 361,-1587 356.048,-1593.32 349.625,-1598.2 342.519,-1601.95"/>
<polygon fill="none" stroke="black" points="340.904,-1598.84 333.213,-1606.12 343.77,-1605.22 340.904,-1598.84"/>
</g>
<!-- \\Duality\\Service\\Paginator -->
<g id="node41" class="node"><title>\\Duality\\Service\\Paginator</title>
<polygon fill="none" stroke="black" points="512.5,-508 435.5,-508 435.5,-472 512.5,-472 512.5,-508"/>
<text text-anchor="middle" x="474" y="-487.2" font-family="Courier,monospace" font-size="11.00">Paginator</text>
</g>
<!-- \\Duality\\Service\\Paginator&#45;&gt;\\Duality\\Core\\AbstractService -->
<g id="edge24" class="edge"><title>\\Duality\\Service\\Paginator&#45;&gt;\\Duality\\Core\\AbstractService</title>
<path fill="none" stroke="black" d="M435.324,-505.267C430.881,-508.521 426.903,-512.4 424,-517 296.874,-718.428 507.545,-1399.23 361,-1587 356.058,-1593.33 349.641,-1598.21 342.538,-1601.96"/>
<polygon fill="none" stroke="black" points="340.924,-1598.85 333.234,-1606.14 343.791,-1605.24 340.924,-1598.85"/>
</g>
<!-- \\Duality\\Service\\Mailer -->
<g id="node42" class="node"><title>\\Duality\\Service\\Mailer</title>
<polygon fill="none" stroke="black" points="502.5,-238 445.5,-238 445.5,-202 502.5,-202 502.5,-238"/>
<text text-anchor="middle" x="474" y="-217.2" font-family="Courier,monospace" font-size="11.00">Mailer</text>
</g>
<!-- \\Duality\\Service\\Mailer&#45;&gt;\\Duality\\Core\\AbstractService -->
<g id="edge32" class="edge"><title>\\Duality\\Service\\Mailer&#45;&gt;\\Duality\\Core\\AbstractService</title>
<path fill="none" stroke="black" d="M445.281,-229.182C437.053,-233.31 428.93,-239.085 424,-247 345.195,-373.517 452.008,-1468.96 361,-1587 356.096,-1593.36 349.701,-1598.26 342.61,-1602.02"/>
<polygon fill="none" stroke="black" points="340.998,-1598.91 333.316,-1606.2 343.872,-1605.29 340.998,-1598.91"/>
</g>
<!-- \\Duality\\Service\\Mailer&#45;&gt;\\Duality\\Core\\InterfaceMailer -->
<g id="edge33" class="edge"><title>\\Duality\\Service\\Mailer&#45;&gt;\\Duality\\Core\\InterfaceMailer</title>
<path fill="none" stroke="black" stroke-dasharray="1,5" d="M445.35,-229.226C437.127,-233.356 428.989,-239.122 424,-247 302.969,-438.11 500.454,-1084.89 361,-1263 356.048,-1269.32 349.625,-1274.2 342.519,-1277.95"/>
<polygon fill="none" stroke="black" points="340.904,-1274.84 333.213,-1282.12 343.77,-1281.22 340.904,-1274.84"/>
</g>
<!-- \\Duality\\Service\\Database&#45;&gt;\\Duality\\Core\\AbstractService -->
<g id="edge34" class="edge"><title>\\Duality\\Service\\Database&#45;&gt;\\Duality\\Core\\AbstractService</title>
<path fill="none" stroke="black" d="M277.099,-166.206C293.364,-262.797 369.002,-725.231 392.5,-1107 398.93,-1211.47 454.833,-1493.92 392.5,-1578 380.724,-1593.89 362.115,-1603 343.102,-1608.17"/>
<polygon fill="none" stroke="black" points="342.082,-1604.81 333.157,-1610.52 343.695,-1611.62 342.082,-1604.81"/>
</g>
<!-- \\Duality\\Service\\Validator -->
<g id="node44" class="node"><title>\\Duality\\Service\\Validator</title>
<polygon fill="none" stroke="black" points="512.5,-850 435.5,-850 435.5,-814 512.5,-814 512.5,-850"/>
<text text-anchor="middle" x="474" y="-829.2" font-family="Courier,monospace" font-size="11.00">Validator</text>
</g>
<!-- \\Duality\\Service\\Validator&#45;&gt;\\Duality\\Core\\AbstractService -->
<g id="edge35" class="edge"><title>\\Duality\\Service\\Validator&#45;&gt;\\Duality\\Core\\AbstractService</title>
<path fill="none" stroke="black" d="M435.498,-845.044C431.029,-848.014 426.998,-851.624 424,-856 331.848,-990.508 463.05,-1459.84 361,-1587 355.973,-1593.26 349.504,-1598.1 342.374,-1601.83"/>
<polygon fill="none" stroke="black" points="340.756,-1598.72 333.048,-1605.99 343.607,-1605.12 340.756,-1598.72"/>
</g>
<!-- \\Duality\\Service\\Logger -->
<g id="node45" class="node"><title>\\Duality\\Service\\Logger</title>
<polygon fill="none" stroke="black" points="502.5,-292 445.5,-292 445.5,-256 502.5,-256 502.5,-292"/>
<text text-anchor="middle" x="474" y="-271.2" font-family="Courier,monospace" font-size="11.00">Logger</text>
</g>
<!-- \\Duality\\Service\\Logger&#45;&gt;\\Duality\\Core\\AbstractService -->
<g id="edge36" class="edge"><title>\\Duality\\Service\\Logger&#45;&gt;\\Duality\\Core\\AbstractService</title>
<path fill="none" stroke="black" d="M445.29,-283.188C437.063,-287.316 428.938,-293.09 424,-301 272.487,-543.711 535.921,-1360.58 361,-1587 356.089,-1593.36 349.691,-1598.25 342.598,-1602.01"/>
<polygon fill="none" stroke="black" points="340.986,-1598.9 333.303,-1606.19 343.858,-1605.28 340.986,-1598.9"/>
</g>
<!-- \\Duality\\Service\\Logger&#45;&gt;\\Duality\\Core\\InterfaceErrorHandler -->
<g id="edge37" class="edge"><title>\\Duality\\Service\\Logger&#45;&gt;\\Duality\\Core\\InterfaceErrorHandler</title>
<path fill="none" stroke="black" stroke-dasharray="1,5" d="M445.35,-283.226C437.127,-287.356 428.989,-293.122 424,-301 302.969,-492.11 500.454,-1138.89 361,-1317 360.512,-1317.62 360.009,-1318.23 359.493,-1318.83"/>
<polygon fill="none" stroke="black" points="356.951,-1316.42 352.079,-1325.82 361.755,-1321.51 356.951,-1316.42"/>
</g>
<!-- \\Duality\\Service\\Commander -->
<g id="node46" class="node"><title>\\Duality\\Service\\Commander</title>
<polygon fill="none" stroke="black" points="512.5,-454 435.5,-454 435.5,-418 512.5,-418 512.5,-454"/>
<text text-anchor="middle" x="474" y="-433.2" font-family="Courier,monospace" font-size="11.00">Commander</text>
</g>
<!-- \\Duality\\Service\\Commander&#45;&gt;\\Duality\\Core\\AbstractService -->
<g id="edge38" class="edge"><title>\\Duality\\Service\\Commander&#45;&gt;\\Duality\\Core\\AbstractService</title>
<path fill="none" stroke="black" d="M435.312,-451.259C430.871,-454.514 426.897,-458.396 424,-463 290.778,-674.747 514.638,-1389.57 361,-1587 356.067,-1593.34 349.655,-1598.22 342.555,-1601.98"/>
<polygon fill="none" stroke="black" points="340.941,-1598.86 333.254,-1606.16 343.81,-1605.25 340.941,-1598.86"/>
</g>
<!-- \\Duality\\Service\\Commander&#45;&gt;\\Duality\\Core\\InterfaceCommander -->
<g id="edge39" class="edge"><title>\\Duality\\Service\\Commander&#45;&gt;\\Duality\\Core\\InterfaceCommander</title>
<path fill="none" stroke="black" stroke-dasharray="1,5" d="M435.324,-451.267C430.881,-454.521 426.903,-458.4 424,-463 296.874,-664.428 507.545,-1345.23 361,-1533 358.292,-1536.47 355.141,-1539.5 351.677,-1542.15"/>
<polygon fill="none" stroke="black" points="349.611,-1539.32 343.088,-1547.67 353.394,-1545.21 349.611,-1539.32"/>
</g>
<!-- \\Duality\\Service\\Server -->
<g id="node47" class="node"><title>\\Duality\\Service\\Server</title>
<polygon fill="none" stroke="black" points="502.5,-796 445.5,-796 445.5,-760 502.5,-760 502.5,-796"/>
<text text-anchor="middle" x="474" y="-775.2" font-family="Courier,monospace" font-size="11.00">Server</text>
</g>
<!-- \\Duality\\Service\\Server&#45;&gt;\\Duality\\Core\\AbstractService -->
<g id="edge42" class="edge"><title>\\Duality\\Service\\Server&#45;&gt;\\Duality\\Core\\AbstractService</title>
<path fill="none" stroke="black" d="M445.435,-787.28C437.217,-791.414 429.061,-797.169 424,-805 329.366,-951.421 469.739,-1450.73 361,-1587 355.99,-1593.28 349.532,-1598.12 342.408,-1601.86"/>
<polygon fill="none" stroke="black" points="340.79,-1598.75 333.086,-1606.02 343.644,-1605.14 340.79,-1598.75"/>
</g>
<!-- \\Duality\\App -->
<g id="node48" class="node"><title>\\Duality\\App</title>
<polygon fill="none" stroke="black" points="501,-1740 447,-1740 447,-1704 501,-1704 501,-1740"/>
<text text-anchor="middle" x="474" y="-1719.2" font-family="Courier,monospace" font-size="11.00">App</text>
</g>
<!-- \\Duality\\App&#45;&gt;\\Duality\\Core\\Container -->
<g id="edge20" class="edge"><title>\\Duality\\App&#45;&gt;\\Duality\\Core\\Container</title>
<path fill="none" stroke="black" d="M446.707,-1722C416.096,-1722 364.815,-1722 326.248,-1722"/>
<polygon fill="none" stroke="black" points="326.237,-1718.5 316.237,-1722 326.237,-1725.5 326.237,-1718.5"/>
</g>
</g>
</svg>
