<?xml version="1.0" encoding="UTF-8" standalone="no"?>
<!DOCTYPE svg PUBLIC "-//W3C//DTD SVG 1.1//EN"
 "http://www.w3.org/Graphics/SVG/1.1/DTD/svg11.dtd">
<!-- Generated by graphviz version 2.36.0 (20140111.2315)
 -->
<!-- Title: G Pages: 1 -->
<svg width="736pt" height="1738pt"
 viewBox="0.00 0.00 736.00 1738.00" xmlns="http://www.w3.org/2000/svg" xmlns:xlink="http://www.w3.org/1999/xlink">
<g id="graph0" class="graph" transform="scale(1 1) rotate(0) translate(4 1734)">
<title>G</title>
<polygon fill="white" stroke="none" points="-4,4 -4,-1734 732,-1734 732,4 -4,4"/>
<g id="clust1" class="cluster"><title>cluster_Global</title>
<path fill="none" stroke="gray" d="M158,-8C158,-8 708,-8 708,-8 714,-8 720,-14 720,-20 720,-20 720,-1710 720,-1710 720,-1716 714,-1722 708,-1722 708,-1722 158,-1722 158,-1722 152,-1722 146,-1716 146,-1710 146,-1710 146,-20 146,-20 146,-14 152,-8 158,-8"/>
<text text-anchor="middle" x="433" y="-1709.2" font-family="Times,serif" font-size="11.00" fill="gray">Global</text>
</g>
<g id="clust2" class="cluster"><title>cluster_\Duality</title>
<path fill="none" stroke="gray" d="M166,-16C166,-16 700,-16 700,-16 706,-16 712,-22 712,-28 712,-28 712,-1682 712,-1682 712,-1688 706,-1694 700,-1694 700,-1694 166,-1694 166,-1694 160,-1694 154,-1688 154,-1682 154,-1682 154,-28 154,-28 154,-22 160,-16 166,-16"/>
<text text-anchor="middle" x="433" y="-1681.2" font-family="Times,serif" font-size="11.00" fill="gray">Duality</text>
</g>
<g id="clust3" class="cluster"><title>cluster_\Duality\Core</title>
<path fill="none" stroke="gray" d="M174,-804C174,-804 324,-804 324,-804 330,-804 336,-810 336,-816 336,-816 336,-1458 336,-1458 336,-1464 330,-1470 324,-1470 324,-1470 174,-1470 174,-1470 168,-1470 162,-1464 162,-1458 162,-1458 162,-816 162,-816 162,-810 168,-804 174,-804"/>
<text text-anchor="middle" x="249" y="-1457.2" font-family="Times,serif" font-size="11.00" fill="gray">Core</text>
</g>
<g id="clust4" class="cluster"><title>cluster_\Duality\Structure</title>
<path fill="none" stroke="gray" d="M428,-930C428,-930 692,-930 692,-930 698,-930 704,-936 704,-942 704,-942 704,-1654 704,-1654 704,-1660 698,-1666 692,-1666 692,-1666 428,-1666 428,-1666 422,-1666 416,-1660 416,-1654 416,-1654 416,-942 416,-942 416,-936 422,-930 428,-930"/>
<text text-anchor="middle" x="560" y="-1653.2" font-family="Times,serif" font-size="11.00" fill="gray">Structure</text>
</g>
<g id="clust5" class="cluster"><title>cluster_\Duality\Structure\Http</title>
<path fill="none" stroke="gray" d="M614,-1360C614,-1360 678,-1360 678,-1360 684,-1360 690,-1366 690,-1372 690,-1372 690,-1474 690,-1474 690,-1480 684,-1486 678,-1486 678,-1486 614,-1486 614,-1486 608,-1486 602,-1480 602,-1474 602,-1474 602,-1372 602,-1372 602,-1366 608,-1360 614,-1360"/>
<text text-anchor="middle" x="646" y="-1473.2" font-family="Times,serif" font-size="11.00" fill="gray">Http</text>
</g>
<g id="clust6" class="cluster"><title>cluster_\Duality\Structure\Database</title>
<path fill="none" stroke="gray" d="M623,-1280C623,-1280 669,-1280 669,-1280 675,-1280 681,-1286 681,-1292 681,-1292 681,-1340 681,-1340 681,-1346 675,-1352 669,-1352 669,-1352 623,-1352 623,-1352 617,-1352 611,-1346 611,-1340 611,-1340 611,-1292 611,-1292 611,-1286 617,-1280 623,-1280"/>
<text text-anchor="middle" x="646" y="-1339.2" font-family="Times,serif" font-size="11.00" fill="gray">Database</text>
</g>
<g id="clust7" class="cluster"><title>cluster_\Duality\Structure\File</title>
<path fill="none" stroke="gray" d="M608,-1092C608,-1092 684,-1092 684,-1092 690,-1092 696,-1098 696,-1104 696,-1104 696,-1260 696,-1260 696,-1266 690,-1272 684,-1272 684,-1272 608,-1272 608,-1272 602,-1272 596,-1266 596,-1260 596,-1260 596,-1104 596,-1104 596,-1098 602,-1092 608,-1092"/>
<text text-anchor="middle" x="646" y="-1259.2" font-family="Times,serif" font-size="11.00" fill="gray">File</text>
</g>
<g id="clust8" class="cluster"><title>cluster_\Duality\Database</title>
<path fill="none" stroke="gray" d="M443,-24C443,-24 489,-24 489,-24 495,-24 501,-30 501,-36 501,-36 501,-84 501,-84 501,-90 495,-96 489,-96 489,-96 443,-96 443,-96 437,-96 431,-90 431,-84 431,-84 431,-36 431,-36 431,-30 437,-24 443,-24"/>
<text text-anchor="middle" x="466" y="-83.2" font-family="Times,serif" font-size="11.00" fill="gray">Database</text>
</g>
<g id="clust9" class="cluster"><title>cluster_\Duality\Service</title>
<path fill="none" stroke="gray" d="M211,-104C211,-104 528,-104 528,-104 534,-104 540,-110 540,-116 540,-116 540,-784 540,-784 540,-790 534,-796 528,-796 528,-796 211,-796 211,-796 205,-796 199,-790 199,-784 199,-784 199,-116 199,-116 199,-110 205,-104 211,-104"/>
<text text-anchor="middle" x="369.5" y="-783.2" font-family="Times,serif" font-size="11.00" fill="gray">Service</text>
</g>
<g id="clust10" class="cluster"><title>cluster_\Duality\Service\Database</title>
<path fill="none" stroke="gray" d="M441,-112C441,-112 491,-112 491,-112 497,-112 503,-118 503,-124 503,-124 503,-172 503,-172 503,-178 497,-184 491,-184 491,-184 441,-184 441,-184 435,-184 429,-178 429,-172 429,-172 429,-124 429,-124 429,-118 435,-112 441,-112"/>
<text text-anchor="middle" x="466" y="-171.2" font-family="Times,serif" font-size="11.00" fill="gray">Database</text>
</g>
<g id="clust11" class="cluster"><title>cluster_\Duality\Http</title>
<path fill="none" stroke="gray" d="M441,-850C441,-850 491,-850 491,-850 497,-850 503,-856 503,-862 503,-862 503,-910 503,-910 503,-916 497,-922 491,-922 491,-922 441,-922 441,-922 435,-922 429,-916 429,-910 429,-910 429,-862 429,-862 429,-856 435,-850 441,-850"/>
<text text-anchor="middle" x="466" y="-909.2" font-family="Times,serif" font-size="11.00" fill="gray">Http</text>
</g>
<!-- \\Duality\\Core\\Container -->
<g id="node1" class="node"><title>\\Duality\\Core\\Container</title>
<polygon fill="none" stroke="black" points="291,-1280 207,-1280 207,-1244 291,-1244 291,-1280"/>
<text text-anchor="start" x="215" y="-1265.2" font-family="Courier,monospace" font-size="11.00">«abstract»</text>
<text text-anchor="start" x="218.5" y="-1253.2" font-family="Courier,monospace" font-size="11.00">Container</text>
</g>
<!-- \\Duality\\Core\\Structure -->
<g id="node2" class="node"><title>\\Duality\\Core\\Structure</title>
<polygon fill="none" stroke="black" points="291,-1442 207,-1442 207,-1406 291,-1406 291,-1442"/>
<text text-anchor="start" x="215" y="-1427.2" font-family="Courier,monospace" font-size="11.00">«abstract»</text>
<text text-anchor="start" x="218.5" y="-1415.2" font-family="Courier,monospace" font-size="11.00">Structure</text>
</g>
<!-- \\Duality\\Core\\DualityException -->
<g id="node3" class="node"><title>\\Duality\\Core\\DualityException</title>
<polygon fill="none" stroke="black" points="311.5,-1334 186.5,-1334 186.5,-1298 311.5,-1298 311.5,-1334"/>
<text text-anchor="middle" x="249" y="-1313.2" font-family="Courier,monospace" font-size="11.00">DualityException</text>
</g>
<!-- \\Exception -->
<g id="node44" class="node"><title>\\Exception</title>
<ellipse fill="none" stroke="black" cx="49" cy="-1316" rx="48.9926" ry="18"/>
<text text-anchor="middle" x="49" y="-1312.3" font-family="Times,serif" font-size="14.00" fill="gray">\Exception</text>
</g>
<!-- \\Duality\\Core\\DualityException&#45;&gt;\\Exception -->
<g id="edge20" class="edge"><title>\\Duality\\Core\\DualityException&#45;&gt;\\Exception</title>
<path fill="none" stroke="black" d="M186.437,-1316C161.505,-1316 132.857,-1316 108.27,-1316"/>
<polygon fill="none" stroke="black" points="108.003,-1312.5 98.0033,-1316 108.003,-1319.5 108.003,-1312.5"/>
</g>
<!-- \\Duality\\Core\\InterfaceService -->
<g id="node4" class="node"><title>\\Duality\\Core\\InterfaceService</title>
<polygon fill="none" stroke="black" points="311.5,-1226 186.5,-1226 186.5,-1190 311.5,-1190 311.5,-1226"/>
<text text-anchor="middle" x="249" y="-1205.2" font-family="Courier,monospace" font-size="11.00">InterfaceService</text>
</g>
<!-- \\Duality\\Core\\InterfaceCommander -->
<g id="node5" class="node"><title>\\Duality\\Core\\InterfaceCommander</title>
<polygon fill="none" stroke="black" points="318,-848 180,-848 180,-812 318,-812 318,-848"/>
<text text-anchor="middle" x="249" y="-827.2" font-family="Courier,monospace" font-size="11.00">InterfaceCommander</text>
</g>
<!-- \\Duality\\Core\\InterfaceAuth -->
<g id="node6" class="node"><title>\\Duality\\Core\\InterfaceAuth</title>
<polygon fill="none" stroke="black" points="301,-1172 197,-1172 197,-1136 301,-1136 301,-1172"/>
<text text-anchor="middle" x="249" y="-1151.2" font-family="Courier,monospace" font-size="11.00">InterfaceAuth</text>
</g>
<!-- \\Duality\\Core\\InterfacePaginator -->
<g id="node7" class="node"><title>\\Duality\\Core\\InterfacePaginator</title>
<polygon fill="none" stroke="black" points="318,-1118 180,-1118 180,-1082 318,-1082 318,-1118"/>
<text text-anchor="middle" x="249" y="-1097.2" font-family="Courier,monospace" font-size="11.00">InterfacePaginator</text>
</g>
<!-- \\Duality\\Core\\InterfaceStorage -->
<g id="node8" class="node"><title>\\Duality\\Core\\InterfaceStorage</title>
<polygon fill="none" stroke="black" points="311.5,-1388 186.5,-1388 186.5,-1352 311.5,-1352 311.5,-1388"/>
<text text-anchor="middle" x="249" y="-1367.2" font-family="Courier,monospace" font-size="11.00">InterfaceStorage</text>
</g>
<!-- \\Duality\\Core\\InterfaceMailer -->
<g id="node9" class="node"><title>\\Duality\\Core\\InterfaceMailer</title>
<polygon fill="none" stroke="black" points="308,-1010 190,-1010 190,-974 308,-974 308,-1010"/>
<text text-anchor="middle" x="249" y="-989.2" font-family="Courier,monospace" font-size="11.00">InterfaceMailer</text>
</g>
<!-- \\Duality\\Core\\InterfaceRemote -->
<g id="node10" class="node"><title>\\Duality\\Core\\InterfaceRemote</title>
<polygon fill="none" stroke="black" points="308,-956 190,-956 190,-920 308,-920 308,-956"/>
<text text-anchor="middle" x="249" y="-935.2" font-family="Courier,monospace" font-size="11.00">InterfaceRemote</text>
</g>
<!-- \\Duality\\Core\\InterfaceValidator -->
<g id="node11" class="node"><title>\\Duality\\Core\\InterfaceValidator</title>
<polygon fill="none" stroke="black" points="318,-902 180,-902 180,-866 318,-866 318,-902"/>
<text text-anchor="middle" x="249" y="-881.2" font-family="Courier,monospace" font-size="11.00">InterfaceValidator</text>
</g>
<!-- \\Duality\\Core\\InterfaceErrorHandler -->
<g id="node12" class="node"><title>\\Duality\\Core\\InterfaceErrorHandler</title>
<polygon fill="none" stroke="black" points="328,-1064 170,-1064 170,-1028 328,-1028 328,-1064"/>
<text text-anchor="middle" x="249" y="-1043.2" font-family="Courier,monospace" font-size="11.00">InterfaceErrorHandler</text>
</g>
<!-- \\Duality\\Structure\\Http\\Response -->
<g id="node13" class="node"><title>\\Duality\\Structure\\Http\\Response</title>
<polygon fill="none" stroke="black" points="681.5,-1458 610.5,-1458 610.5,-1422 681.5,-1422 681.5,-1458"/>
<text text-anchor="middle" x="646" y="-1437.2" font-family="Courier,monospace" font-size="11.00">Response</text>
</g>
<!-- \\Duality\\Structure\\Http -->
<g id="node26" class="node"><title>\\Duality\\Structure\\Http</title>
<polygon fill="none" stroke="black" points="508,-1442 424,-1442 424,-1406 508,-1406 508,-1442"/>
<text text-anchor="start" x="432" y="-1427.2" font-family="Courier,monospace" font-size="11.00">«abstract»</text>
<text text-anchor="start" x="452" y="-1415.2" font-family="Courier,monospace" font-size="11.00">Http</text>
</g>
<!-- \\Duality\\Structure\\Http\\Response&#45;&gt;\\Duality\\Structure\\Http -->
<g id="edge2" class="edge"><title>\\Duality\\Structure\\Http\\Response&#45;&gt;\\Duality\\Structure\\Http</title>
<path fill="none" stroke="black" d="M610.257,-1436.88C584.102,-1434.53 547.836,-1431.27 518.339,-1428.61"/>
<polygon fill="none" stroke="black" points="518.488,-1425.11 508.215,-1427.7 517.862,-1432.09 518.488,-1425.11"/>
</g>
<!-- \\Duality\\Structure\\Http\\Request -->
<g id="node14" class="node"><title>\\Duality\\Structure\\Http\\Request</title>
<polygon fill="none" stroke="black" points="678,-1404 614,-1404 614,-1368 678,-1368 678,-1404"/>
<text text-anchor="middle" x="646" y="-1383.2" font-family="Courier,monospace" font-size="11.00">Request</text>
</g>
<!-- \\Duality\\Structure\\Http\\Request&#45;&gt;\\Duality\\Structure\\Http -->
<g id="edge38" class="edge"><title>\\Duality\\Structure\\Http\\Request&#45;&gt;\\Duality\\Structure\\Http</title>
<path fill="none" stroke="black" d="M613.995,-1392.62C587.685,-1398.24 549.398,-1406.41 518.495,-1413.01"/>
<polygon fill="none" stroke="black" points="517.375,-1409.67 508.326,-1415.18 518.837,-1416.51 517.375,-1409.67"/>
</g>
<!-- \\Duality\\Structure\\Database\\Table -->
<g id="node15" class="node"><title>\\Duality\\Structure\\Database\\Table</title>
<polygon fill="none" stroke="black" points="673,-1324 619,-1324 619,-1288 673,-1288 673,-1324"/>
<text text-anchor="middle" x="646" y="-1303.2" font-family="Courier,monospace" font-size="11.00">Table</text>
</g>
<!-- \\Duality\\Structure\\Table -->
<g id="node25" class="node"><title>\\Duality\\Structure\\Table</title>
<polygon fill="none" stroke="black" points="508,-1356 424,-1356 424,-1320 508,-1320 508,-1356"/>
<text text-anchor="start" x="432" y="-1341.2" font-family="Courier,monospace" font-size="11.00">«abstract»</text>
<text text-anchor="start" x="449" y="-1329.2" font-family="Courier,monospace" font-size="11.00">Table</text>
</g>
<!-- \\Duality\\Structure\\Database\\Table&#45;&gt;\\Duality\\Structure\\Table -->
<g id="edge4" class="edge"><title>\\Duality\\Structure\\Database\\Table&#45;&gt;\\Duality\\Structure\\Table</title>
<path fill="none" stroke="black" d="M618.735,-1310.72C592.356,-1315.46 551.015,-1322.9 518.143,-1328.81"/>
<polygon fill="none" stroke="black" points="517.462,-1325.37 508.239,-1330.59 518.7,-1332.26 517.462,-1325.37"/>
</g>
<!-- \\Duality\\Structure\\File\\StreamFile -->
<g id="node16" class="node"><title>\\Duality\\Structure\\File\\StreamFile</title>
<polygon fill="none" stroke="black" points="688,-1244 604,-1244 604,-1208 688,-1208 688,-1244"/>
<text text-anchor="middle" x="646" y="-1223.2" font-family="Courier,monospace" font-size="11.00">StreamFile</text>
</g>
<!-- \\Duality\\Structure\\File -->
<g id="node27" class="node"><title>\\Duality\\Structure\\File</title>
<polygon fill="none" stroke="black" points="508,-1217 424,-1217 424,-1181 508,-1181 508,-1217"/>
<text text-anchor="start" x="432" y="-1202.2" font-family="Courier,monospace" font-size="11.00">«abstract»</text>
<text text-anchor="start" x="452" y="-1190.2" font-family="Courier,monospace" font-size="11.00">File</text>
</g>
<!-- \\Duality\\Structure\\File\\StreamFile&#45;&gt;\\Duality\\Structure\\File -->
<g id="edge12" class="edge"><title>\\Duality\\Structure\\File\\StreamFile&#45;&gt;\\Duality\\Structure\\File</title>
<path fill="none" stroke="black" d="M603.716,-1219.74C578.217,-1215.87 545.299,-1210.88 518.154,-1206.76"/>
<polygon fill="none" stroke="black" points="518.472,-1203.27 508.06,-1205.23 517.422,-1210.19 518.472,-1203.27"/>
</g>
<!-- \\Duality\\Structure\\File\\TextFile -->
<g id="node17" class="node"><title>\\Duality\\Structure\\File\\TextFile</title>
<polygon fill="none" stroke="black" points="681.5,-1190 610.5,-1190 610.5,-1154 681.5,-1154 681.5,-1190"/>
<text text-anchor="middle" x="646" y="-1169.2" font-family="Courier,monospace" font-size="11.00">TextFile</text>
</g>
<!-- \\Duality\\Structure\\File\\TextFile&#45;&gt;\\Duality\\Structure\\File -->
<g id="edge15" class="edge"><title>\\Duality\\Structure\\File\\TextFile&#45;&gt;\\Duality\\Structure\\File</title>
<path fill="none" stroke="black" d="M610.257,-1177.27C584.102,-1181.24 547.836,-1186.74 518.339,-1191.21"/>
<polygon fill="none" stroke="black" points="517.577,-1187.79 508.215,-1192.75 518.627,-1194.71 517.577,-1187.79"/>
</g>
<!-- \\Duality\\Structure\\File\\ImageFile -->
<g id="node18" class="node"><title>\\Duality\\Structure\\File\\ImageFile</title>
<polygon fill="none" stroke="black" points="684.5,-1136 607.5,-1136 607.5,-1100 684.5,-1100 684.5,-1136"/>
<text text-anchor="middle" x="646" y="-1115.2" font-family="Courier,monospace" font-size="11.00">ImageFile</text>
</g>
<!-- \\Duality\\Structure\\File\\ImageFile&#45;&gt;\\Duality\\Structure\\File -->
<g id="edge25" class="edge"><title>\\Duality\\Structure\\File\\ImageFile&#45;&gt;\\Duality\\Structure\\File</title>
<path fill="none" stroke="black" d="M607.251,-1135.18C580.753,-1147.24 545.062,-1163.48 516.316,-1176.56"/>
<polygon fill="none" stroke="black" points="514.509,-1173.54 506.857,-1180.86 517.408,-1179.91 514.509,-1173.54"/>
</g>
<!-- \\Duality\\Structure\\HtmlDoc -->
<g id="node19" class="node"><title>\\Duality\\Structure\\HtmlDoc</title>
<polygon fill="none" stroke="black" points="678,-1530 614,-1530 614,-1494 678,-1494 678,-1530"/>
<text text-anchor="middle" x="646" y="-1509.2" font-family="Courier,monospace" font-size="11.00">HtmlDoc</text>
</g>
<!-- \\Duality\\Structure\\HtmlDoc&#45;&gt;\\Duality\\Core\\Structure -->
<g id="edge1" class="edge"><title>\\Duality\\Structure\\HtmlDoc&#45;&gt;\\Duality\\Core\\Structure</title>
<path fill="none" stroke="black" d="M613.894,-1525.96C570.688,-1544.57 494.698,-1574.26 467,-1566"/>
<path fill="none" stroke="black" d="M465,-1566C388.559,-1543.21 314.294,-1483.27 276.261,-1449"/>
<polygon fill="none" stroke="black" points="278.451,-1446.26 268.708,-1442.09 273.729,-1451.42 278.451,-1446.26"/>
</g>
<!-- \\Duality\\Structure\\TableRow -->
<g id="node20" class="node"><title>\\Duality\\Structure\\TableRow</title>
<polygon fill="none" stroke="black" points="681.5,-1584 610.5,-1584 610.5,-1548 681.5,-1548 681.5,-1584"/>
<text text-anchor="middle" x="646" y="-1563.2" font-family="Courier,monospace" font-size="11.00">TableRow</text>
</g>
<!-- \\Duality\\Structure\\TableRow&#45;&gt;\\Duality\\Core\\Structure -->
<g id="edge3" class="edge"><title>\\Duality\\Structure\\TableRow&#45;&gt;\\Duality\\Core\\Structure</title>
<path fill="none" stroke="black" d="M610.37,-1571.74C573.874,-1576.48 515.124,-1580.35 467,-1566"/>
</g>
<!-- \\Duality\\Structure\\Url -->
<g id="node21" class="node"><title>\\Duality\\Structure\\Url</title>
<polygon fill="none" stroke="black" points="673,-1638 619,-1638 619,-1602 673,-1602 673,-1638"/>
<text text-anchor="middle" x="646" y="-1617.2" font-family="Courier,monospace" font-size="11.00">Url</text>
</g>
<!-- \\Duality\\Structure\\Url&#45;&gt;\\Duality\\Core\\Structure -->
<g id="edge11" class="edge"><title>\\Duality\\Structure\\Url&#45;&gt;\\Duality\\Core\\Structure</title>
<path fill="none" stroke="black" d="M618.785,-1611.96C584.09,-1601.34 521.004,-1582.1 467,-1566"/>
</g>
<!-- \\Duality\\Structure\\Entity -->
<g id="node22" class="node"><title>\\Duality\\Structure\\Entity</title>
<polygon fill="none" stroke="black" points="688,-1028 604,-1028 604,-992 688,-992 688,-1028"/>
<text text-anchor="start" x="612" y="-1013.2" font-family="Courier,monospace" font-size="11.00">«abstract»</text>
<text text-anchor="start" x="625.5" y="-1001.2" font-family="Courier,monospace" font-size="11.00">Entity</text>
</g>
<!-- \\Duality\\Structure\\Entity&#45;&gt;\\Duality\\Core\\Structure -->
<g id="edge16" class="edge"><title>\\Duality\\Structure\\Entity&#45;&gt;\\Duality\\Core\\Structure</title>
<path fill="none" stroke="black" d="M603.918,-1015.48C565.832,-1022.1 508.9,-1036.03 467,-1064"/>
<path fill="none" stroke="black" d="M465,-1064C332.993,-1152.12 446.7,-1283.26 336,-1397 326.607,-1406.65 313.809,-1412.87 300.959,-1416.86"/>
<polygon fill="none" stroke="black" points="299.917,-1413.52 291.177,-1419.51 301.743,-1420.27 299.917,-1413.52"/>
</g>
<!-- \\Duality\\Structure\\Storage -->
<g id="node23" class="node"><title>\\Duality\\Structure\\Storage</title>
<polygon fill="none" stroke="black" points="678,-974 614,-974 614,-938 678,-938 678,-974"/>
<text text-anchor="middle" x="646" y="-953.2" font-family="Courier,monospace" font-size="11.00">Storage</text>
</g>
<!-- \\Duality\\Structure\\Storage&#45;&gt;\\Duality\\Core\\InterfaceStorage -->
<g id="edge21" class="edge"><title>\\Duality\\Structure\\Storage&#45;&gt;\\Duality\\Core\\InterfaceStorage</title>
<path fill="none" stroke="black" stroke-dasharray="1,5" d="M613.695,-959.931C561.157,-968.253 455.551,-992.677 400,-1059 316.92,-1158.19 423.637,-1247.81 336,-1343 331.618,-1347.76 326.408,-1351.69 320.752,-1354.92"/>
<polygon fill="none" stroke="black" points="318.969,-1351.9 311.552,-1359.47 322.068,-1358.18 318.969,-1351.9"/>
</g>
<!-- \\Duality\\Structure\\Property -->
<g id="node24" class="node"><title>\\Duality\\Structure\\Property</title>
<polygon fill="none" stroke="black" points="681.5,-1082 610.5,-1082 610.5,-1046 681.5,-1046 681.5,-1082"/>
<text text-anchor="middle" x="646" y="-1061.2" font-family="Courier,monospace" font-size="11.00">Property</text>
</g>
<!-- \\Duality\\Structure\\Property&#45;&gt;\\Duality\\Core\\Structure -->
<g id="edge22" class="edge"><title>\\Duality\\Structure\\Property&#45;&gt;\\Duality\\Core\\Structure</title>
<path fill="none" stroke="black" d="M610.288,-1053.44C571.843,-1043.97 509.666,-1035.52 467,-1064"/>
</g>
<!-- \\Duality\\Structure\\Table&#45;&gt;\\Duality\\Core\\Structure -->
<g id="edge23" class="edge"><title>\\Duality\\Structure\\Table&#45;&gt;\\Duality\\Core\\Structure</title>
<path fill="none" stroke="black" d="M428.819,-1356.02C403.242,-1368.39 367.957,-1384.73 336,-1397 324.701,-1401.34 312.379,-1405.52 300.684,-1409.24"/>
<polygon fill="none" stroke="black" points="299.544,-1405.93 291.044,-1412.26 301.633,-1412.61 299.544,-1405.93"/>
</g>
<!-- \\Duality\\Structure\\Http&#45;&gt;\\Duality\\Core\\Structure -->
<g id="edge24" class="edge"><title>\\Duality\\Structure\\Http&#45;&gt;\\Duality\\Core\\Structure</title>
<path fill="none" stroke="black" d="M423.8,-1424C388.915,-1424 338.748,-1424 301.271,-1424"/>
<polygon fill="none" stroke="black" points="301.06,-1420.5 291.06,-1424 301.06,-1427.5 301.06,-1420.5"/>
</g>
<!-- \\Duality\\Structure\\File&#45;&gt;\\Duality\\Core\\Structure -->
<g id="edge37" class="edge"><title>\\Duality\\Structure\\File&#45;&gt;\\Duality\\Core\\Structure</title>
<path fill="none" stroke="black" d="M454.086,-1217.25C426.107,-1263.8 352.836,-1384.23 336,-1397 325.767,-1404.76 313.258,-1410.32 300.983,-1414.29"/>
<polygon fill="none" stroke="black" points="299.848,-1410.98 291.237,-1417.15 301.817,-1417.69 299.848,-1410.98"/>
</g>
<!-- \\Duality\\Database\\MySql -->
<g id="node28" class="node"><title>\\Duality\\Database\\MySql</title>
<polygon fill="none" stroke="black" points="493,-68 439,-68 439,-32 493,-32 493,-68"/>
<text text-anchor="middle" x="466" y="-47.2" font-family="Courier,monospace" font-size="11.00">MySql</text>
</g>
<!-- \\Duality\\Service\\Database -->
<g id="node34" class="node"><title>\\Duality\\Service\\Database</title>
<polygon fill="none" stroke="black" points="291,-156 207,-156 207,-120 291,-120 291,-156"/>
<text text-anchor="start" x="215" y="-141.2" font-family="Courier,monospace" font-size="11.00">«abstract»</text>
<text text-anchor="start" x="221.5" y="-129.2" font-family="Courier,monospace" font-size="11.00">Database</text>
</g>
<!-- \\Duality\\Database\\MySql&#45;&gt;\\Duality\\Service\\Database -->
<g id="edge5" class="edge"><title>\\Duality\\Database\\MySql&#45;&gt;\\Duality\\Service\\Database</title>
<path fill="none" stroke="black" d="M438.637,-60.7905C404.444,-74.7858 344.068,-99.4979 300.825,-117.197"/>
<polygon fill="none" stroke="black" points="299.256,-114.058 291.327,-121.085 301.908,-120.536 299.256,-114.058"/>
</g>
<!-- \\Duality\\Service\\Database\\SQLite -->
<g id="node29" class="node"><title>\\Duality\\Service\\Database\\SQLite</title>
<polygon fill="none" stroke="black" points="494.5,-156 437.5,-156 437.5,-120 494.5,-120 494.5,-156"/>
<text text-anchor="middle" x="466" y="-135.2" font-family="Courier,monospace" font-size="11.00">SQLite</text>
</g>
<!-- \\Duality\\Service\\Database\\SQLite&#45;&gt;\\Duality\\Service\\Database -->
<g id="edge19" class="edge"><title>\\Duality\\Service\\Database\\SQLite&#45;&gt;\\Duality\\Service\\Database</title>
<path fill="none" stroke="black" d="M437.333,-138C403.071,-138 344.024,-138 301.367,-138"/>
<polygon fill="none" stroke="black" points="301.173,-134.5 291.173,-138 301.173,-141.5 301.173,-134.5"/>
</g>
<!-- \\Duality\\Service\\Auth -->
<g id="node30" class="node"><title>\\Duality\\Service\\Auth</title>
<polygon fill="none" stroke="black" points="493,-498 439,-498 439,-462 493,-462 493,-498"/>
<text text-anchor="middle" x="466" y="-477.2" font-family="Courier,monospace" font-size="11.00">Auth</text>
</g>
<!-- \\Duality\\Service\\Auth&#45;&gt;\\Duality\\Core\\InterfaceService -->
<g id="edge7" class="edge"><title>\\Duality\\Service\\Auth&#45;&gt;\\Duality\\Core\\InterfaceService</title>
<path fill="none" stroke="black" stroke-dasharray="1,5" d="M438.812,-484.233C425.033,-487.878 409.144,-494.613 400,-507 310.648,-628.045 430.677,-1064.07 336,-1181 331.864,-1186.11 326.77,-1190.27 321.144,-1193.65"/>
<polygon fill="none" stroke="black" points="319.243,-1190.69 311.927,-1198.35 322.425,-1196.93 319.243,-1190.69"/>
</g>
<!-- \\Duality\\Service\\Auth&#45;&gt;\\Duality\\Core\\InterfaceAuth -->
<g id="edge6" class="edge"><title>\\Duality\\Service\\Auth&#45;&gt;\\Duality\\Core\\InterfaceAuth</title>
<path fill="none" stroke="black" stroke-dasharray="1,5" d="M438.851,-484.262C425.084,-487.917 409.195,-494.65 400,-507 234.57,-729.2 511.204,-912.422 336,-1127 329.4,-1135.08 320.402,-1140.79 310.704,-1144.8"/>
<polygon fill="none" stroke="black" points="309.501,-1141.52 301.247,-1148.16 311.842,-1148.11 309.501,-1141.52"/>
</g>
<!-- \\Duality\\Service\\SSH -->
<g id="node31" class="node"><title>\\Duality\\Service\\SSH</title>
<polygon fill="none" stroke="black" points="493,-336 439,-336 439,-300 493,-300 493,-336"/>
<text text-anchor="middle" x="466" y="-315.2" font-family="Courier,monospace" font-size="11.00">SSH</text>
</g>
<!-- \\Duality\\Service\\SSH&#45;&gt;\\Duality\\Core\\InterfaceService -->
<g id="edge9" class="edge"><title>\\Duality\\Service\\SSH&#45;&gt;\\Duality\\Core\\InterfaceService</title>
<path fill="none" stroke="black" stroke-dasharray="1,5" d="M438.724,-322.169C424.918,-325.794 409.03,-332.53 400,-345 290.719,-495.909 451.921,-1035.13 336,-1181 331.748,-1186.35 326.444,-1190.66 320.571,-1194.13"/>
<polygon fill="none" stroke="black" points="318.975,-1191.02 311.614,-1198.64 322.12,-1197.27 318.975,-1191.02"/>
</g>
<!-- \\Duality\\Service\\SSH&#45;&gt;\\Duality\\Core\\InterfaceRemote -->
<g id="edge10" class="edge"><title>\\Duality\\Service\\SSH&#45;&gt;\\Duality\\Core\\InterfaceRemote</title>
<path fill="none" stroke="black" stroke-dasharray="1,5" d="M438.898,-322.297C425.145,-325.962 409.255,-332.695 400,-345 247.832,-547.322 497.065,-715.687 336,-911 330.96,-917.112 324.55,-921.863 317.509,-925.551"/>
<polygon fill="none" stroke="black" points="316,-922.392 308.308,-929.678 318.865,-928.779 316,-922.392"/>
</g>
<!-- \\Duality\\Service\\Localization -->
<g id="node32" class="node"><title>\\Duality\\Service\\Localization</title>
<polygon fill="none" stroke="black" points="515,-660 417,-660 417,-624 515,-624 515,-660"/>
<text text-anchor="middle" x="466" y="-639.2" font-family="Courier,monospace" font-size="11.00">Localization</text>
</g>
<!-- \\Duality\\Service\\Localization&#45;&gt;\\Duality\\Core\\InterfaceService -->
<g id="edge14" class="edge"><title>\\Duality\\Service\\Localization&#45;&gt;\\Duality\\Core\\InterfaceService</title>
<path fill="none" stroke="black" stroke-dasharray="1,5" d="M416.848,-654.987C410.371,-658.584 404.441,-663.167 400,-669 261.082,-851.462 482.94,-1004.93 336,-1181 331.789,-1186.05 326.644,-1190.16 320.986,-1193.52"/>
<polygon fill="none" stroke="black" points="319.081,-1190.56 311.733,-1198.19 322.237,-1196.81 319.081,-1190.56"/>
</g>
<!-- \\Duality\\Service\\Paginator -->
<g id="node33" class="node"><title>\\Duality\\Service\\Paginator</title>
<polygon fill="none" stroke="black" points="504.5,-444 427.5,-444 427.5,-408 504.5,-408 504.5,-444"/>
<text text-anchor="middle" x="466" y="-423.2" font-family="Courier,monospace" font-size="11.00">Paginator</text>
</g>
<!-- \\Duality\\Service\\Paginator&#45;&gt;\\Duality\\Core\\InterfaceService -->
<g id="edge17" class="edge"><title>\\Duality\\Service\\Paginator&#45;&gt;\\Duality\\Core\\InterfaceService</title>
<path fill="none" stroke="black" stroke-dasharray="1,5" d="M427.332,-433.881C416.909,-437.895 406.645,-443.932 400,-453 304.008,-583.996 437.755,-1054.43 336,-1181 331.718,-1186.33 326.394,-1190.62 320.508,-1194.08"/>
<polygon fill="none" stroke="black" points="318.911,-1190.97 311.539,-1198.58 322.048,-1197.23 318.911,-1190.97"/>
</g>
<!-- \\Duality\\Service\\Paginator&#45;&gt;\\Duality\\Core\\InterfacePaginator -->
<g id="edge18" class="edge"><title>\\Duality\\Service\\Paginator&#45;&gt;\\Duality\\Core\\InterfacePaginator</title>
<path fill="none" stroke="black" stroke-dasharray="1,5" d="M427.416,-433.943C416.996,-437.96 406.713,-443.983 400,-453 234.57,-675.2 511.204,-858.422 336,-1073 333.272,-1076.34 330.135,-1079.28 326.707,-1081.85"/>
<polygon fill="none" stroke="black" points="324.799,-1078.92 318.241,-1087.24 328.557,-1084.82 324.799,-1078.92"/>
</g>
<!-- \\Duality\\Service\\Database&#45;&gt;\\Duality\\Core\\InterfaceService -->
<g id="edge26" class="edge"><title>\\Duality\\Service\\Database&#45;&gt;\\Duality\\Core\\InterfaceService</title>
<path fill="none" stroke="black" stroke-dasharray="1,5" d="M253.458,-156.255C272.232,-234.197 344.953,-547.066 368,-809 375.07,-889.356 416.078,-1107.23 368,-1172 356.82,-1187.06 339.517,-1196.05 321.536,-1201.34"/>
<polygon fill="none" stroke="black" points="320.324,-1198.04 311.511,-1203.92 322.068,-1204.82 320.324,-1198.04"/>
</g>
<!-- \\Duality\\Service\\Cache -->
<g id="node35" class="node"><title>\\Duality\\Service\\Cache</title>
<polygon fill="none" stroke="black" points="493,-768 439,-768 439,-732 493,-732 493,-768"/>
<text text-anchor="middle" x="466" y="-747.2" font-family="Courier,monospace" font-size="11.00">Cache</text>
</g>
<!-- \\Duality\\Service\\Cache&#45;&gt;\\Duality\\Core\\InterfaceService -->
<g id="edge28" class="edge"><title>\\Duality\\Service\\Cache&#45;&gt;\\Duality\\Core\\InterfaceService</title>
<path fill="none" stroke="black" stroke-dasharray="1,5" d="M438.893,-752.438C425.314,-755.096 409.592,-760.608 400,-772 281.495,-912.743 456.057,-1041.58 336,-1181 331.711,-1185.98 326.515,-1190.05 320.824,-1193.38"/>
<polygon fill="none" stroke="black" points="318.915,-1190.42 311.534,-1198.03 322.044,-1196.69 318.915,-1190.42"/>
</g>
<!-- \\Duality\\Service\\Cache&#45;&gt;\\Duality\\Core\\InterfaceStorage -->
<g id="edge27" class="edge"><title>\\Duality\\Service\\Cache&#45;&gt;\\Duality\\Core\\InterfaceStorage</title>
<path fill="none" stroke="black" stroke-dasharray="1,5" d="M438.696,-752.276C425.057,-754.885 409.341,-760.402 400,-772 239.819,-970.883 498.374,-1145.9 336,-1343 331.821,-1348.07 326.698,-1352.21 321.054,-1355.58"/>
<polygon fill="none" stroke="black" points="319.15,-1352.62 311.816,-1360.26 322.318,-1358.86 319.15,-1352.62"/>
</g>
<!-- \\Duality\\Service\\Validator -->
<g id="node36" class="node"><title>\\Duality\\Service\\Validator</title>
<polygon fill="none" stroke="black" points="504.5,-282 427.5,-282 427.5,-246 504.5,-246 504.5,-282"/>
<text text-anchor="middle" x="466" y="-261.2" font-family="Courier,monospace" font-size="11.00">Validator</text>
</g>
<!-- \\Duality\\Service\\Validator&#45;&gt;\\Duality\\Core\\InterfaceService -->
<g id="edge29" class="edge"><title>\\Duality\\Service\\Validator&#45;&gt;\\Duality\\Core\\InterfaceService</title>
<path fill="none" stroke="black" stroke-dasharray="1,5" d="M427.243,-271.816C416.816,-275.827 406.573,-281.879 400,-291 284.072,-451.869 459.008,-1025.48 336,-1181 331.76,-1186.36 326.464,-1190.68 320.596,-1194.15"/>
<polygon fill="none" stroke="black" points="319.001,-1191.04 311.645,-1198.66 322.15,-1197.29 319.001,-1191.04"/>
</g>
<!-- \\Duality\\Service\\Validator&#45;&gt;\\Duality\\Core\\InterfaceValidator -->
<g id="edge30" class="edge"><title>\\Duality\\Service\\Validator&#45;&gt;\\Duality\\Core\\InterfaceValidator</title>
<path fill="none" stroke="black" stroke-dasharray="1,5" d="M427.47,-271.983C417.053,-276.002 406.757,-282.015 400,-291 247.832,-493.322 497.065,-661.687 336,-857 333.256,-860.328 330.106,-863.252 326.669,-865.821"/>
<polygon fill="none" stroke="black" points="324.761,-862.886 318.185,-871.193 328.506,-868.8 324.761,-862.886"/>
</g>
<!-- \\Duality\\Service\\Logger -->
<g id="node37" class="node"><title>\\Duality\\Service\\Logger</title>
<polygon fill="none" stroke="black" points="494.5,-390 437.5,-390 437.5,-354 494.5,-354 494.5,-390"/>
<text text-anchor="middle" x="466" y="-369.2" font-family="Courier,monospace" font-size="11.00">Logger</text>
</g>
<!-- \\Duality\\Service\\Logger&#45;&gt;\\Duality\\Core\\InterfaceService -->
<g id="edge32" class="edge"><title>\\Duality\\Service\\Logger&#45;&gt;\\Duality\\Core\\InterfaceService</title>
<path fill="none" stroke="black" stroke-dasharray="1,5" d="M437.43,-376.543C423.949,-380.252 408.775,-386.949 400,-399 297.365,-539.95 444.837,-1044.78 336,-1181 331.734,-1186.34 326.421,-1190.64 320.542,-1194.11"/>
<polygon fill="none" stroke="black" points="318.945,-1190.99 311.579,-1198.61 322.086,-1197.25 318.945,-1190.99"/>
</g>
<!-- \\Duality\\Service\\Logger&#45;&gt;\\Duality\\Core\\InterfaceErrorHandler -->
<g id="edge31" class="edge"><title>\\Duality\\Service\\Logger&#45;&gt;\\Duality\\Core\\InterfaceErrorHandler</title>
<path fill="none" stroke="black" stroke-dasharray="1,5" d="M437.203,-376.712C423.834,-380.46 408.83,-387.14 400,-399 234.57,-621.2 511.204,-804.422 336,-1019 335.394,-1019.74 334.767,-1020.46 334.122,-1021.17"/>
<polygon fill="none" stroke="black" points="331.644,-1018.69 326.544,-1027.98 336.322,-1023.9 331.644,-1018.69"/>
</g>
<!-- \\Duality\\Service\\DefaultController -->
<g id="node38" class="node"><title>\\Duality\\Service\\DefaultController</title>
<polygon fill="none" stroke="black" points="531.5,-606 400.5,-606 400.5,-570 531.5,-570 531.5,-606"/>
<text text-anchor="middle" x="466" y="-585.2" font-family="Courier,monospace" font-size="11.00">DefaultController</text>
</g>
<!-- \\Duality\\Service\\DefaultController&#45;&gt;\\Duality\\Core\\InterfaceService -->
<g id="edge33" class="edge"><title>\\Duality\\Service\\DefaultController&#45;&gt;\\Duality\\Core\\InterfaceService</title>
<path fill="none" stroke="black" stroke-dasharray="1,5" d="M408.769,-606.207C405.478,-608.765 402.497,-611.68 400,-615 247.832,-817.322 497.065,-985.687 336,-1181 331.818,-1186.07 326.694,-1190.2 321.049,-1193.57"/>
<polygon fill="none" stroke="black" points="319.145,-1190.61 311.81,-1198.26 322.311,-1196.86 319.145,-1190.61"/>
</g>
<!-- \\Duality\\Service\\Commander -->
<g id="node39" class="node"><title>\\Duality\\Service\\Commander</title>
<polygon fill="none" stroke="black" points="504.5,-228 427.5,-228 427.5,-192 504.5,-192 504.5,-228"/>
<text text-anchor="middle" x="466" y="-207.2" font-family="Courier,monospace" font-size="11.00">Commander</text>
</g>
<!-- \\Duality\\Service\\Commander&#45;&gt;\\Duality\\Core\\InterfaceService -->
<g id="edge35" class="edge"><title>\\Duality\\Service\\Commander&#45;&gt;\\Duality\\Core\\InterfaceService</title>
<path fill="none" stroke="black" stroke-dasharray="1,5" d="M427.22,-217.799C416.792,-221.81 406.554,-227.866 400,-237 277.422,-407.832 466.096,-1015.82 336,-1181 331.771,-1186.37 326.483,-1190.69 320.619,-1194.17"/>
<polygon fill="none" stroke="black" points="319.024,-1191.05 311.672,-1198.68 322.177,-1197.3 319.024,-1191.05"/>
</g>
<!-- \\Duality\\Service\\Commander&#45;&gt;\\Duality\\Core\\InterfaceCommander -->
<g id="edge34" class="edge"><title>\\Duality\\Service\\Commander&#45;&gt;\\Duality\\Core\\InterfaceCommander</title>
<path fill="none" stroke="black" stroke-dasharray="1,5" d="M427.473,-217.986C417.056,-222.004 406.76,-228.018 400,-237 248.569,-438.218 493.208,-603.262 336,-800 333.279,-803.405 330.147,-806.424 326.725,-809.102"/>
<polygon fill="none" stroke="black" points="324.639,-806.286 318.266,-814.75 328.527,-812.107 324.639,-806.286"/>
</g>
<!-- \\Duality\\Service\\Server -->
<g id="node40" class="node"><title>\\Duality\\Service\\Server</title>
<polygon fill="none" stroke="black" points="494.5,-552 437.5,-552 437.5,-516 494.5,-516 494.5,-552"/>
<text text-anchor="middle" x="466" y="-531.2" font-family="Courier,monospace" font-size="11.00">Server</text>
</g>
<!-- \\Duality\\Service\\Server&#45;&gt;\\Duality\\Core\\InterfaceService -->
<g id="edge36" class="edge"><title>\\Duality\\Service\\Server&#45;&gt;\\Duality\\Core\\InterfaceService</title>
<path fill="none" stroke="black" stroke-dasharray="1,5" d="M437.203,-538.712C423.834,-542.46 408.83,-549.14 400,-561 234.57,-783.2 511.204,-966.422 336,-1181 331.843,-1186.09 326.735,-1190.24 321.101,-1193.61"/>
<polygon fill="none" stroke="black" points="319.198,-1190.66 311.873,-1198.31 322.373,-1196.89 319.198,-1190.66"/>
</g>
<!-- \\Duality\\Service\\Session -->
<g id="node41" class="node"><title>\\Duality\\Service\\Session</title>
<polygon fill="none" stroke="black" points="498,-714 434,-714 434,-678 498,-678 498,-714"/>
<text text-anchor="middle" x="466" y="-693.2" font-family="Courier,monospace" font-size="11.00">Session</text>
</g>
<!-- \\Duality\\Service\\Session&#45;&gt;\\Duality\\Core\\InterfaceService -->
<g id="edge40" class="edge"><title>\\Duality\\Service\\Session&#45;&gt;\\Duality\\Core\\InterfaceService</title>
<path fill="none" stroke="black" stroke-dasharray="1,5" d="M433.71,-701.951C421.377,-705.884 408.22,-712.365 400,-723 274.314,-885.625 468.834,-1024.16 336,-1181 331.752,-1186.02 326.583,-1190.11 320.91,-1193.46"/>
<polygon fill="none" stroke="black" points="319.003,-1190.5 311.64,-1198.12 322.146,-1196.75 319.003,-1190.5"/>
</g>
<!-- \\Duality\\Service\\Session&#45;&gt;\\Duality\\Core\\InterfaceStorage -->
<g id="edge39" class="edge"><title>\\Duality\\Service\\Session&#45;&gt;\\Duality\\Core\\InterfaceStorage</title>
<path fill="none" stroke="black" stroke-dasharray="1,5" d="M433.859,-701.703C421.396,-705.599 408.1,-712.12 400,-723 234.57,-945.2 511.204,-1128.42 336,-1343 331.843,-1348.09 326.735,-1352.24 321.101,-1355.61"/>
<polygon fill="none" stroke="black" points="319.198,-1352.66 311.873,-1360.31 322.373,-1358.89 319.198,-1352.66"/>
</g>
<!-- \\Duality\\Http\\Client -->
<g id="node42" class="node"><title>\\Duality\\Http\\Client</title>
<polygon fill="none" stroke="black" points="494.5,-894 437.5,-894 437.5,-858 494.5,-858 494.5,-894"/>
<text text-anchor="middle" x="466" y="-873.2" font-family="Courier,monospace" font-size="11.00">Client</text>
</g>
<!-- \\Duality\\Http\\Client&#45;&gt;\\Duality\\Core\\InterfaceService -->
<g id="edge8" class="edge"><title>\\Duality\\Http\\Client&#45;&gt;\\Duality\\Core\\InterfaceService</title>
<path fill="none" stroke="black" stroke-dasharray="1,5" d="M437.39,-891.245C424.238,-899.835 409.37,-911.714 400,-926 335.915,-1023.71 416.181,-1096 336,-1181 331.631,-1185.63 326.478,-1189.47 320.901,-1192.66"/>
<polygon fill="none" stroke="black" points="319.25,-1189.57 311.84,-1197.14 322.355,-1195.84 319.25,-1189.57"/>
</g>
<!-- \\Duality\\App -->
<g id="node43" class="node"><title>\\Duality\\App</title>
<polygon fill="none" stroke="black" points="493,-840 439,-840 439,-804 493,-804 493,-840"/>
<text text-anchor="middle" x="466" y="-819.2" font-family="Courier,monospace" font-size="11.00">App</text>
</g>
<!-- \\Duality\\App&#45;&gt;\\Duality\\Core\\Container -->
<g id="edge13" class="edge"><title>\\Duality\\App&#45;&gt;\\Duality\\Core\\Container</title>
<path fill="none" stroke="black" d="M438.877,-825.312C425.294,-828.41 409.572,-834.404 400,-846 288.46,-981.124 450.85,-1102.68 336,-1235 327.008,-1245.36 314.092,-1251.79 300.992,-1255.77"/>
<polygon fill="none" stroke="black" points="299.803,-1252.46 291,-1258.36 301.559,-1259.24 299.803,-1252.46"/>
</g>
</g>
</svg>
